SplineFontDB: 3.2
FontName: Waree-BoldOblique
FullName: Waree Bold Oblique
FamilyName: Waree
Weight: Bold
Copyright: Copyright (c) 2003 by Bitstream, Inc. All Rights Reserved.\n\nTLWG changes are in public domain.
Version: 001.002
ItalicAngle: -11
UnderlinePosition: -170
UnderlineWidth: 10
Ascent: 1638
Descent: 410
InvalidEm: 0
LayerCount: 3
Layer: 0 0 "Back" 1
Layer: 1 0 "Fore" 0
Layer: 2 1 "Quad" 0
FSType: 0
OS2Version: 4
OS2_WeightWidthSlopeOnly: 0
OS2_UseTypoMetrics: 1
CreationTime: 1153662462
ModificationTime: 1588062812
PfmFamily: 33
TTFWeight: 700
TTFWidth: 5
LineGap: 0
VLineGap: 0
Panose: 2 11 6 4 2 2 2 2 2 4
OS2TypoAscent: 2543
OS2TypoAOffset: 0
OS2TypoDescent: -882
OS2TypoDOffset: 0
OS2TypoLinegap: 0
OS2WinAscent: 0
OS2WinAOffset: 1
OS2WinDescent: 0
OS2WinDOffset: 1
HheadAscent: 0
HheadAOffset: 1
HheadDescent: 0
HheadDOffset: 1
OS2SubXSize: 1331
OS2SubYSize: 1433
OS2SubXOff: -219
OS2SubYOff: 286
OS2SupXSize: 1331
OS2SupYSize: 1433
OS2SupXOff: 753
OS2SupYOff: 983
OS2StrikeYSize: 102
OS2StrikeYPos: 530
OS2Vendor: 'PfEd'
Lookup: 4 0 1 "'liga' Standard Ligatures in Latin lookup 2" { "'liga' Standard Ligatures in Latin lookup 2"  } ['liga' ('latn' <'dflt' > ) ]
Lookup: 4 0 0 "'frac' Diagonal Fractions in Thai lookup 3" { "'frac' Diagonal Fractions in Thai lookup 3"  } ['frac' ('thai' <'KUY ' 'PAL ' 'THA ' 'dflt' > ) ]
Lookup: 6 0 0 "'ccmp' Thai Tone Tilde Reordering" { "'ccmp' Thai Tone Tilde Reordering"  } ['ccmp' ('DFLT' <'dflt' > 'latn' <'dflt' > 'thai' <'KUY ' 'MLY ' 'PAL ' 'SAN ' 'THA ' 'dflt' > ) ]
Lookup: 6 0 0 "'ccmp' Thai Tone Macron Reordering" { "'ccmp' Thai Tone Macron Reordering"  } ['ccmp' ('DFLT' <'dflt' > 'latn' <'dflt' > 'thai' <'KUY ' 'MLY ' 'PAL ' 'SAN ' 'THA ' 'dflt' > ) ]
Lookup: 6 0 0 "'ccmp' Thai Below Vowel Macron Reordering" { "'ccmp' Thai Below Vowel Macron Reordering"  } ['ccmp' ('DFLT' <'dflt' > 'latn' <'dflt' > 'thai' <'KUY ' 'MLY ' 'PAL ' 'SAN ' 'THA ' 'dflt' > ) ]

StartChar: .notdef
Encoding: 65536 -1 0
Width: 1229
Flags: W
HStem: -362 114<169 964> 1329 115<475 1270>
DStem2: 32 -362 146.841 -362 0.190809 0.981627<138.046 1744.46> 941.841 -362 1056 -362 0.190809 0.981627<116.134 1722.55>
LayerCount: 3
Fore
SplineSet
32 -362 m 1
 383 1444 l 1
 1407 1444 l 1
 1056 -362 l 1
 32 -362 l 1
169 -248 m 1
 964 -248 l 1
 1270 1329 l 1
 475 1329 l 1
 169 -248 l 1
EndSplineSet
Validated: 1
Layer: 2
SplineSet
32 -362 m 1,0,-1
 383 1444 l 1,1,-1
 1407 1444 l 1,2,-1
 1056 -362 l 1,3,-1
 32 -362 l 1,0,-1
169 -248 m 1,4,-1
 964 -248 l 1,5,-1
 1270 1329 l 1,6,-1
 475 1329 l 1,7,-1
 169 -248 l 1,4,-1
EndSplineSet
EndChar

StartChar: uni0E4D.high
Encoding: 63262 63262 2
Width: 0
VWidth: 2348
Flags: W
HStem: 2036 114<97.0602 226.684> 2294 114<107.232 237.583>
VStem: -22 116<2153.06 2281.75> 240 117<2162.91 2291.08>
AnchorPoint: "AboveMark" 129 1999 mark 0
AnchorPoint: "AboveMark" 232 2529 basemark 0
LayerCount: 3
Fore
SplineSet
-22 2185 m 0
 -22 2319 107 2408 203 2408 c 0
 297 2408 357 2344 357 2259 c 0
 357 2140 247 2036 132 2036 c 0
 39 2036 -22 2101 -22 2185 c 0
153 2150 m 0
 203 2150 240 2195 240 2236 c 0
 240 2271 215 2294 181 2294 c 0
 136 2294 94 2253 94 2208 c 0
 94 2173 119 2150 153 2150 c 0
EndSplineSet
Validated: 1
Layer: 2
SplineSet
-22 2185 m 0,0,1
 -22 2279 -22 2279 51 2343.5 c 128,-1,2
 124 2408 124 2408 203 2408 c 0,3,4
 272 2408 272 2408 314.5 2366 c 128,-1,5
 357 2324 357 2324 357 2259 c 0,6,7
 357 2171 357 2171 288 2103.5 c 128,-1,8
 219 2036 219 2036 132 2036 c 0,9,10
 63 2036 63 2036 20.5 2078.5 c 128,-1,11
 -22 2121 -22 2121 -22 2185 c 0,0,1
153 2150 m 0,12,13
 189 2150 189 2150 214.5 2177 c 128,-1,14
 240 2204 240 2204 240 2236 c 0,15,16
 240 2262 240 2262 223.5 2278 c 128,-1,17
 207 2294 207 2294 181 2294 c 0,18,19
 147 2294 147 2294 120.5 2268 c 128,-1,20
 94 2242 94 2242 94 2208 c 0,21,22
 94 2182 94 2182 110.5 2166 c 128,-1,23
 127 2150 127 2150 153 2150 c 0,12,13
EndSplineSet
EndChar

StartChar: exclam
Encoding: 33 33 5
Width: 934
Flags: W
HStem: 0 356<356 647> 1473 20G<573.126 937>
VStem: 287 650
DStem2: 287 0 647 0 0.190809 0.981627<68.6912 362.625 775.679 1520.9>
LayerCount: 3
Fore
SplineSet
577 1493 m 1
 937 1493 l 1
 826 920 l 1
 694 502 l 1
 436 502 l 1
 466 920 l 1
 577 1493 l 1
356 356 m 1
 716 356 l 1
 647 0 l 1
 287 0 l 1
 356 356 l 1
EndSplineSet
Validated: 1
Layer: 2
SplineSet
577 1493 m 1,0,-1
 937 1493 l 1,1,-1
 826 920 l 1,2,-1
 694 502 l 1,3,-1
 436 502 l 1,4,-1
 466 920 l 1,5,-1
 577 1493 l 1,0,-1
356 356 m 1,6,-1
 716 356 l 1,7,-1
 647 0 l 1,8,-1
 287 0 l 1,9,-1
 356 356 l 1,6,-1
EndSplineSet
EndChar

StartChar: quotedbl
Encoding: 34 34 6
Width: 1067
Flags: W
HStem: 938 555<485 614 925 1054>
DStem2: 377 938 614 938 0.190809 0.981627<45.2217 565.41> 817 938 1054 938 0.190809 0.981627<45.2217 565.41>
LayerCount: 3
Fore
SplineSet
1162 1493 m 1
 1054 938 l 1
 817 938 l 1
 925 1493 l 1
 1162 1493 l 1
722 1493 m 1
 614 938 l 1
 377 938 l 1
 485 1493 l 1
 722 1493 l 1
EndSplineSet
Validated: 1
Layer: 2
SplineSet
1162 1493 m 1,0,-1
 1054 938 l 1,1,-1
 817 938 l 1,2,-1
 925 1493 l 1,3,-1
 1162 1493 l 1,0,-1
722 1493 m 1,4,-1
 614 938 l 1,5,-1
 377 938 l 1,6,-1
 485 1493 l 1,7,-1
 722 1493 l 1,4,-1
EndSplineSet
EndChar

StartChar: numbersign
Encoding: 35 35 7
Width: 1716
Flags: W
HStem: 0 21G<322 553.877 809 1038.88> 383 215<255 492 806 979 1294 1536> 872 213<465 706 1026 1194 1511 1746>
DStem2: 322 0 545 0 0.405446 0.914119<90.4145 419.033 742.879 952.803 1277.25 1608.11> 809 0 1030 0 0.405965 0.913888<89.7184 419.033 743.399 953.207 1276.56 1608.51>
LayerCount: 3
Fore
SplineSet
1197 1470 m 1
 1026 1085 l 1
 1290 1085 l 1
 1462 1470 l 1
 1683 1470 l 1
 1511 1085 l 1
 1788 1085 l 1
 1746 872 l 1
 1416 872 l 1
 1294 598 l 1
 1578 598 l 1
 1536 383 l 1
 1200 383 l 1
 1030 0 l 1
 809 0 l 1
 979 383 l 1
 715 383 l 1
 545 0 l 1
 322 0 l 1
 492 383 l 1
 213 383 l 1
 255 598 l 1
 583 598 l 1
 706 872 l 1
 424 872 l 1
 465 1085 l 1
 803 1085 l 1
 974 1470 l 1
 1197 1470 l 1
1194 872 m 1
 930 872 l 1
 806 598 l 1
 1070 598 l 1
 1194 872 l 1
EndSplineSet
Validated: 1
Layer: 2
SplineSet
1197 1470 m 1,0,-1
 1026 1085 l 1,1,-1
 1290 1085 l 1,2,-1
 1462 1470 l 1,3,-1
 1683 1470 l 1,4,-1
 1511 1085 l 1,5,-1
 1788 1085 l 1,6,-1
 1746 872 l 1,7,-1
 1416 872 l 1,8,-1
 1294 598 l 1,9,-1
 1578 598 l 1,10,-1
 1536 383 l 1,11,-1
 1200 383 l 1,12,-1
 1030 0 l 1,13,-1
 809 0 l 1,14,-1
 979 383 l 1,15,-1
 715 383 l 1,16,-1
 545 0 l 1,17,-1
 322 0 l 1,18,-1
 492 383 l 1,19,-1
 213 383 l 1,20,-1
 255 598 l 1,21,-1
 583 598 l 1,22,-1
 706 872 l 1,23,-1
 424 872 l 1,24,-1
 465 1085 l 1,25,-1
 803 1085 l 1,26,-1
 974 1470 l 1,27,-1
 1197 1470 l 1,0,-1
1194 872 m 1,28,-1
 930 872 l 1,29,-1
 806 598 l 1,30,-1
 1070 598 l 1,31,-1
 1194 872 l 1,28,-1
EndSplineSet
EndChar

StartChar: dollar
Encoding: 36 36 8
Width: 1425
Flags: W
HStem: 0 228<419.625 633 840 975.681> 1100 229<723.857 846 1053 1259.95> 1536 20G<931.19 1097>
VStem: 332 331<759 1041.12> 1044 330<287.99 596.5>
DStem2: 574 -301 736 -301 0.190809 0.981627<30.9111 306.728 573.962 855.859 1165.85 1424.21 1691.45 1891.76>
LayerCount: 3
Fore
SplineSet
1374 497 m 0
 1374 300 1275 29 795 2 c 1
 736 -301 l 1
 574 -301 l 1
 633 0 l 1
 504 5 344 26 180 92 c 1
 231 354 l 1
 384 267 535 233 677 228 c 1
 738 539 l 1
 706 545 l 1
 455 591 332 673 332 845 c 0
 332 1037 451 1308 891 1325 c 1
 935 1556 l 1
 1097 1556 l 1
 1053 1329 l 1
 1193 1318 1321 1294 1441 1260 c 1
 1392 1006 l 1
 1297 1049 1169 1092 1009 1100 c 1
 953 813 l 1
 984 807 l 1
 1225 768 1374 696 1374 497 c 0
846 1097 m 1
 744 1091 663 1035 663 941 c 0
 663 895 689 848 796 836 c 1
 846 1097 l 1
840 232 m 1
 1012 234 1044 333 1044 401 c 0
 1044 478 980 500 894 510 c 1
 840 232 l 1
EndSplineSet
Validated: 1
Layer: 2
SplineSet
1374 497 m 0,0,1
 1374 452 1374 452 1367.5 409 c 128,-1,2
 1361 366 1361 366 1343 317.5 c 128,-1,3
 1325 269 1325 269 1297.5 227.5 c 128,-1,4
 1270 186 1270 186 1224.5 146.5 c 128,-1,5
 1179 107 1179 107 1120 77.5 c 128,-1,6
 1061 48 1061 48 978 28 c 128,-1,7
 895 8 895 8 795 2 c 1,8,-1
 736 -301 l 1,9,-1
 574 -301 l 1,10,-1
 633 0 l 1,11,12
 385 10 385 10 180 92 c 1,13,-1
 231 354 l 1,14,15
 438 236 438 236 677 228 c 1,16,-1
 738 539 l 1,17,-1
 706 545 l 2,18,19
 512 580 512 580 422 649.5 c 128,-1,20
 332 719 332 719 332 845 c 0,21,22
 332 907 332 907 347.5 967.5 c 128,-1,23
 363 1028 363 1028 403 1092 c 128,-1,24
 443 1156 443 1156 503.5 1204.5 c 128,-1,25
 564 1253 564 1253 664 1286.5 c 128,-1,26
 764 1320 764 1320 891 1325 c 1,27,-1
 935 1556 l 1,28,-1
 1097 1556 l 1,29,-1
 1053 1329 l 1,30,31
 1253 1313 1253 1313 1441 1260 c 1,32,-1
 1392 1006 l 1,33,34
 1206 1090 1206 1090 1009 1100 c 1,35,-1
 953 813 l 1,36,-1
 984 807 l 2,37,38
 1080 791 1080 791 1147.5 769.5 c 128,-1,39
 1215 748 1215 748 1268.5 712.5 c 128,-1,40
 1322 677 1322 677 1348 623.5 c 128,-1,41
 1374 570 1374 570 1374 497 c 0,0,1
846 1097 m 1,42,43
 766 1092 766 1092 714.5 1050.5 c 128,-1,44
 663 1009 663 1009 663 941 c 0,45,46
 663 851 663 851 796 836 c 1,47,-1
 846 1097 l 1,42,43
840 232 m 1,48,49
 889 233 889 233 927 244.5 c 128,-1,50
 965 256 965 256 986.5 273 c 128,-1,51
 1008 290 1008 290 1021.5 313 c 128,-1,52
 1035 336 1035 336 1039.5 357 c 128,-1,53
 1044 378 1044 378 1044 401 c 0,54,55
 1044 454 1044 454 1005.5 477.5 c 128,-1,56
 967 501 967 501 894 510 c 1,57,-1
 840 232 l 1,48,49
EndSplineSet
EndChar

StartChar: percent
Encoding: 37 37 9
Width: 2052
Flags: W
HStem: -29 170<1529.23 1717.85> 616 168<1603.3 1795.68> 707 167<545.532 738.502> 1352 168<623.273 817.108>
VStem: 272 250<898.769 1225.26> 841 251<999.771 1327.23> 1249 253<163.885 485.777> 1819 253<266.303 592.424>
DStem2: 443 -29 664 -29 0.623401 0.781902<137.772 1980.44>
LayerCount: 3
Fore
SplineSet
1614 141 m 256xdf
 1778 141 1819 385 1819 472 c 0
 1819 554 1789 616 1707 616 c 256
 1543 616 1502 371 1502 284 c 0
 1502 202 1531 141 1614 141 c 256xdf
1249 273 m 0
 1249 502 1396 784 1739 784 c 256
 1950 784 2072 674 2072 483 c 0
 2072 260 1928 -29 1581 -29 c 256
 1370 -29 1249 82 1249 273 c 0
664 -29 m 1
 443 -29 l 1
 1677 1520 l 1
 1899 1520 l 1
 664 -29 l 1
272 1007 m 0
 272 1230 412 1520 760 1520 c 256
 971 1520 1092 1410 1092 1218 c 0
 1092 991 945 707 602 707 c 256xbf
 392 707 272 817 272 1007 c 0
635 874 m 256
 800 874 841 1119 841 1206 c 0
 841 1290 811 1352 728 1352 c 0
 563 1352 522 1108 522 1020 c 0
 522 936 552 874 635 874 c 256
EndSplineSet
Validated: 1
Layer: 2
SplineSet
1614 141 m 256,0,1
 1661 141 1661 141 1698 167.5 c 128,-1,2
 1735 194 1735 194 1757 232.5 c 128,-1,3
 1779 271 1779 271 1793.5 318.5 c 128,-1,4
 1808 366 1808 366 1813.5 404 c 128,-1,5
 1819 442 1819 442 1819 472 c 0,6,7
 1819 616 1819 616 1707 616 c 0,8,9
 1660 616 1660 616 1623 589.5 c 128,-1,10
 1586 563 1586 563 1564 524.5 c 128,-1,11
 1542 486 1542 486 1527.5 438 c 128,-1,12
 1513 390 1513 390 1507.5 352 c 128,-1,13
 1502 314 1502 314 1502 284 c 0,14,15
 1502 141 1502 141 1614 141 c 256,0,1
1249 273 m 0,16,17
 1249 344 1249 344 1266.5 414.5 c 128,-1,18
 1284 485 1284 485 1323 552 c 128,-1,19
 1362 619 1362 619 1418 670 c 128,-1,20
 1474 721 1474 721 1557 752.5 c 128,-1,21
 1640 784 1640 784 1739 784 c 0,22,23
 1897 784 1897 784 1984.5 705 c 128,-1,24
 2072 626 2072 626 2072 483 c 0,25,26
 2072 414 2072 414 2054.5 344 c 128,-1,27
 2037 274 2037 274 1998.5 206.5 c 128,-1,28
 1960 139 1960 139 1904.5 87 c 128,-1,29
 1849 35 1849 35 1765 3 c 128,-1,30
 1681 -29 1681 -29 1581 -29 c 0,31,32
 1423 -29 1423 -29 1336 50.5 c 128,-1,33
 1249 130 1249 130 1249 273 c 0,16,17
664 -29 m 1,34,-1
 443 -29 l 1,35,-1
 1677 1520 l 1,36,-1
 1899 1520 l 1,37,-1
 664 -29 l 1,34,-1
272 1007 m 0,38,39
 272 1076 272 1076 289 1146 c 128,-1,40
 306 1216 306 1216 344 1284 c 128,-1,41
 382 1352 382 1352 437.5 1404 c 128,-1,42
 493 1456 493 1456 576.5 1488 c 128,-1,43
 660 1520 660 1520 760 1520 c 0,44,45
 918 1520 918 1520 1005 1441 c 128,-1,46
 1092 1362 1092 1362 1092 1218 c 0,47,48
 1092 1148 1092 1148 1074.5 1077.5 c 128,-1,49
 1057 1007 1057 1007 1018 940 c 128,-1,50
 979 873 979 873 923 821.5 c 128,-1,51
 867 770 867 770 784 738.5 c 128,-1,52
 701 707 701 707 602 707 c 0,53,54
 445 707 445 707 358.5 785.5 c 128,-1,55
 272 864 272 864 272 1007 c 0,38,39
635 874 m 256,56,57
 693 874 693 874 736 912.5 c 128,-1,58
 779 951 779 951 800.5 1008.5 c 128,-1,59
 822 1066 822 1066 831.5 1116.5 c 128,-1,60
 841 1167 841 1167 841 1206 c 0,61,62
 841 1352 841 1352 728 1352 c 0,63,64
 670 1352 670 1352 627 1313.5 c 128,-1,65
 584 1275 584 1275 562.5 1218 c 128,-1,66
 541 1161 541 1161 531.5 1110.5 c 128,-1,67
 522 1060 522 1060 522 1020 c 0,68,69
 522 874 522 874 635 874 c 256,56,57
EndSplineSet
EndChar

StartChar: ampersand
Encoding: 38 38 10
Width: 1786
Flags: W
HStem: -29 258<658.224 988.336> 0 21G<1261.87 1700> 1278 242<968.314 1333.09>
VStem: 204 358<320.822 576.354> 566 360<1022.39 1235.97>
DStem2: 992 991 744 743 0.581316 -0.813678<56.9461 552.758 833.388 971.449>
LayerCount: 3
Fore
SplineSet
566 1099 m 0xb8
 566 1267 712 1520 1106 1520 c 0
 1249 1520 1381 1493 1490 1462 c 1
 1436 1184 l 1
 1360 1227 1249 1278 1112 1278 c 0
 966 1278 926 1198 926 1145 c 0
 926 1097 954 1042 992 991 c 1
 1313 541 l 1
 1420 653 1468 782 1495 895 c 1
 1806 895 l 1
 1738 648 1627 463 1470 322 c 1
 1700 0 l 1
 1276 0 l 1x78
 1199 109 l 1
 1106 54 939 -29 705 -29 c 0
 396 -29 204 126 204 368 c 0
 204 714 520 891 611 944 c 1
 587 984 566 1035 566 1099 c 0xb8
744 743 m 1
 588 644 562 520 562 455 c 0
 562 326 659 229 803 229 c 0xb8
 903 229 984 264 1051 311 c 1
 744 743 l 1
EndSplineSet
Validated: 1
Layer: 2
SplineSet
566 1099 m 0,0,1
 566 1152 566 1152 584 1207.5 c 128,-1,2
 602 1263 602 1263 643.5 1319.5 c 128,-1,3
 685 1376 685 1376 745 1420 c 128,-1,4
 805 1464 805 1464 899 1492 c 128,-1,5
 993 1520 993 1520 1106 1520 c 0,6,7
 1286 1520 1286 1520 1490 1462 c 1,8,-1
 1436 1184 l 1,9,10
 1270 1278 1270 1278 1112 1278 c 0,11,12
 1014 1278 1014 1278 970 1236.5 c 128,-1,13
 926 1195 926 1195 926 1145 c 0,14,15
 926 1080 926 1080 992 991 c 2,16,-1
 1313 541 l 1,17,18
 1443 677 1443 677 1495 895 c 1,19,-1
 1806 895 l 1,20,21
 1707 535 1707 535 1470 322 c 1,22,-1
 1700 0 l 1,23,-1
 1276 0 l 1,24,-1
 1199 109 l 1,25,26
 966 -29 966 -29 705 -29 c 0,27,28
 474 -29 474 -29 339 78.5 c 128,-1,29
 204 186 204 186 204 368 c 0,30,31
 204 424 204 424 215.5 477.5 c 128,-1,32
 227 531 227 531 244 574 c 128,-1,33
 261 617 261 617 290 660 c 128,-1,34
 319 703 319 703 343 733 c 128,-1,35
 367 763 367 763 404.5 796.5 c 128,-1,36
 442 830 442 830 464.5 848 c 128,-1,37
 487 866 487 866 524 890 c 128,-1,38
 561 914 561 914 572.5 921 c 128,-1,39
 584 928 584 928 611 944 c 1,40,41
 566 1019 566 1019 566 1099 c 0,0,1
744 743 m 1,42,43
 689 708 689 708 650.5 666.5 c 128,-1,44
 612 625 612 625 594 585 c 128,-1,45
 576 545 576 545 569 514.5 c 128,-1,46
 562 484 562 484 562 455 c 0,47,48
 562 357 562 357 629 293 c 128,-1,49
 696 229 696 229 803 229 c 0,50,51
 934 229 934 229 1051 311 c 1,52,-1
 744 743 l 1,42,43
EndSplineSet
EndChar

StartChar: quotesingle
Encoding: 39 39 11
Width: 627
Flags: W
HStem: 938 555<485 614>
VStem: 377 345
DStem2: 377 938 614 938 0.190809 0.981627<45.2217 565.41>
LayerCount: 3
Fore
SplineSet
722 1493 m 1
 614 938 l 1
 377 938 l 1
 485 1493 l 1
 722 1493 l 1
EndSplineSet
Validated: 1
Layer: 2
SplineSet
722 1493 m 1,0,-1
 614 938 l 1,1,-1
 377 938 l 1,2,-1
 485 1493 l 1,3,-1
 722 1493 l 1,0,-1
EndSplineSet
EndChar

StartChar: parenleft
Encoding: 40 40 12
Width: 936
Flags: W
VStem: 276 335<31.5132 703.901>
LayerCount: 3
Fore
SplineSet
1074 1554 m 1
 841 1236 611 823 611 336 c 0
 611 101 663 -105 720 -270 c 1
 423 -270 l 1
 347 -92 276 128 276 382 c 0
 276 851 527 1249 777 1554 c 1
 1074 1554 l 1
EndSplineSet
Validated: 1
Layer: 2
SplineSet
1074 1554 m 1,0,1
 998 1451 998 1451 935.5 1352 c 128,-1,2
 873 1253 873 1253 811 1128.5 c 128,-1,3
 749 1004 749 1004 706.5 883 c 128,-1,4
 664 762 664 762 637.5 619.5 c 128,-1,5
 611 477 611 477 611 336 c 0,6,7
 611 46 611 46 720 -270 c 1,8,-1
 423 -270 l 1,9,10
 276 74 276 74 276 382 c 0,11,12
 276 518 276 518 305 655 c 128,-1,13
 334 792 334 792 380 908.5 c 128,-1,14
 426 1025 426 1025 493.5 1145 c 128,-1,15
 561 1265 561 1265 628 1359.5 c 128,-1,16
 695 1454 695 1454 777 1554 c 1,17,-1
 1074 1554 l 1,0,1
EndSplineSet
EndChar

StartChar: parenright
Encoding: 41 41 13
Width: 936
Flags: W
VStem: 574 336<579.042 1247.05>
LayerCount: 3
Fore
SplineSet
910 899 m 0
 910 431 662 42 409 -270 c 1
 112 -270 l 1
 343 48 574 460 574 947 c 0
 574 1181 523 1388 466 1554 c 1
 763 1554 l 1
 838 1379 910 1156 910 899 c 0
EndSplineSet
Validated: 1
Layer: 2
SplineSet
910 899 m 0,0,1
 910 731 910 731 869 566.5 c 128,-1,2
 828 402 828 402 752.5 252.5 c 128,-1,3
 677 103 677 103 596 -18 c 128,-1,4
 515 -139 515 -139 409 -270 c 1,5,-1
 112 -270 l 1,6,7
 208 -138 208 -138 283 -11 c 128,-1,8
 358 116 358 116 428 271.5 c 128,-1,9
 498 427 498 427 536 599.5 c 128,-1,10
 574 772 574 772 574 947 c 0,11,12
 574 1239 574 1239 466 1554 c 1,13,-1
 763 1554 l 1,14,15
 910 1211 910 1211 910 899 c 0,0,1
EndSplineSet
EndChar

StartChar: asterisk
Encoding: 42 42 14
Width: 1071
Flags: W
HStem: 1500 20G<742.163 916>
DStem2: 210 870 259 729 0.900069 0.435748<0 394.966 709.383 1102.58> 381 1358 278 1217 0.858787 -0.512333<0 330.053 609.159 936.29> 562 569 732 569 0.190809 0.981627<32.4375 350.273 650.801 968.636>
LayerCount: 3
Fore
SplineSet
1267 1217 m 1
 903 1044 l 1
 1199 870 l 1
 1096 729 l 1
 798 913 l 1
 732 569 l 1
 562 569 l 1
 628 913 l 1
 259 729 l 1
 210 870 l 1
 578 1044 l 1
 278 1217 l 1
 381 1358 l 1
 680 1176 l 1
 746 1520 l 1
 916 1520 l 1
 850 1176 l 1
 1218 1358 l 1
 1267 1217 l 1
EndSplineSet
Validated: 1
Layer: 2
SplineSet
1267 1217 m 1,0,-1
 903 1044 l 1,1,-1
 1199 870 l 1,2,-1
 1096 729 l 1,3,-1
 798 913 l 1,4,-1
 732 569 l 1,5,-1
 562 569 l 1,6,-1
 628 913 l 1,7,-1
 259 729 l 1,8,-1
 210 870 l 1,9,-1
 578 1044 l 1,10,-1
 278 1217 l 1,11,-1
 381 1358 l 1,12,-1
 680 1176 l 1,13,-1
 746 1520 l 1,14,-1
 916 1520 l 1,15,-1
 850 1176 l 1,16,-1
 1218 1358 l 1,17,-1
 1267 1217 l 1,0,-1
EndSplineSet
EndChar

StartChar: plus
Encoding: 43 43 15
Width: 1716
Flags: W
HStem: 0 21G<739 980.893> 524 236<365 841 1125 1601>
DStem2: 739 0 977 0 0.190809 0.981627<45.4125 533.835 819.689 1308.11>
LayerCount: 3
Fore
SplineSet
1227 1284 m 1
 1125 760 l 1
 1647 760 l 1
 1601 524 l 1
 1079 524 l 1
 977 0 l 1
 739 0 l 1
 841 524 l 1
 319 524 l 1
 365 760 l 1
 887 760 l 1
 989 1284 l 1
 1227 1284 l 1
EndSplineSet
Validated: 1
Layer: 2
SplineSet
1227 1284 m 1,0,-1
 1125 760 l 1,1,-1
 1647 760 l 1,2,-1
 1601 524 l 1,3,-1
 1079 524 l 1,4,-1
 977 0 l 1,5,-1
 739 0 l 1,6,-1
 841 524 l 1,7,-1
 319 524 l 1,8,-1
 365 760 l 1,9,-1
 887 760 l 1,10,-1
 989 1284 l 1,11,-1
 1227 1284 l 1,0,-1
EndSplineSet
EndChar

StartChar: comma
Encoding: 44 44 16
Width: 778
Flags: W
HStem: -291 678
VStem: 52 592
LayerCount: 3
Fore
SplineSet
284 387 m 1
 644 387 l 1
 585 82 l 1
 265 -291 l 1
 52 -291 l 1
 225 82 l 1
 284 387 l 1
EndSplineSet
Validated: 1
Layer: 2
SplineSet
284 387 m 1,0,-1
 644 387 l 1,1,-1
 585 82 l 1,2,-1
 265 -291 l 1,3,-1
 52 -291 l 1,4,-1
 225 82 l 1,5,-1
 284 387 l 1,0,-1
EndSplineSet
EndChar

StartChar: hyphen
Encoding: 45 45 17
Width: 850
Flags: W
HStem: 444 291<254 825>
LayerCount: 3
Fore
SplineSet
254 735 m 1
 882 735 l 1
 825 444 l 1
 197 444 l 1
 254 735 l 1
EndSplineSet
Validated: 1
Layer: 2
SplineSet
254 735 m 1,0,-1
 882 735 l 1,1,-1
 825 444 l 1,2,-1
 197 444 l 1,3,-1
 254 735 l 1,0,-1
EndSplineSet
EndChar

StartChar: period
Encoding: 46 46 18
Width: 778
Flags: W
HStem: 0 387<284 569>
VStem: 209 435
LayerCount: 3
Fore
SplineSet
284 387 m 1
 644 387 l 1
 569 0 l 1
 209 0 l 1
 284 387 l 1
EndSplineSet
Validated: 1
Layer: 2
SplineSet
284 387 m 1,0,-1
 644 387 l 1,1,-1
 569 0 l 1,2,-1
 209 0 l 1,3,-1
 284 387 l 1,0,-1
EndSplineSet
EndChar

StartChar: slash
Encoding: 47 47 19
Width: 748
Flags: W
HStem: 1473 20G<805.863 1038>
DStem2: -37 -190 184 -190 0.452504 0.891762<100.003 1886.82>
LayerCount: 3
Fore
SplineSet
816 1493 m 1
 1038 1493 l 1
 184 -190 l 1
 -37 -190 l 1
 816 1493 l 1
EndSplineSet
Validated: 1
Layer: 2
SplineSet
816 1493 m 1,0,-1
 1038 1493 l 1,1,-1
 184 -190 l 1,2,-1
 -37 -190 l 1,3,-1
 816 1493 l 1,0,-1
EndSplineSet
EndChar

StartChar: zero
Encoding: 48 48 20
Width: 1425
Flags: W
HStem: -29 262<643.052 881.539> 1257 263<831.742 1071.54>
VStem: 216 376<285.938 778.92> 1122 377<702.606 1204.46>
LayerCount: 3
Fore
SplineSet
758 233 m 0
 941 233 1023 419 1087 748 c 0
 1109 862 1122 959 1122 1036 c 0
 1122 1180 1076 1257 957 1257 c 256
 773 1257 692 1075 628 748 c 0
 606 633 592 535 592 457 c 0
 592 311 638 233 758 233 c 0
216 492 m 0
 216 793 362 1520 1008 1520 c 0
 1348 1520 1499 1316 1499 998 c 0
 1499 678 1340 -29 707 -29 c 0
 367 -29 216 174 216 492 c 0
EndSplineSet
Validated: 1
Layer: 2
SplineSet
758 233 m 0,0,1
 888 233 888 233 962 358.5 c 128,-1,2
 1036 484 1036 484 1087 748 c 0,3,4
 1122 929 1122 929 1122 1036 c 0,5,6
 1122 1147 1122 1147 1083 1202 c 128,-1,7
 1044 1257 1044 1257 957 1257 c 0,8,9
 826 1257 826 1257 752.5 1133.5 c 128,-1,10
 679 1010 679 1010 628 748 c 0,11,12
 592 560 592 560 592 457 c 0,13,14
 592 344 592 344 631 288.5 c 128,-1,15
 670 233 670 233 758 233 c 0,0,1
216 492 m 0,16,17
 216 562 216 562 225.5 644 c 128,-1,18
 235 726 235 726 260.5 827 c 128,-1,19
 286 928 286 928 324 1023 c 128,-1,20
 362 1118 362 1118 425.5 1209.5 c 128,-1,21
 489 1301 489 1301 568 1369 c 128,-1,22
 647 1437 647 1437 761 1478.5 c 128,-1,23
 875 1520 875 1520 1008 1520 c 0,24,25
 1256 1520 1256 1520 1377.5 1382.5 c 128,-1,26
 1499 1245 1499 1245 1499 998 c 0,27,28
 1499 924 1499 924 1488.5 840 c 128,-1,29
 1478 756 1478 756 1452 655 c 128,-1,30
 1426 554 1426 554 1387 459.5 c 128,-1,31
 1348 365 1348 365 1284.5 275 c 128,-1,32
 1221 185 1221 185 1141.5 118.5 c 128,-1,33
 1062 52 1062 52 950 11.5 c 128,-1,34
 838 -29 838 -29 707 -29 c 0,35,36
 459 -29 459 -29 337.5 108 c 128,-1,37
 216 245 216 245 216 492 c 0,16,17
EndSplineSet
EndChar

StartChar: one
Encoding: 49 49 21
Width: 1425
Flags: W
HStem: 0 266<292 632 996 1284> 1473 20G<767.722 1234>
DStem2: 580.295 0 944.295 0 0.190809 0.981627<340.433 1253.93>
LayerCount: 3
Fore
SplineSet
292 266 m 1
 632 266 l 1
 819 1231 l 1
 456 1159 l 1
 507 1421 l 1
 868 1493 l 1
 1234 1493 l 1
 996 266 l 1
 1336 266 l 1
 1284 0 l 1
 240 0 l 1
 292 266 l 1
EndSplineSet
Validated: 1
Layer: 2
SplineSet
292 266 m 1,0,-1
 632 266 l 1,1,-1
 819 1231 l 1,2,-1
 456 1159 l 1,3,-1
 507 1421 l 1,4,-1
 868 1493 l 1,5,-1
 1234 1493 l 1,6,-1
 996 266 l 1,7,-1
 1336 266 l 1,8,-1
 1284 0 l 1,9,-1
 240 0 l 1,10,-1
 292 266 l 1,0,-1
EndSplineSet
EndChar

StartChar: two
Encoding: 50 50 22
Width: 1425
Flags: W
HStem: 0 283<645 1247> 1257 263<618.998 985.114>
VStem: 1054 402<965.454 1193.99>
DStem2: 217 283 645 283 0.798949 0.601399<341.95 1036.96>
LayerCount: 3
Fore
SplineSet
967 1520 m 0
 1260 1520 1456 1408 1456 1171 c 0
 1456 928 1305 777 1018 563 c 1
 645 283 l 1
 1302 283 l 1
 1247 0 l 1
 162 0 l 1
 217 283 l 1
 856 764 l 2
 929 820 1054 926 1054 1075 c 0
 1054 1186 974 1257 836 1257 c 0
 669 1257 475 1156 381 1104 c 1
 444 1432 l 1
 595 1479 779 1520 967 1520 c 0
EndSplineSet
Validated: 1
Layer: 2
SplineSet
967 1520 m 0,0,1
 1194 1520 1194 1520 1325 1432 c 128,-1,2
 1456 1344 1456 1344 1456 1171 c 0,3,4
 1456 1081 1456 1081 1429.5 1005 c 128,-1,5
 1403 929 1403 929 1343 855 c 128,-1,6
 1283 781 1283 781 1209 715.5 c 128,-1,7
 1135 650 1135 650 1018 563 c 2,8,-1
 645 283 l 1,9,-1
 1302 283 l 1,10,-1
 1247 0 l 1,11,-1
 162 0 l 1,12,-1
 217 283 l 1,13,-1
 856 764 l 2,14,15
 1054 916 1054 916 1054 1075 c 0,16,17
 1054 1159 1054 1159 996.5 1208 c 128,-1,18
 939 1257 939 1257 836 1257 c 0,19,20
 658 1257 658 1257 381 1104 c 1,21,-1
 444 1432 l 1,22,23
 727 1520 727 1520 967 1520 c 0,0,1
EndSplineSet
EndChar

StartChar: three
Encoding: 51 51 23
Width: 1425
Flags: W
HStem: -29 262<346.12 830.53> 645 248<567 892.91> 1257 263<565.802 999.416>
VStem: 966 388<349.45 582.17> 1055 402<1028.62 1311.5>
LayerCount: 3
Fore
SplineSet
1457 1220 m 0xe8
 1457 1079 1388 872 1110 805 c 1
 1248 767 1354 683 1354 517 c 0
 1354 298 1216 -29 590 -29 c 0
 464 -29 310 -12 146 45 c 1
 203 342 l 1
 298 289 436 233 606 233 c 0
 900 233 966 381 966 479 c 0xf0
 966 557 916 645 672 645 c 2
 518 645 l 1
 567 893 l 1
 729 893 l 2
 1005 893 1055 1025 1055 1114 c 0
 1055 1216 953 1257 822 1257 c 0
 671 1257 532 1216 429 1174 c 1
 484 1456 l 1
 665 1504 819 1520 942 1520 c 0
 1314 1520 1457 1403 1457 1220 c 0xe8
EndSplineSet
Validated: 1
Layer: 2
SplineSet
1457 1220 m 0,0,1
 1457 1174 1457 1174 1448 1129 c 128,-1,2
 1439 1084 1439 1084 1414.5 1032.5 c 128,-1,3
 1390 981 1390 981 1352.5 939 c 128,-1,4
 1315 897 1315 897 1252.5 860.5 c 128,-1,5
 1190 824 1190 824 1110 805 c 1,6,7
 1354 738 1354 738 1354 517 c 0,8,9
 1354 467 1354 467 1345 417.5 c 128,-1,10
 1336 368 1336 368 1312 313 c 128,-1,11
 1288 258 1288 258 1251 210 c 128,-1,12
 1214 162 1214 162 1153.5 117 c 128,-1,13
 1093 72 1093 72 1015.5 40.5 c 128,-1,14
 938 9 938 9 829 -10 c 128,-1,15
 720 -29 720 -29 590 -29 c 0,16,17
 359 -29 359 -29 146 45 c 1,18,-1
 203 342 l 1,19,20
 398 233 398 233 606 233 c 0,21,22
 690 233 690 233 756 249.5 c 128,-1,23
 822 266 822 266 860.5 291 c 128,-1,24
 899 316 899 316 923.5 350 c 128,-1,25
 948 384 948 384 957 415.5 c 128,-1,26
 966 447 966 447 966 479 c 0,27,28
 966 645 966 645 672 645 c 2,29,-1
 518 645 l 1,30,-1
 567 893 l 1,31,-1
 729 893 l 2,32,33
 808 893 808 893 868.5 908 c 128,-1,34
 929 923 929 923 963.5 945 c 128,-1,35
 998 967 998 967 1019.5 998 c 128,-1,36
 1041 1029 1041 1029 1048 1056.5 c 128,-1,37
 1055 1084 1055 1084 1055 1114 c 0,38,39
 1055 1187 1055 1187 991 1222 c 128,-1,40
 927 1257 927 1257 822 1257 c 0,41,42
 633 1257 633 1257 429 1174 c 1,43,-1
 484 1456 l 1,44,45
 725 1520 725 1520 942 1520 c 0,46,47
 1457 1520 1457 1520 1457 1220 c 0,0,1
EndSplineSet
EndChar

StartChar: four
Encoding: 52 52 24
Width: 1425
Flags: W
HStem: 0 21G<754 1121.9> 272 279<439 807 1225 1384> 1473 20G<962.694 1408>
DStem2: 209 602 439 551 0.654349 0.756193<111.934 940.521> 754 0 1118 0 0.190809 0.981627<69.4545 277.115 630.748 1198.09>
LayerCount: 3
Fore
SplineSet
983 1176 m 1
 439 551 l 1
 861 551 l 1
 983 1176 l 1
980 1493 m 1
 1408 1493 l 1
 1225 551 l 1
 1438 551 l 1
 1384 272 l 1
 1171 272 l 1
 1118 0 l 1
 754 0 l 1
 807 272 l 1
 145 272 l 1
 209 602 l 1
 980 1493 l 1
EndSplineSet
Validated: 1
Layer: 2
SplineSet
983 1176 m 1,0,-1
 439 551 l 1,1,-1
 861 551 l 1,2,-1
 983 1176 l 1,0,-1
980 1493 m 1,3,-1
 1408 1493 l 1,4,-1
 1225 551 l 1,5,-1
 1438 551 l 1,6,-1
 1384 272 l 1,7,-1
 1171 272 l 1,8,-1
 1118 0 l 1,9,-1
 754 0 l 1,10,-1
 807 272 l 1,11,-1
 145 272 l 1,12,-1
 209 602 l 1,13,-1
 980 1493 l 1,3,-1
EndSplineSet
EndChar

StartChar: five
Encoding: 53 53 25
Width: 1425
Flags: W
HStem: -29 262<417.373 827.622> 741 263<718.025 916.987> 1210 283<759 1409>
VStem: 998 392<391.911 662.38>
LayerCount: 3
Fore
SplineSet
641 233 m 0
 893 233 998 401 998 543 c 0
 998 672 898 741 740 741 c 0
 588 741 430 686 344 653 c 1
 507 1493 l 1
 1464 1493 l 1
 1409 1210 l 1
 759 1210 l 1
 714 979 l 1
 788 998 846 1004 900 1004 c 0
 1208 1004 1390 868 1390 612 c 0
 1390 335 1205 -29 651 -29 c 0
 460 -29 302 12 172 70 c 1
 231 373 l 1
 316 318 467 233 641 233 c 0
EndSplineSet
Validated: 1
Layer: 2
SplineSet
641 233 m 0,0,1
 731 233 731 233 802 261 c 128,-1,2
 873 289 873 289 914.5 335 c 128,-1,3
 956 381 956 381 977 434 c 128,-1,4
 998 487 998 487 998 543 c 0,5,6
 998 638 998 638 929 689.5 c 128,-1,7
 860 741 860 741 740 741 c 0,8,9
 573 741 573 741 344 653 c 1,10,-1
 507 1493 l 1,11,-1
 1464 1493 l 1,12,-1
 1409 1210 l 1,13,-1
 759 1210 l 1,14,-1
 714 979 l 1,15,16
 811 1004 811 1004 900 1004 c 0,17,18
 1133 1004 1133 1004 1261.5 903 c 128,-1,19
 1390 802 1390 802 1390 612 c 0,20,21
 1390 524 1390 524 1367 438.5 c 128,-1,22
 1344 353 1344 353 1288.5 267 c 128,-1,23
 1233 181 1233 181 1151 116.5 c 128,-1,24
 1069 52 1069 52 940 11.5 c 128,-1,25
 811 -29 811 -29 651 -29 c 0,26,27
 394 -29 394 -29 172 70 c 1,28,-1
 231 373 l 1,29,30
 447 233 447 233 641 233 c 0,0,1
EndSplineSet
EndChar

StartChar: six
Encoding: 54 54 26
Width: 1425
Flags: W
HStem: -29 242<664.973 922.139> 737 248<771.644 1008.16> 1266 252<918.386 1348.46>
VStem: 242 379<255.213 586.764> 1047 376<384.472 694.809>
LayerCount: 3
Fore
SplineSet
1036 475 m 256
 1043 511 1047 543 1047 571 c 0
 1047 691 983 737 884 737 c 0
 737 737 662 632 631 475 c 256
 624 439 621 408 621 380 c 0
 621 259 684 213 782 213 c 0
 930 213 1006 317 1036 475 c 256
242 483 m 0
 242 907 483 1518 1120 1518 c 0
 1269 1518 1389 1494 1500 1454 c 1
 1446 1178 l 1
 1368 1219 1257 1266 1120 1266 c 0
 877 1266 732 1123 666 887 c 1
 780 960 891 985 996 985 c 0
 1265 985 1423 837 1423 609 c 0
 1423 342 1219 -29 731 -29 c 0
 396 -29 242 170 242 483 c 0
EndSplineSet
Validated: 1
Layer: 2
SplineSet
1036 475 m 256,0,1
 1047 532 1047 532 1047 571 c 0,2,3
 1047 737 1047 737 884 737 c 0,4,5
 683 737 683 737 631 475 c 0,6,7
 621 424 621 424 621 380 c 0,8,9
 621 213 621 213 782 213 c 0,10,11
 986 213 986 213 1036 475 c 256,0,1
242 483 m 0,12,13
 242 576 242 576 257 673.5 c 128,-1,14
 272 771 272 771 305 873.5 c 128,-1,15
 338 976 338 976 386.5 1068.5 c 128,-1,16
 435 1161 435 1161 507 1244 c 128,-1,17
 579 1327 579 1327 667 1387.5 c 128,-1,18
 755 1448 755 1448 871.5 1483 c 128,-1,19
 988 1518 988 1518 1120 1518 c 0,20,21
 1322 1518 1322 1518 1500 1454 c 1,22,-1
 1446 1178 l 1,23,24
 1279 1266 1279 1266 1120 1266 c 0,25,26
 772 1266 772 1266 666 887 c 1,27,28
 819 985 819 985 996 985 c 0,29,30
 1196 985 1196 985 1309.5 883.5 c 128,-1,31
 1423 782 1423 782 1423 609 c 0,32,33
 1423 526 1423 526 1398.5 440 c 128,-1,34
 1374 354 1374 354 1319 269 c 128,-1,35
 1264 184 1264 184 1186 118.5 c 128,-1,36
 1108 53 1108 53 990 12 c 128,-1,37
 872 -29 872 -29 731 -29 c 0,38,39
 486 -29 486 -29 364 106 c 128,-1,40
 242 241 242 241 242 483 c 0,12,13
EndSplineSet
EndChar

StartChar: seven
Encoding: 55 55 27
Width: 1425
Flags: W
HStem: 0 21G<305 693.009> 1210 283<427 1091>
DStem2: 305 0 680 0 0.545265 0.838263<204.475 1442.88>
LayerCount: 3
Fore
SplineSet
427 1493 m 1
 1552 1493 l 1
 1510 1276 l 1
 680 0 l 1
 305 0 l 1
 1091 1210 l 1
 372 1210 l 1
 427 1493 l 1
EndSplineSet
Validated: 1
Layer: 2
SplineSet
427 1493 m 1,0,-1
 1552 1493 l 1,1,-1
 1510 1276 l 1,2,-1
 680 0 l 1,3,-1
 305 0 l 1,4,-1
 1091 1210 l 1,5,-1
 372 1210 l 1,6,-1
 427 1493 l 1,0,-1
EndSplineSet
EndChar

StartChar: eight
Encoding: 56 56 28
Width: 1425
Flags: W
HStem: -29 242<617.976 906.648> 668 241<768.02 979.088> 1278 242<823.933 1086.24>
VStem: 196 372<257.454 523.469> 370 360<941.565 1188.31> 1027 362<339.539 623.934> 1119 376<1026.3 1246.5>
LayerCount: 3
Fore
SplineSet
754 213 m 0xf4
 972 213 1027 400 1027 505 c 0
 1027 611 964 668 843 668 c 0
 623 668 568 481 568 375 c 0
 568 269 633 213 754 213 c 0xf4
196 313 m 0
 196 487 275 714 587 795 c 1
 461 835 370 915 370 1057 c 0
 370 1242 491 1520 1008 1520 c 0
 1287 1520 1495 1439 1495 1217 c 0xea
 1495 1071 1423 874 1146 795 c 1
 1290 753 1389 665 1389 507 c 0
 1389 341 1296 -29 707 -29 c 0
 399 -29 196 67 196 313 c 0
890 909 m 0
 1073 909 1119 1059 1119 1144 c 0
 1119 1231 1064 1278 961 1278 c 0
 776 1278 730 1130 730 1044 c 0
 730 957 785 909 890 909 c 0
EndSplineSet
Validated: 1
Layer: 2
SplineSet
754 213 m 0,0,1
 816 213 816 213 865.5 233.5 c 128,-1,2
 915 254 915 254 944.5 285 c 128,-1,3
 974 316 974 316 993.5 357 c 128,-1,4
 1013 398 1013 398 1020 434 c 128,-1,5
 1027 470 1027 470 1027 505 c 0,6,7
 1027 585 1027 585 980.5 626.5 c 128,-1,8
 934 668 934 668 843 668 c 0,9,10
 780 668 780 668 730 647.5 c 128,-1,11
 680 627 680 627 650.5 595.5 c 128,-1,12
 621 564 621 564 601.5 523.5 c 128,-1,13
 582 483 582 483 575 446.5 c 128,-1,14
 568 410 568 410 568 375 c 0,15,16
 568 296 568 296 615.5 254.5 c 128,-1,17
 663 213 663 213 754 213 c 0,0,1
196 313 m 0,18,19
 196 384 196 384 214 451.5 c 128,-1,20
 232 519 232 519 273.5 587.5 c 128,-1,21
 315 656 315 656 395.5 711 c 128,-1,22
 476 766 476 766 587 795 c 1,23,24
 370 864 370 864 370 1057 c 0,25,26
 370 1099 370 1099 378 1141 c 128,-1,27
 386 1183 386 1183 406.5 1229.5 c 128,-1,28
 427 1276 427 1276 458 1317 c 128,-1,29
 489 1358 489 1358 540 1396 c 128,-1,30
 591 1434 591 1434 655.5 1461 c 128,-1,31
 720 1488 720 1488 810.5 1504 c 128,-1,32
 901 1520 901 1520 1008 1520 c 0,33,34
 1116 1520 1116 1520 1202.5 1503.5 c 128,-1,35
 1289 1487 1289 1487 1355.5 1452 c 128,-1,36
 1422 1417 1422 1417 1458.5 1357.5 c 128,-1,37
 1495 1298 1495 1298 1495 1217 c 0,38,39
 1495 1157 1495 1157 1478.5 1099.5 c 128,-1,40
 1462 1042 1462 1042 1425 982 c 128,-1,41
 1388 922 1388 922 1316.5 872.5 c 128,-1,42
 1245 823 1245 823 1146 795 c 1,43,44
 1389 724 1389 724 1389 507 c 0,45,46
 1389 467 1389 467 1382.5 424.5 c 128,-1,47
 1376 382 1376 382 1356.5 328 c 128,-1,48
 1337 274 1337 274 1306.5 226 c 128,-1,49
 1276 178 1276 178 1222.5 130 c 128,-1,50
 1169 82 1169 82 1100 48 c 128,-1,51
 1031 14 1031 14 930 -7.5 c 128,-1,52
 829 -29 829 -29 707 -29 c 0,53,54
 196 -29 196 -29 196 313 c 0,18,19
890 909 m 0,55,56
 942 909 942 909 983.5 925.5 c 128,-1,57
 1025 942 1025 942 1050 967 c 128,-1,58
 1075 992 1075 992 1091 1024.5 c 128,-1,59
 1107 1057 1107 1057 1113 1086.5 c 128,-1,60
 1119 1116 1119 1116 1119 1144 c 0,61,62
 1119 1209 1119 1209 1078.5 1243.5 c 128,-1,63
 1038 1278 1038 1278 961 1278 c 0,64,65
 908 1278 908 1278 866 1261.5 c 128,-1,66
 824 1245 824 1245 799.5 1220.5 c 128,-1,67
 775 1196 775 1196 758.5 1163.5 c 128,-1,68
 742 1131 742 1131 736 1101.5 c 128,-1,69
 730 1072 730 1072 730 1044 c 0,70,71
 730 978 730 978 771 943.5 c 128,-1,72
 812 909 812 909 890 909 c 0,55,56
EndSplineSet
EndChar

StartChar: nine
Encoding: 57 57 29
Width: 1425
Flags: W
HStem: -29 252<360.446 789.694> 502 250<574.374 939.413> 1276 242<798.858 1043.84>
VStem: 287 377<792.882 1101.1> 1090 378<912.887 1232.01>
LayerCount: 3
Fore
SplineSet
1468 1003 m 0
 1468 572 1221 -29 588 -29 c 0
 439 -29 320 -6 211 33 c 1
 265 309 l 1
 408 236 513 223 590 223 c 0
 736 223 951 274 1045 602 c 1
 981 561 870 502 714 502 c 0
 446 502 287 648 287 877 c 0
 287 1141 486 1518 977 1518 c 0
 1314 1518 1468 1318 1468 1003 c 0
928 1276 m 256
 717 1276 664 1040 664 920 c 0
 664 799 727 752 826 752 c 256
 1047 752 1090 1004 1090 1108 c 0
 1090 1211 1043 1276 928 1276 c 256
EndSplineSet
Validated: 1
Layer: 2
SplineSet
1468 1003 m 0,0,1
 1468 908 1468 908 1453 810 c 128,-1,2
 1438 712 1438 712 1404 610 c 128,-1,3
 1370 508 1370 508 1321 415.5 c 128,-1,4
 1272 323 1272 323 1199.5 241.5 c 128,-1,5
 1127 160 1127 160 1039.5 100 c 128,-1,6
 952 40 952 40 836 5.5 c 128,-1,7
 720 -29 720 -29 588 -29 c 0,8,9
 384 -29 384 -29 211 33 c 1,10,-1
 265 309 l 1,11,12
 433 223 433 223 590 223 c 0,13,14
 936 223 936 223 1045 602 c 1,15,16
 889 502 889 502 714 502 c 0,17,18
 514 502 514 502 400.5 603 c 128,-1,19
 287 704 287 704 287 877 c 0,20,21
 287 959 287 959 311 1045 c 128,-1,22
 335 1131 335 1131 389.5 1216.5 c 128,-1,23
 444 1302 444 1302 521.5 1368.5 c 128,-1,24
 599 1435 599 1435 717.5 1476.5 c 128,-1,25
 836 1518 836 1518 977 1518 c 0,26,27
 1223 1518 1223 1518 1345.5 1382.5 c 128,-1,28
 1468 1247 1468 1247 1468 1003 c 0,0,1
928 1276 m 256,29,30
 868 1276 868 1276 820 1250 c 128,-1,31
 772 1224 772 1224 743.5 1185.5 c 128,-1,32
 715 1147 715 1147 696.5 1097 c 128,-1,33
 678 1047 678 1047 671 1003.5 c 128,-1,34
 664 960 664 960 664 920 c 0,35,36
 664 752 664 752 826 752 c 0,37,38
 889 752 889 752 938 779.5 c 128,-1,39
 987 807 987 807 1014.5 847 c 128,-1,40
 1042 887 1042 887 1060 938.5 c 128,-1,41
 1078 990 1078 990 1084 1031 c 128,-1,42
 1090 1072 1090 1072 1090 1108 c 0,43,44
 1090 1276 1090 1276 928 1276 c 256,29,30
EndSplineSet
EndChar

StartChar: colon
Encoding: 58 58 30
Width: 819
Flags: W
HStem: 0 387<304 590> 733 387<447 732>
VStem: 229 579
DStem2: 229 0 590 0 0.190809 0.981627<68.882 394.2 815.51 1141.02>
LayerCount: 3
Fore
SplineSet
447 1120 m 1
 808 1120 l 1
 732 733 l 1
 371 733 l 1
 447 1120 l 1
304 387 m 1
 665 387 l 1
 590 0 l 1
 229 0 l 1
 304 387 l 1
EndSplineSet
Validated: 1
Layer: 2
SplineSet
447 1120 m 1,0,-1
 808 1120 l 1,1,-1
 732 733 l 1,2,-1
 371 733 l 1,3,-1
 447 1120 l 1,0,-1
304 387 m 1,4,-1
 665 387 l 1,5,-1
 590 0 l 1,6,-1
 229 0 l 1,7,-1
 304 387 l 1,4,-1
EndSplineSet
EndChar

StartChar: semicolon
Encoding: 59 59 31
Width: 819
Flags: W
HStem: 733 387<447 732>
DStem2: 172.496 -291 533.496 -291 0.190809 0.981627<448.863 690.635 1111.94 1437.45>
LayerCount: 3
Fore
SplineSet
304 387 m 1
 665 387 l 1
 606 82 l 1
 285 -291 l 1
 72 -291 l 1
 245 82 l 1
 304 387 l 1
447 1120 m 1
 808 1120 l 1
 732 733 l 1
 371 733 l 1
 447 1120 l 1
EndSplineSet
Validated: 1
Layer: 2
SplineSet
304 387 m 1,0,-1
 665 387 l 1,1,-1
 606 82 l 1,2,-1
 285 -291 l 1,3,-1
 72 -291 l 1,4,-1
 245 82 l 1,5,-1
 304 387 l 1,0,-1
447 1120 m 1,6,-1
 808 1120 l 1,7,-1
 732 733 l 1,8,-1
 371 733 l 1,9,-1
 447 1120 l 1,6,-1
EndSplineSet
EndChar

StartChar: less
Encoding: 60 60 32
Width: 1716
Flags: W
HStem: 1203 20G<1677.73 1733.08>
DStem2: 660 641 319 524 0.932151 -0.362069<0 957.487>
LayerCount: 3
Fore
SplineSet
1688 973 m 1
 660 641 l 1
 1559 311 l 1
 1511 61 l 1
 319 524 l 1
 365 760 l 1
 1737 1223 l 1
 1688 973 l 1
EndSplineSet
Validated: 1
Layer: 2
SplineSet
1688 973 m 1,0,-1
 660 641 l 1,1,-1
 1559 311 l 1,2,-1
 1511 61 l 1,3,-1
 319 524 l 1,4,-1
 365 760 l 1,5,-1
 1737 1223 l 1,6,-1
 1688 973 l 1,0,-1
EndSplineSet
EndChar

StartChar: equal
Encoding: 61 61 33
Width: 1716
Flags: W
HStem: 295 237<320 1556> 752 235<409 1645>
LayerCount: 3
Fore
SplineSet
409 987 m 1
 1691 987 l 1
 1645 752 l 1
 363 752 l 1
 409 987 l 1
320 532 m 1
 1602 532 l 1
 1556 295 l 1
 274 295 l 1
 320 532 l 1
EndSplineSet
Validated: 1
Layer: 2
SplineSet
409 987 m 1,0,-1
 1691 987 l 1,1,-1
 1645 752 l 1,2,-1
 363 752 l 1,3,-1
 409 987 l 1,0,-1
320 532 m 1,4,-1
 1602 532 l 1,5,-1
 1556 295 l 1,6,-1
 274 295 l 1,7,-1
 320 532 l 1,4,-1
EndSplineSet
EndChar

StartChar: greater
Encoding: 62 62 34
Width: 1716
Flags: W
HStem: 1203 20G<451.08 506.49>
DStem2: 277 311 229 61 0.947503 0.319748<0 1081.44> 455 1223 406 973 0.932151 -0.362069<44.8418 1004.92>
LayerCount: 3
Fore
SplineSet
406 973 m 1
 455 1223 l 1
 1647 760 l 1
 1601 524 l 1
 229 61 l 1
 277 311 l 1
 1307 641 l 1
 406 973 l 1
EndSplineSet
Validated: 1
Layer: 2
SplineSet
406 973 m 1,0,-1
 455 1223 l 1,1,-1
 1647 760 l 1,2,-1
 1601 524 l 1,3,-1
 229 61 l 1,4,-1
 277 311 l 1,5,-1
 1307 641 l 1,6,-1
 406 973 l 1,0,-1
EndSplineSet
EndChar

StartChar: question
Encoding: 63 63 35
Width: 1188
Flags: W
HStem: 0 356<417 709> 1124 21G<362.949 403> 1257 263<547.513 886.295>
VStem: 913 371<1025.54 1330>
DStem2: 687 860 1036 788 0.791053 0.611748<-74.9998 302.25>
LayerCount: 3
Fore
SplineSet
850 1520 m 0
 1112 1520 1284 1432 1284 1220 c 0
 1284 972 1096 836 1036 788 c 1
 961 731 l 1
 876 665 830 622 816 549 c 2
 807 504 l 1
 446 504 l 1
 455 553 l 1
 481 682 551 753 687 860 c 1
 762 918 l 2
 843 980 913 1052 913 1142 c 0
 913 1218 851 1257 756 1257 c 0
 610 1257 447 1174 359 1124 c 1
 421 1438 l 1
 536 1475 692 1520 850 1520 c 0
417 356 m 1
 778 356 l 1
 709 0 l 1
 348 0 l 1
 417 356 l 1
EndSplineSet
Validated: 1
Layer: 2
SplineSet
850 1520 m 0,0,1
 1055 1520 1055 1520 1169.5 1446.5 c 128,-1,2
 1284 1373 1284 1373 1284 1220 c 0,3,4
 1284 1153 1284 1153 1264.5 1090 c 128,-1,5
 1245 1027 1245 1027 1220.5 984.5 c 128,-1,6
 1196 942 1196 942 1158 899.5 c 128,-1,7
 1120 857 1120 857 1097.5 838 c 128,-1,8
 1075 819 1075 819 1045.44227885 795.485396543 c 0,9,10
 1043 794 1043 794 1042 793 c 128,-1,11
 1041 792 1041 792 1039 790.5 c 128,-1,12
 1037 789 1037 789 1036 788 c 2,13,-1
 961 731 l 2,14,15
 890 676 890 676 858 638 c 128,-1,16
 826 600 826 600 816 549 c 2,17,-1
 807 504 l 1,18,-1
 446 504 l 1,19,-1
 455 553 l 2,20,21
 473 644 473 644 524.5 708.5 c 128,-1,22
 576 773 576 773 687 860 c 2,23,-1
 762 918 l 2,24,25
 832 972 832 972 872.5 1026 c 128,-1,26
 913 1080 913 1080 913 1142 c 0,27,28
 913 1198 913 1198 871 1227.5 c 128,-1,29
 829 1257 829 1257 756 1257 c 0,30,31
 593 1257 593 1257 359 1124 c 1,32,-1
 421 1438 l 1,33,34
 676 1520 676 1520 850 1520 c 0,0,1
417 356 m 1,35,-1
 778 356 l 1,36,-1
 709 0 l 1,37,-1
 348 0 l 1,38,-1
 417 356 l 1,35,-1
EndSplineSet
EndChar

StartChar: at
Encoding: 64 64 36
Width: 2048
Flags: W
HStem: -356 188<760.818 1253.13> 88 186<969.32 1178.02 1503 1599.45> 801 186<1058.3 1290.51> 1253 187<1033.11 1537.72>
VStem: 222 191<166.344 631.318> 694 233<318.766 647.328> 1854 190<546.783 965.472>
LayerCount: 3
Fore
SplineSet
1079 274 m 0
 1249 274 1335 474 1335 622 c 0
 1335 727 1286 801 1180 801 c 0
 978 801 927 547 927 453 c 0
 927 348 974 274 1079 274 c 0
2044 801 m 0
 2044 539 1895 84 1296 84 c 2
 1257 84 l 1
 1287 238 l 1
 1232 148 1132 88 1006 88 c 0
 810 88 694 218 694 419 c 0
 694 690 881 987 1181 987 c 0
 1307 987 1383 925 1404 836 c 1
 1429 967 l 1
 1638 967 l 1
 1503 274 l 1
 1752 311 1854 574 1854 765 c 0
 1854 1062 1612 1253 1297 1253 c 0
 798 1253 413 831 413 396 c 0
 413 65 650 -168 1003 -168 c 0
 1185 -168 1376 -92 1504 6 c 1
 1580 -156 l 1
 1413 -268 1198 -356 969 -356 c 0
 543 -356 222 -78 222 356 c 0
 222 952 764 1440 1318 1440 c 0
 1767 1440 2044 1165 2044 801 c 0
EndSplineSet
Validated: 1
Layer: 2
SplineSet
1079 274 m 0,0,1
 1128 274 1128 274 1170.5 296 c 128,-1,2
 1213 318 1213 318 1242.5 354 c 128,-1,3
 1272 390 1272 390 1293.5 435.5 c 128,-1,4
 1315 481 1315 481 1325 529 c 128,-1,5
 1335 577 1335 577 1335 622 c 0,6,7
 1335 704 1335 704 1296 752.5 c 128,-1,8
 1257 801 1257 801 1180 801 c 0,9,10
 1132 801 1132 801 1091.5 782 c 128,-1,11
 1051 763 1051 763 1024.5 731.5 c 128,-1,12
 998 700 998 700 978 662.5 c 128,-1,13
 958 625 958 625 947.5 584.5 c 128,-1,14
 937 544 937 544 932 511.5 c 128,-1,15
 927 479 927 479 927 453 c 0,16,17
 927 371 927 371 965 322.5 c 128,-1,18
 1003 274 1003 274 1079 274 c 0,0,1
2044 801 m 0,19,20
 2044 741 2044 741 2034.5 678.5 c 128,-1,21
 2025 616 2025 616 2000.5 544.5 c 128,-1,22
 1976 473 1976 473 1938.5 408.5 c 128,-1,23
 1901 344 1901 344 1841.5 284 c 128,-1,24
 1782 224 1782 224 1706.5 180 c 128,-1,25
 1631 136 1631 136 1525.5 110 c 128,-1,26
 1420 84 1420 84 1296 84 c 2,27,-1
 1257 84 l 1,28,-1
 1287 238 l 1,29,30
 1245 169 1245 169 1171.5 128.5 c 128,-1,31
 1098 88 1098 88 1006 88 c 0,32,33
 860 88 860 88 777 177.5 c 128,-1,34
 694 267 694 267 694 419 c 0,35,36
 694 500 694 500 715.5 582 c 128,-1,37
 737 664 737 664 779.5 736.5 c 128,-1,38
 822 809 822 809 879.5 865 c 128,-1,39
 937 921 937 921 1015.5 954 c 128,-1,40
 1094 987 1094 987 1181 987 c 0,41,42
 1273 987 1273 987 1330.5 946 c 128,-1,43
 1388 905 1388 905 1404 836 c 1,44,-1
 1429 967 l 1,45,-1
 1638 967 l 1,46,-1
 1503 274 l 1,47,48
 1592 287 1592 287 1662 338.5 c 128,-1,49
 1732 390 1732 390 1772.5 462.5 c 128,-1,50
 1813 535 1813 535 1833.5 612.5 c 128,-1,51
 1854 690 1854 690 1854 765 c 0,52,53
 1854 910 1854 910 1780.5 1022 c 128,-1,54
 1707 1134 1707 1134 1580.5 1193.5 c 128,-1,55
 1454 1253 1454 1253 1297 1253 c 0,56,57
 1151 1253 1151 1253 1014 1206 c 128,-1,58
 877 1159 877 1159 769.5 1076 c 128,-1,59
 662 993 662 993 581 886 c 128,-1,60
 500 779 500 779 456.5 652 c 128,-1,61
 413 525 413 525 413 396 c 0,62,63
 413 147 413 147 576 -10.5 c 128,-1,64
 739 -168 739 -168 1003 -168 c 0,65,66
 1135 -168 1135 -168 1269.5 -119.5 c 128,-1,67
 1404 -71 1404 -71 1504 6 c 1,68,-1
 1580 -156 l 1,69,70
 1282 -356 1282 -356 969 -356 c 0,71,72
 756 -356 756 -356 587 -269.5 c 128,-1,73
 418 -183 418 -183 320 -20 c 128,-1,74
 222 143 222 143 222 356 c 0,75,76
 222 573 222 573 316 775.5 c 128,-1,77
 410 978 410 978 562 1122.5 c 128,-1,78
 714 1267 714 1267 913.5 1353.5 c 128,-1,79
 1113 1440 1113 1440 1318 1440 c 0,80,81
 1483 1440 1483 1440 1620.5 1391.5 c 128,-1,82
 1758 1343 1758 1343 1850 1257.5 c 128,-1,83
 1942 1172 1942 1172 1993 1054.5 c 128,-1,84
 2044 937 2044 937 2044 801 c 0,19,20
EndSplineSet
EndChar

StartChar: A
Encoding: 65 65 37
Width: 1585
Flags: W
HStem: 0 21G<10 407.882 1184.99 1575> 272 277<695 1104> 1473 20G<841.707 1315.52>
DStem2: 1312 1493 1015 1143 0.173484 -0.984837<293.168 893.601 1173.86 1436.12> 1575 0 1104 549 0.173484 -0.984837<-1222.82 -622.386 -342.127 -67.1384>
LayerCount: 3
Fore
SplineSet
1147 272 m 1
 545 272 l 1
 397 0 l 1
 10 0 l 1
 853 1493 l 1
 1312 1493 l 1
 1575 0 l 1
 1188 0 l 1
 1147 272 l 1
695 549 m 1
 1104 549 l 1
 1015 1143 l 1
 695 549 l 1
EndSplineSet
Validated: 1
Layer: 2
SplineSet
1147 272 m 1,0,-1
 545 272 l 1,1,-1
 397 0 l 1,2,-1
 10 0 l 1,3,-1
 853 1493 l 1,4,-1
 1312 1493 l 1,5,-1
 1575 0 l 1,6,-1
 1188 0 l 1,7,-1
 1147 272 l 1,0,-1
695 549 m 1,8,-1
 1104 549 l 1,9,-1
 1015 1143 l 1,10,-1
 695 549 l 1,8,-1
EndSplineSet
EndChar

StartChar: B
Encoding: 66 66 38
Width: 1561
Flags: W
HStem: 0 262<624 1005.11> 653 262<751 1082.26> 1231 262<812 1144.37>
VStem: 1126 384<362.14 610.572> 1184 396<998.623 1291.1>
DStem2: 188 0 573.072 0 0.190809 0.981627<340.379 738.697 1005.61 1327.45>
LayerCount: 3
Fore
SplineSet
964 915 m 2xe8
 1150 915 1184 1045 1184 1112 c 0
 1184 1167 1157 1231 1025 1231 c 2
 812 1231 l 1
 751 915 l 1
 964 915 l 2xe8
850 262 m 2
 1089 262 1126 426 1126 510 c 0xf0
 1126 597 1070 653 926 653 c 2
 700 653 l 1
 624 262 l 1
 850 262 l 2
1580 1198 m 0xe8
 1580 1071 1530 877 1312 799 c 1
 1435 761 1510 666 1510 522 c 0xf0
 1510 343 1424 0 827 0 c 2
 188 0 l 1
 478 1493 l 1
 1056 1493 l 2
 1454 1493 1580 1378 1580 1198 c 0xe8
EndSplineSet
Validated: 1
Layer: 2
SplineSet
964 915 m 2,0,1
 1017 915 1017 915 1058 929.5 c 128,-1,2
 1099 944 1099 944 1122 965 c 128,-1,3
 1145 986 1145 986 1160 1014 c 128,-1,4
 1175 1042 1175 1042 1179.5 1065.5 c 128,-1,5
 1184 1089 1184 1089 1184 1112 c 0,6,7
 1184 1231 1184 1231 1025 1231 c 2,8,-1
 812 1231 l 1,9,-1
 751 915 l 1,10,-1
 964 915 l 2,0,1
850 262 m 2,11,12
 918 262 918 262 970 280 c 128,-1,13
 1022 298 1022 298 1050.5 324.5 c 128,-1,14
 1079 351 1079 351 1097 387 c 128,-1,15
 1115 423 1115 423 1120.5 452 c 128,-1,16
 1126 481 1126 481 1126 510 c 0,17,18
 1126 653 1126 653 926 653 c 2,19,-1
 700 653 l 1,20,-1
 624 262 l 1,21,-1
 850 262 l 2,11,12
1580 1198 m 0,22,23
 1580 1145 1580 1145 1568 1092 c 128,-1,24
 1556 1039 1556 1039 1528.5 981.5 c 128,-1,25
 1501 924 1501 924 1445 875.5 c 128,-1,26
 1389 827 1389 827 1312 799 c 1,27,28
 1406 770 1406 770 1458 699 c 128,-1,29
 1510 628 1510 628 1510 522 c 0,30,31
 1510 479 1510 479 1504 436.5 c 128,-1,32
 1498 394 1498 394 1479 340.5 c 128,-1,33
 1460 287 1460 287 1429.5 241 c 128,-1,34
 1399 195 1399 195 1346 149.5 c 128,-1,35
 1293 104 1293 104 1224 72 c 128,-1,36
 1155 40 1155 40 1052.5 20 c 128,-1,37
 950 0 950 0 827 0 c 2,38,-1
 188 0 l 1,39,-1
 478 1493 l 1,40,-1
 1056 1493 l 2,41,42
 1202 1493 1202 1493 1305 1472.5 c 128,-1,43
 1408 1452 1408 1452 1467.5 1412.5 c 128,-1,44
 1527 1373 1527 1373 1553.5 1320.5 c 128,-1,45
 1580 1268 1580 1268 1580 1198 c 0,22,23
EndSplineSet
EndChar

StartChar: C
Encoding: 67 67 39
Width: 1503
Flags: W
HStem: -29 279<801.218 1210.51> 1241 279<971.007 1421.68>
VStem: 228 402<411.333 849.687>
LayerCount: 3
Fore
SplineSet
1183 1241 m 0
 751 1241 630 817 630 606 c 0
 630 385 755 250 991 250 c 0
 1175 250 1322 315 1448 391 c 1
 1388 82 l 1
 1250 17 1089 -29 905 -29 c 0
 474 -29 228 191 228 558 c 0
 228 999 532 1520 1206 1520 c 0
 1344 1520 1499 1494 1646 1409 c 1
 1586 1100 l 1
 1478 1184 1355 1241 1183 1241 c 0
EndSplineSet
Validated: 1
Layer: 2
SplineSet
1183 1241 m 0,0,1
 1094 1241 1094 1241 1016.5 1216.5 c 128,-1,2
 939 1192 939 1192 884 1152 c 128,-1,3
 829 1112 829 1112 784.5 1057.5 c 128,-1,4
 740 1003 740 1003 711.5 944.5 c 128,-1,5
 683 886 683 886 664 824 c 128,-1,6
 645 762 645 762 637.5 708 c 128,-1,7
 630 654 630 654 630 606 c 0,8,9
 630 438 630 438 723 344 c 128,-1,10
 816 250 816 250 991 250 c 0,11,12
 1214 250 1214 250 1448 391 c 1,13,-1
 1388 82 l 1,14,15
 1152 -29 1152 -29 905 -29 c 0,16,17
 583 -29 583 -29 405.5 126.5 c 128,-1,18
 228 282 228 282 228 558 c 0,19,20
 228 694 228 694 264 827.5 c 128,-1,21
 300 961 300 961 379 1087 c 128,-1,22
 458 1213 458 1213 570 1308.5 c 128,-1,23
 682 1404 682 1404 846.5 1462 c 128,-1,24
 1011 1520 1011 1520 1206 1520 c 0,25,26
 1454 1520 1454 1520 1646 1409 c 1,27,-1
 1586 1100 l 1,28,29
 1405 1241 1405 1241 1183 1241 c 0,0,1
EndSplineSet
EndChar

StartChar: D
Encoding: 68 68 40
Width: 1700
Flags: W
HStem: 0 291<630 1017.61> 1202 291<807 1182.75>
VStem: 1354 402<651.424 1045.81>
DStem2: 188 0 573.435 0 0.190809 0.981627<369.991 1298.03>
LayerCount: 3
Fore
SplineSet
768 291 m 2
 1251 291 1354 670 1354 872 c 0
 1354 1091 1210 1202 945 1202 c 2
 807 1202 l 1
 630 291 l 1
 768 291 l 2
478 1493 m 1
 884 1493 l 2
 1243 1493 1480 1466 1635 1280 c 0
 1720 1179 1756 1059 1756 924 c 0
 1756 641 1604 185 1107 48 c 0
 989 16 818 0 594 0 c 2
 188 0 l 1
 478 1493 l 1
EndSplineSet
Validated: 1
Layer: 2
SplineSet
768 291 m 2,0,1
 868 291 868 291 952.5 313 c 128,-1,2
 1037 335 1037 335 1096 371 c 128,-1,3
 1155 407 1155 407 1201.5 456.5 c 128,-1,4
 1248 506 1248 506 1276 558.5 c 128,-1,5
 1304 611 1304 611 1322 669 c 128,-1,6
 1340 727 1340 727 1347 776 c 128,-1,7
 1354 825 1354 825 1354 872 c 0,8,9
 1354 1035 1354 1035 1249.5 1118.5 c 128,-1,10
 1145 1202 1145 1202 945 1202 c 2,11,-1
 807 1202 l 1,12,-1
 630 291 l 1,13,-1
 768 291 l 2,0,1
478 1493 m 1,14,-1
 884 1493 l 2,15,16
 1033 1493 1033 1493 1134 1485.5 c 128,-1,17
 1235 1478 1235 1478 1333.5 1456.5 c 128,-1,18
 1432 1435 1432 1435 1505 1391.5 c 128,-1,19
 1578 1348 1578 1348 1635 1280 c 0,20,21
 1756 1136 1756 1136 1756 924 c 0,22,23
 1756 850 1756 850 1742 770 c 128,-1,24
 1728 690 1728 690 1698.5 602 c 128,-1,25
 1669 514 1669 514 1617.5 431 c 128,-1,26
 1566 348 1566 348 1497 274 c 128,-1,27
 1428 200 1428 200 1327.5 140.5 c 128,-1,28
 1227 81 1227 81 1107 48 c 0,29,30
 930 0 930 0 594 0 c 2,31,-1
 188 0 l 1,32,-1
 478 1493 l 1,14,-1
EndSplineSet
EndChar

StartChar: E
Encoding: 69 69 41
Width: 1399
Flags: W
HStem: 0 291<630 1249> 633 291<753 1311> 1202 291<807 1461>
DStem2: 188 0 573.435 0 0.190809 0.981627<369.991 718.301 1014.83 1298.03>
LayerCount: 3
Fore
SplineSet
478 1493 m 1
 1517 1493 l 1
 1461 1202 l 1
 807 1202 l 1
 753 924 l 1
 1368 924 l 1
 1311 633 l 1
 696 633 l 1
 630 291 l 1
 1306 291 l 1
 1249 0 l 1
 188 0 l 5
 478 1493 l 1
EndSplineSet
Validated: 1
Layer: 2
SplineSet
478 1493 m 1,0,-1
 1517 1493 l 1,1,-1
 1461 1202 l 1,2,-1
 807 1202 l 1,3,-1
 753 924 l 1,4,-1
 1368 924 l 1,5,-1
 1311 633 l 1,6,-1
 696 633 l 1,7,-1
 630 291 l 1,8,-1
 1306 291 l 1,9,-1
 1249 0 l 1,10,-1
 188 0 l 1,11,-1
 478 1493 l 1,0,-1
EndSplineSet
EndChar

StartChar: F
Encoding: 70 70 42
Width: 1399
Flags: W
HStem: 0 21G<188 576.886> 633 291<753 1311> 1202 291<807 1461>
DStem2: 188 0 573 0 0.190809 0.981627<73.4615 718.301 1014.83 1298.03>
LayerCount: 3
Fore
SplineSet
478 1493 m 1
 1517 1493 l 1
 1461 1202 l 1
 807 1202 l 1
 753 924 l 1
 1368 924 l 1
 1311 633 l 1
 696 633 l 1
 573 0 l 1
 188 0 l 1
 478 1493 l 1
EndSplineSet
Validated: 1
Layer: 2
SplineSet
478 1493 m 1,0,-1
 1517 1493 l 1,1,-1
 1461 1202 l 1,2,-1
 807 1202 l 1,3,-1
 753 924 l 1,4,-1
 1368 924 l 1,5,-1
 1311 633 l 1,6,-1
 696 633 l 1,7,-1
 573 0 l 1,8,-1
 188 0 l 1,9,-1
 478 1493 l 1,0,-1
EndSplineSet
EndChar

StartChar: G
Encoding: 71 71 43
Width: 1681
Flags: W
HStem: -29 279<801.045 1219.73> 571 258<1091 1276> 1241 279<984.536 1488.73>
VStem: 228 402<412.867 847.87>
LayerCount: 3
Fore
SplineSet
1220 1241 m 0
 748 1241 630 828 630 602 c 0
 630 378 759 250 1010 250 c 0
 1088 250 1159 259 1220 281 c 1
 1276 571 l 1
 1041 571 l 1
 1091 829 l 1
 1691 829 l 1
 1552 111 l 1
 1369 30 1153 -29 905 -29 c 0
 474 -29 228 191 228 558 c 0
 228 981 512 1520 1227 1520 c 0
 1438 1520 1611 1478 1749 1409 c 1
 1689 1100 l 1
 1575 1173 1420 1241 1220 1241 c 0
EndSplineSet
Validated: 1
Layer: 2
SplineSet
1220 1241 m 0,0,1
 1122 1241 1122 1241 1039 1217.5 c 128,-1,2
 956 1194 956 1194 896.5 1154.5 c 128,-1,3
 837 1115 837 1115 790 1060.5 c 128,-1,4
 743 1006 743 1006 713.5 948.5 c 128,-1,5
 684 891 684 891 664.5 827.5 c 128,-1,6
 645 764 645 764 637.5 709 c 128,-1,7
 630 654 630 654 630 602 c 0,8,9
 630 432 630 432 726.5 341 c 128,-1,10
 823 250 823 250 1010 250 c 0,11,12
 1134 250 1134 250 1220 281 c 1,13,-1
 1276 571 l 1,14,-1
 1041 571 l 1,15,-1
 1091 829 l 1,16,-1
 1691 829 l 1,17,-1
 1552 111 l 1,18,19
 1236 -29 1236 -29 905 -29 c 0,20,21
 583 -29 583 -29 405.5 126.5 c 128,-1,22
 228 282 228 282 228 558 c 0,23,24
 228 651 228 651 245.5 744.5 c 128,-1,25
 263 838 263 838 301.5 933.5 c 128,-1,26
 340 1029 340 1029 396 1114.5 c 128,-1,27
 452 1200 452 1200 534 1274.5 c 128,-1,28
 616 1349 616 1349 716 1403.5 c 128,-1,29
 816 1458 816 1458 947 1489 c 128,-1,30
 1078 1520 1078 1520 1227 1520 c 0,31,32
 1527 1520 1527 1520 1749 1409 c 1,33,-1
 1689 1100 l 1,34,35
 1469 1241 1469 1241 1220 1241 c 0,0,1
EndSplineSet
EndChar

StartChar: H
Encoding: 72 72 44
Width: 1714
Flags: W
HStem: 0 21G<188 576.886 1141 1529.88> 633 291<753 1264> 1473 20G<474.115 863 1427.13 1816>
DStem2: 188 0 573 0 0.190809 0.981627<73.4615 718.301 1014.83 1520.9> 1141 0 1526 0 0.190809 0.981627<73.4615 644.839 941.369 1520.9>
LayerCount: 3
Fore
SplineSet
478 1493 m 1
 863 1493 l 1
 753 924 l 1
 1321 924 l 1
 1431 1493 l 1
 1816 1493 l 1
 1526 0 l 1
 1141 0 l 1
 1264 633 l 1
 696 633 l 1
 573 0 l 1
 188 0 l 1
 478 1493 l 1
EndSplineSet
Validated: 1
Layer: 2
SplineSet
478 1493 m 1,0,-1
 863 1493 l 1,1,-1
 753 924 l 1,2,-1
 1321 924 l 1,3,-1
 1431 1493 l 1,4,-1
 1816 1493 l 1,5,-1
 1526 0 l 1,6,-1
 1141 0 l 1,7,-1
 1264 633 l 1,8,-1
 696 633 l 1,9,-1
 573 0 l 1,10,-1
 188 0 l 1,11,-1
 478 1493 l 1,0,-1
EndSplineSet
EndChar

StartChar: I
Encoding: 73 73 45
Width: 762
Flags: W
HStem: 0 21G<188 576.885> 1473 20G<474.115 863>
VStem: 188 675
DStem2: 188 0 573 0 0.190809 0.981627<73.4615 1520.9>
LayerCount: 3
Fore
SplineSet
478 1493 m 1
 863 1493 l 1
 573 0 l 1
 188 0 l 1
 478 1493 l 1
EndSplineSet
Validated: 1
Layer: 2
SplineSet
478 1493 m 1,0,-1
 863 1493 l 1,1,-1
 573 0 l 1,2,-1
 188 0 l 1,3,-1
 478 1493 l 1,0,-1
EndSplineSet
EndChar

StartChar: J
Encoding: 74 74 46
Width: 762
Flags: W
HStem: -410 291<-138 73.1587> 1473 20G<474.113 863>
DStem2: 108.119 -410 493.119 -410 0.190809 0.981627<377.414 1938.61>
LayerCount: 3
Fore
SplineSet
-78 -119 m 2
 44 -119 175 -66 216 145 c 2
 478 1493 l 1
 863 1493 l 1
 601 145 l 2
 526 -240 277 -410 -117 -410 c 2
 -195 -410 l 1
 -138 -119 l 1
 -78 -119 l 2
EndSplineSet
Validated: 1
Layer: 2
SplineSet
-78 -119 m 2,0,1
 165 -119 165 -119 216 145 c 2,2,-1
 478 1493 l 1,3,-1
 863 1493 l 1,4,-1
 601 145 l 2,5,6
 493 -410 493 -410 -117 -410 c 2,7,-1
 -195 -410 l 1,8,-1
 -138 -119 l 1,9,-1
 -78 -119 l 2,0,1
EndSplineSet
EndChar

StartChar: K
Encoding: 75 75 47
Width: 1587
Flags: W
HStem: 0 21G<188 576.878 1150.67 1649> 1473 20G<474.115 863 1393.74 1865>
DStem2: 188 0 573 0 0.190809 0.981627<73.4615 672.41 1039.15 1520.9> 1009 786 687 588 0.631409 -0.77545<0 709.266> 757 948 1009 786 0.771019 0.636812<91.1334 856.706>
LayerCount: 3
Fore
SplineSet
478 1493 m 1
 863 1493 l 1
 757 948 l 1
 1418 1493 l 1
 1865 1493 l 1
 1009 786 l 1
 1649 0 l 1
 1167 0 l 1
 687 588 l 1
 573 0 l 1
 188 0 l 1
 478 1493 l 1
EndSplineSet
Validated: 1
Layer: 2
SplineSet
478 1493 m 1,0,-1
 863 1493 l 1,1,-1
 757 948 l 1,2,-1
 1418 1493 l 1,3,-1
 1865 1493 l 1,4,-1
 1009 786 l 1,5,-1
 1649 0 l 1,6,-1
 1167 0 l 1,7,-1
 687 588 l 1,8,-1
 573 0 l 1,9,-1
 188 0 l 1,10,-1
 478 1493 l 1,0,-1
EndSplineSet
EndChar

StartChar: L
Encoding: 76 76 48
Width: 1305
Flags: W
HStem: 0 291<630 1249> 1473 20G<474.115 863>
DStem2: 188 0 573.435 0 0.190809 0.981627<369.991 1520.9>
LayerCount: 3
Fore
SplineSet
478 1493 m 1
 863 1493 l 1
 630 291 l 1
 1306 291 l 1
 1249 0 l 1
 188 0 l 1
 478 1493 l 1
EndSplineSet
Validated: 1
Layer: 2
SplineSet
478 1493 m 1,0,-1
 863 1493 l 1,1,-1
 630 291 l 1,2,-1
 1306 291 l 1,3,-1
 1249 0 l 1,4,-1
 188 0 l 1,5,-1
 478 1493 l 1,0,-1
EndSplineSet
EndChar

StartChar: M
Encoding: 77 77 49
Width: 2038
Flags: W
HStem: 0 21G<188 556.883 1485 1852.88> 1473 20G<474.115 972.631 1637.56 2139>
DStem2: 188 0 553 0 0.190809 0.981627<69.6453 1182.03> 968 1493 765 1092 0.227421 -0.973797<344.326 820.136> 1153 694 1197 287 0.527626 0.849477<0 625.12> 1485 0 1849 0 0.190809 0.981627<69.4545 1112.39>
LayerCount: 3
Fore
SplineSet
478 1493 m 1
 968 1493 l 1
 1153 694 l 1
 1650 1493 l 1
 2139 1493 l 1
 1849 0 l 1
 1485 0 l 1
 1697 1092 l 1
 1197 287 l 1
 953 287 l 1
 765 1092 l 1
 553 0 l 1
 188 0 l 1
 478 1493 l 1
EndSplineSet
Validated: 1
Layer: 2
SplineSet
478 1493 m 1,0,-1
 968 1493 l 1,1,-1
 1153 694 l 1,2,-1
 1650 1493 l 1,3,-1
 2139 1493 l 1,4,-1
 1849 0 l 1,5,-1
 1485 0 l 1,6,-1
 1697 1092 l 1,7,-1
 1197 287 l 1,8,-1
 953 287 l 1,9,-1
 765 1092 l 1,10,-1
 553 0 l 1,11,-1
 188 0 l 1,12,-1
 478 1493 l 1,0,-1
EndSplineSet
EndChar

StartChar: N
Encoding: 78 78 50
Width: 1714
Flags: W
HStem: 0 21G<188 556.887 1089.28 1529.88> 1473 20G<474.115 914.719 1447.11 1816>
DStem2: 188 0 553 0 0.190809 0.981627<69.6453 1112.8> 908 1493 752 1024 0.318449 -0.94794<394.906 1080.24> 1160.84 0 1526 0 0.190809 0.981627<477.778 1520.94>
LayerCount: 3
Fore
SplineSet
478 1493 m 1
 908 1493 l 1
 1252 469 l 1
 1451 1493 l 1
 1816 1493 l 1
 1526 0 l 1
 1096 0 l 1
 752 1024 l 1
 553 0 l 1
 188 0 l 1
 478 1493 l 1
EndSplineSet
Validated: 1
Layer: 2
SplineSet
478 1493 m 1,0,-1
 908 1493 l 1,1,-1
 1252 469 l 1,2,-1
 1451 1493 l 1,3,-1
 1816 1493 l 1,4,-1
 1526 0 l 1,5,-1
 1096 0 l 1,6,-1
 752 1024 l 1,7,-1
 553 0 l 1,8,-1
 188 0 l 1,9,-1
 478 1493 l 1,0,-1
EndSplineSet
EndChar

StartChar: O
Encoding: 79 79 51
Width: 1741
Flags: W
HStem: -29 279<751.665 1103.4> 1241 279<927.934 1278.32>
VStem: 226 402<382.777 841.166> 1403 401<651.213 1107.59>
LayerCount: 3
Fore
SplineSet
919 250 m 0
 1307 250 1403 715 1403 911 c 0
 1403 1108 1316 1241 1111 1241 c 0
 724 1241 628 774 628 579 c 0
 628 382 715 250 919 250 c 0
226 543 m 0
 226 975 498 1520 1165 1520 c 0
 1572 1520 1804 1313 1804 947 c 0
 1804 527 1542 -29 864 -29 c 0
 458 -29 226 178 226 543 c 0
EndSplineSet
Validated: 1
Layer: 2
SplineSet
919 250 m 0,0,1
 999 250 999 250 1067.5 276.5 c 128,-1,2
 1136 303 1136 303 1184.5 346.5 c 128,-1,3
 1233 390 1233 390 1272 448.5 c 128,-1,4
 1311 507 1311 507 1335 568.5 c 128,-1,5
 1359 630 1359 630 1375 694.5 c 128,-1,6
 1391 759 1391 759 1397 812.5 c 128,-1,7
 1403 866 1403 866 1403 911 c 0,8,9
 1403 1065 1403 1065 1331 1153 c 128,-1,10
 1259 1241 1259 1241 1111 1241 c 0,11,12
 1031 1241 1031 1241 962.5 1214.5 c 128,-1,13
 894 1188 894 1188 845.5 1144 c 128,-1,14
 797 1100 797 1100 758.5 1041.5 c 128,-1,15
 720 983 720 983 696 921.5 c 128,-1,16
 672 860 672 860 656 795 c 128,-1,17
 640 730 640 730 634 677 c 128,-1,18
 628 624 628 624 628 579 c 0,19,20
 628 425 628 425 699.5 337.5 c 128,-1,21
 771 250 771 250 919 250 c 0,0,1
226 543 m 0,22,23
 226 677 226 677 258.5 810.5 c 128,-1,24
 291 944 291 944 365 1073 c 128,-1,25
 439 1202 439 1202 545.5 1300.5 c 128,-1,26
 652 1399 652 1399 812 1459.5 c 128,-1,27
 972 1520 972 1520 1165 1520 c 0,28,29
 1470 1520 1470 1520 1637 1370.5 c 128,-1,30
 1804 1221 1804 1221 1804 947 c 0,31,32
 1804 855 1804 855 1788 760.5 c 128,-1,33
 1772 666 1772 666 1736 569.5 c 128,-1,34
 1700 473 1700 473 1648 386 c 128,-1,35
 1596 299 1596 299 1518.5 223 c 128,-1,36
 1441 147 1441 147 1347 91 c 128,-1,37
 1253 35 1253 35 1129 3 c 128,-1,38
 1005 -29 1005 -29 864 -29 c 0,39,40
 559 -29 559 -29 392.5 120 c 128,-1,41
 226 269 226 269 226 543 c 0,22,23
EndSplineSet
EndChar

StartChar: P
Encoding: 80 80 52
Width: 1501
Flags: W
HStem: 0 21G<188 576.9> 518 279<728 1098.77> 1214 279<809 1174.29>
VStem: 1221 404<907.302 1166.91>
DStem2: 188 0 573 0 0.190809 0.981627<73.4615 601.216 885.394 1310.19>
LayerCount: 3
Fore
SplineSet
1625 1121 m 0
 1625 900 1495 518 928 518 c 2
 674 518 l 1
 573 0 l 1
 188 0 l 1
 478 1493 l 1
 1117 1493 l 2
 1430 1493 1625 1375 1625 1121 c 0
941 797 m 2
 1165 797 1221 961 1221 1057 c 0
 1221 1161 1148 1214 1022 1214 c 2
 809 1214 l 1
 728 797 l 1
 941 797 l 2
EndSplineSet
Validated: 1
Layer: 2
SplineSet
1625 1121 m 0,0,1
 1625 1070 1625 1070 1616.5 1017.5 c 128,-1,2
 1608 965 1608 965 1586 905 c 128,-1,3
 1564 845 1564 845 1529.5 791 c 128,-1,4
 1495 737 1495 737 1440 686 c 128,-1,5
 1385 635 1385 635 1314.5 598.5 c 128,-1,6
 1244 562 1244 562 1144.5 540 c 128,-1,7
 1045 518 1045 518 928 518 c 2,8,-1
 674 518 l 1,9,-1
 573 0 l 1,10,-1
 188 0 l 1,11,-1
 478 1493 l 1,12,-1
 1117 1493 l 2,13,14
 1358 1493 1358 1493 1491.5 1400 c 128,-1,15
 1625 1307 1625 1307 1625 1121 c 0,0,1
941 797 m 2,16,17
 1005 797 1005 797 1056 815 c 128,-1,18
 1107 833 1107 833 1137 860.5 c 128,-1,19
 1167 888 1167 888 1186.5 924 c 128,-1,20
 1206 960 1206 960 1213.5 992.5 c 128,-1,21
 1221 1025 1221 1025 1221 1057 c 0,22,23
 1221 1134 1221 1134 1169.5 1174 c 128,-1,24
 1118 1214 1118 1214 1022 1214 c 2,25,-1
 809 1214 l 1,26,-1
 728 797 l 1,27,-1
 941 797 l 2,16,17
EndSplineSet
EndChar

StartChar: Q
Encoding: 81 81 53
Width: 1741
Flags: W
HStem: -27 277<746.559 906> 1241 279<926.795 1278.67>
VStem: 226 400<378.66 837.767> 1403 401<654.193 1109.76>
LayerCount: 3
Fore
SplineSet
1804 952 m 0
 1804 731 1717 241 1228 37 c 1
 1464 -299 l 1
 1097 -299 l 1
 906 -27 l 1
 876 -27 l 2
 453 -27 226 182 226 543 c 0
 226 967 492 1520 1165 1520 c 0
 1575 1520 1804 1317 1804 952 c 0
919 250 m 0
 1307 250 1403 715 1403 911 c 0
 1403 1108 1316 1241 1111 1241 c 0
 723 1241 626 771 626 571 c 0
 626 378 711 250 919 250 c 0
EndSplineSet
Validated: 1
Layer: 2
SplineSet
1804 952 m 0,0,1
 1804 900 1804 900 1798 842.5 c 128,-1,2
 1792 785 1792 785 1775 710 c 128,-1,3
 1758 635 1758 635 1731.5 563 c 128,-1,4
 1705 491 1705 491 1659.5 413.5 c 128,-1,5
 1614 336 1614 336 1556 269 c 128,-1,6
 1498 202 1498 202 1413.5 140.5 c 128,-1,7
 1329 79 1329 79 1228 37 c 1,8,-1
 1464 -299 l 1,9,-1
 1097 -299 l 1,10,-1
 906 -27 l 1,11,-1
 876 -27 l 2,12,13
 561 -27 561 -27 393.5 121.5 c 128,-1,14
 226 270 226 270 226 543 c 0,15,16
 226 636 226 636 242.5 730.5 c 128,-1,17
 259 825 259 825 295 922 c 128,-1,18
 331 1019 331 1019 383.5 1106 c 128,-1,19
 436 1193 436 1193 513 1269 c 128,-1,20
 590 1345 590 1345 684 1400.5 c 128,-1,21
 778 1456 778 1456 901.5 1488 c 128,-1,22
 1025 1520 1025 1520 1165 1520 c 0,23,24
 1473 1520 1473 1520 1638.5 1373 c 128,-1,25
 1804 1226 1804 1226 1804 952 c 0,0,1
919 250 m 0,26,27
 999 250 999 250 1067.5 276.5 c 128,-1,28
 1136 303 1136 303 1184.5 346.5 c 128,-1,29
 1233 390 1233 390 1272 448.5 c 128,-1,30
 1311 507 1311 507 1335 568.5 c 128,-1,31
 1359 630 1359 630 1375 694.5 c 128,-1,32
 1391 759 1391 759 1397 812.5 c 128,-1,33
 1403 866 1403 866 1403 911 c 0,34,35
 1403 1065 1403 1065 1331 1153 c 128,-1,36
 1259 1241 1259 1241 1111 1241 c 0,37,38
 1031 1241 1031 1241 962 1214 c 128,-1,39
 893 1187 893 1187 844.5 1143 c 128,-1,40
 796 1099 796 1099 757 1040 c 128,-1,41
 718 981 718 981 694 919 c 128,-1,42
 670 857 670 857 654.5 791 c 128,-1,43
 639 725 639 725 632.5 671 c 128,-1,44
 626 617 626 617 626 571 c 0,45,46
 626 419 626 419 697.5 334.5 c 128,-1,47
 769 250 769 250 919 250 c 0,26,27
EndSplineSet
EndChar

StartChar: R
Encoding: 82 82 54
Width: 1577
Flags: W
HStem: 0 21G<188 576.894 1120.07 1536> 565 266<735 935.403> 1214 279<809 1133.42>
VStem: 1166 401<971.084 1280>
DStem2: 188 0 573 0 0.190809 0.981627<73.4615 649.07 920.105 1310.19> 1409 424 1016 371 0.286933 -0.957951<-238.819 324.969>
LayerCount: 3
Fore
SplineSet
1160 1024 m 0
 1164 1045 1166 1064 1166 1081 c 0
 1166 1182 1097 1214 971 1214 c 2
 809 1214 l 1
 735 831 l 1
 897 831 l 2
 1069 831 1135 897 1160 1024 c 0
1556 1081 m 0
 1511 851 1361 747 1195 698 c 1
 1315 669 1368 558 1409 424 c 2
 1536 0 l 1
 1126 0 l 1
 1016 371 l 2
 977 504 929 565 792 565 c 2
 683 565 l 1
 573 0 l 1
 188 0 l 1
 478 1493 l 1
 1066 1493 l 2
 1441 1493 1567 1374 1567 1186 c 0
 1567 1153 1563 1118 1556 1081 c 0
EndSplineSet
Validated: 1
Layer: 2
SplineSet
1160 1024 m 0,0,1
 1166 1055.5 1166 1055.5 1166 1081 c 0,2,3
 1166 1154 1166 1154 1118 1184 c 128,-1,4
 1070 1214 1070 1214 971 1214 c 2,5,-1
 809 1214 l 1,6,-1
 735 831 l 1,7,-1
 897 831 l 2,8,9
 1022 831 1022 831 1081 878 c 128,-1,10
 1140 925 1140 925 1160 1024 c 0,0,1
1556 1081 m 0,11,12
 1499 788 1499 788 1195 698 c 1,13,14
 1238 688 1238 688 1272.5 663 c 128,-1,15
 1307 638 1307 638 1332 599.5 c 128,-1,16
 1357 561 1357 561 1374.5 520.5 c 128,-1,17
 1392 480 1392 480 1409 424 c 2,18,-1
 1536 0 l 1,19,-1
 1126 0 l 1,20,-1
 1016 371 l 2,21,22
 985 476 985 476 937.5 520.5 c 128,-1,23
 890 565 890 565 792 565 c 2,24,-1
 683 565 l 1,25,-1
 573 0 l 1,26,-1
 188 0 l 1,27,-1
 478 1493 l 1,28,-1
 1066 1493 l 2,29,30
 1204 1493 1204 1493 1302 1472 c 128,-1,31
 1400 1451 1400 1451 1457.5 1409.5 c 128,-1,32
 1515 1368 1515 1368 1541 1313.5 c 128,-1,33
 1567 1259 1567 1259 1567 1186 c 0,34,35
 1567 1139 1567 1139 1556 1081 c 0,11,12
EndSplineSet
EndChar

StartChar: S
Encoding: 83 83 55
Width: 1475
Flags: W
HStem: -29 279<480.487 941.836> 1130 21G<1350 1450.86> 1241 279<788.839 1278.38>
VStem: 342 362<862 1167.39> 1038 387<330.834 660.5>
LayerCount: 3
Fore
SplineSet
342 959 m 0
 342 1138 448 1520 1000 1520 c 0
 1209 1520 1389 1480 1508 1446 c 1
 1447 1130 l 1
 1253 1225 1097 1241 1007 1241 c 0
 745 1241 704 1131 704 1058 c 0
 704 990 764 960 884 934 c 2
 1041 901 l 2
 1295 848 1425 756 1425 565 c 0
 1425 292 1277 -29 725 -29 c 0
 561 -29 375 -2 175 78 c 1
 238 403 l 1
 356 334 533 250 743 250 c 0
 987 250 1038 368 1038 447 c 0
 1038 526 973 558 841 588 c 2
 699 621 l 2
 479 672 342 765 342 959 c 0
EndSplineSet
Validated: 1
Layer: 2
SplineSet
342 959 m 0,0,1
 342 1001 342 1001 349 1046.5 c 128,-1,2
 356 1092 356 1092 376 1148 c 128,-1,3
 396 1204 396 1204 427 1255 c 128,-1,4
 458 1306 458 1306 510 1355.5 c 128,-1,5
 562 1405 562 1405 628 1440.5 c 128,-1,6
 694 1476 694 1476 790 1498 c 128,-1,7
 886 1520 886 1520 1000 1520 c 0,8,9
 1249 1520 1249 1520 1508 1446 c 1,10,-1
 1447 1130 l 1,11,12
 1220 1241 1220 1241 1007 1241 c 0,13,14
 932 1241 932 1241 875.5 1228.5 c 128,-1,15
 819 1216 819 1216 787 1198 c 128,-1,16
 755 1180 755 1180 735.5 1154 c 128,-1,17
 716 1128 716 1128 710 1105.5 c 128,-1,18
 704 1083 704 1083 704 1058 c 0,19,20
 704 1009 704 1009 746.5 982 c 128,-1,21
 789 955 789 955 884 934 c 2,22,-1
 1041 901 l 2,23,24
 1238 860 1238 860 1331.5 782 c 128,-1,25
 1425 704 1425 704 1425 565 c 0,26,27
 1425 478 1425 478 1406 398 c 128,-1,28
 1387 318 1387 318 1337 238.5 c 128,-1,29
 1287 159 1287 159 1210.5 101 c 128,-1,30
 1134 43 1134 43 1009 7 c 128,-1,31
 884 -29 884 -29 725 -29 c 0,32,33
 442 -29 442 -29 175 78 c 1,34,-1
 238 403 l 1,35,36
 500 250 500 250 743 250 c 0,37,38
 829 250 829 250 891 269 c 128,-1,39
 953 288 953 288 983 319.5 c 128,-1,40
 1013 351 1013 351 1025.5 382 c 128,-1,41
 1038 413 1038 413 1038 447 c 0,42,43
 1038 504 1038 504 992 534 c 128,-1,44
 946 564 946 564 841 588 c 2,45,-1
 699 621 l 2,46,47
 524 662 524 662 433 741 c 128,-1,48
 342 820 342 820 342 959 c 0,0,1
EndSplineSet
EndChar

StartChar: T
Encoding: 84 84 56
Width: 1397
Flags: W
HStem: 0 21G<506 894.893> 1202 291<300 740 1125 1620>
DStem2: 506 0 891 0 0.190809 0.981627<73.4615 1224.57>
LayerCount: 3
Fore
SplineSet
300 1493 m 1
 1676 1493 l 1
 1620 1202 l 1
 1125 1202 l 1
 891 0 l 1
 506 0 l 1
 740 1202 l 1
 244 1202 l 1
 300 1493 l 1
EndSplineSet
Validated: 1
Layer: 2
SplineSet
300 1493 m 1,0,-1
 1676 1493 l 1,1,-1
 1620 1202 l 1,2,-1
 1125 1202 l 1,3,-1
 891 0 l 1,4,-1
 506 0 l 1,5,-1
 740 1202 l 1,6,-1
 244 1202 l 1,7,-1
 300 1493 l 1,0,-1
EndSplineSet
EndChar

StartChar: U
Encoding: 85 85 57
Width: 1663
Flags: W
HStem: -29 283<727.68 1049.46> 1473 20G<474.112 863 1376.11 1765>
VStem: 284 389<313.022 723.859>
DStem2: 182.124 -29 567.124 -29 0.190809 0.981627<570.664 1550.49> 1084.12 -29 1469.12 -29 0.190809 0.981627<405.652 1550.49>
LayerCount: 3
Fore
SplineSet
825 -29 m 0
 466 -29 284 112 284 410 c 0
 284 467 291 529 304 598 c 2
 478 1493 l 1
 863 1493 l 1
 689 598 l 2
 679 544 673 496 673 455 c 0
 673 323 730 254 880 254 c 0
 1086 254 1165 385 1206 598 c 2
 1380 1493 l 1
 1765 1493 l 1
 1591 598 l 2
 1508 171 1254 -29 825 -29 c 0
EndSplineSet
Validated: 1
Layer: 2
SplineSet
825 -29 m 0,0,1
 554 -29 554 -29 419 79.5 c 128,-1,2
 284 188 284 188 284 410 c 0,3,4
 284 492 284 492 304 598 c 2,5,-1
 478 1493 l 1,6,-1
 863 1493 l 1,7,-1
 689 598 l 2,8,9
 673 512 673 512 673 455 c 0,10,11
 673 353 673 353 721.5 303.5 c 128,-1,12
 770 254 770 254 880 254 c 0,13,14
 1026 254 1026 254 1099.5 340 c 128,-1,15
 1173 426 1173 426 1206 598 c 2,16,-1
 1380 1493 l 1,17,-1
 1765 1493 l 1,18,-1
 1591 598 l 2,19,20
 1529 280 1529 280 1339 125.5 c 128,-1,21
 1149 -29 1149 -29 825 -29 c 0,0,1
EndSplineSet
EndChar

StartChar: V
Encoding: 86 86 58
Width: 1585
Flags: W
HStem: 0 21G<559.477 1033.29> 1473 20G<300 690.303 1466.95 1865>
DStem2: 687 1493 300 1493 0.173484 -0.984837<0 1116.86> 869 391 1022 0 0.491673 0.87078<0 1259.03>
LayerCount: 3
Fore
SplineSet
300 1493 m 1
 687 1493 l 1
 869 391 l 1
 1478 1493 l 1
 1865 1493 l 1
 1022 0 l 1
 563 0 l 1
 300 1493 l 1
EndSplineSet
Validated: 1
Layer: 2
SplineSet
300 1493 m 1,0,-1
 687 1493 l 1,1,-1
 869 391 l 1,2,-1
 1478 1493 l 1,3,-1
 1865 1493 l 1,4,-1
 1022 0 l 1,5,-1
 563 0 l 1,6,-1
 300 1493 l 1,0,-1
EndSplineSet
EndChar

StartChar: W
Encoding: 87 87 59
Width: 2259
Flags: W
HStem: 0 21G<415.129 868.617 1398.12 1851.6> 1473 20G<351 720.866 1225.39 1605.83 2110.35 2485>
VStem: 351 369<1163.71 1493>
DStem2: 767 408 860 0 0.395676 0.91839<0 897.953> 1650 408 1843 0 0.395033 0.918667<0 1182.02>
LayerCount: 3
Fore
SplineSet
351 1493 m 1
 720 1493 l 1
 767 408 l 1
 1234 1493 l 1
 1605 1493 l 1
 1650 408 l 1
 2119 1493 l 1
 2485 1493 l 1
 1843 0 l 1
 1399 0 l 1
 1349 1135 l 1
 860 0 l 1
 416 0 l 1
 351 1493 l 1
EndSplineSet
Validated: 1
Layer: 2
SplineSet
351 1493 m 1,0,-1
 720 1493 l 1,1,-1
 767 408 l 1,2,-1
 1234 1493 l 1,3,-1
 1605 1493 l 1,4,-1
 1650 408 l 1,5,-1
 2119 1493 l 1,6,-1
 2485 1493 l 1,7,-1
 1843 0 l 1,8,-1
 1399 0 l 1,9,-1
 1349 1135 l 1,10,-1
 860 0 l 1,11,-1
 416 0 l 1,12,-1
 351 1493 l 1,0,-1
EndSplineSet
EndChar

StartChar: X
Encoding: 88 88 60
Width: 1579
Flags: W
HStem: 0 21G<39 459.451 1127.2 1538> 1473 20G<349 760.73 1386.58 1808>
DStem2: 39 0 442 0 0.658085 0.752944<265.208 942.057> 751 1493 349 1493 0.437842 -0.899052<0 534.899> 1168 762 887 510 0.436795 -0.899561<103.95 671.925> 985 1012 1168 762 0.658723 0.752385<0 637.902>
LayerCount: 3
Fore
SplineSet
1168 762 m 1
 1538 0 l 1
 1137 0 l 1
 887 510 l 1
 442 0 l 1
 39 0 l 1
 705 762 l 1
 349 1493 l 1
 751 1493 l 1
 985 1012 l 1
 1404 1493 l 1
 1808 1493 l 1
 1168 762 l 1
EndSplineSet
Validated: 1
Layer: 2
SplineSet
1168 762 m 1,0,-1
 1538 0 l 1,1,-1
 1137 0 l 1,2,-1
 887 510 l 1,3,-1
 442 0 l 1,4,-1
 39 0 l 1,5,-1
 705 762 l 1,6,-1
 349 1493 l 1,7,-1
 751 1493 l 1,8,-1
 985 1012 l 1,9,-1
 1404 1493 l 1,10,-1
 1808 1493 l 1,11,-1
 1168 762 l 1,0,-1
EndSplineSet
EndChar

StartChar: Y
Encoding: 89 89 61
Width: 1483
Flags: W
HStem: 0 21G<549 937.879> 1473 20G<270 699.91 1354.35 1793>
DStem2: 691 1493 270 1493 0.420988 -0.907066<0 582.333> 549 0 934 0 0.190809 0.981627<73.4615 640.722> 928 961 1056 629 0.648977 0.760808<0 692.247>
LayerCount: 3
Fore
SplineSet
270 1493 m 1
 691 1493 l 1
 928 961 l 1
 1371 1493 l 1
 1793 1493 l 1
 1056 629 l 1
 934 0 l 1
 549 0 l 1
 671 629 l 1
 270 1493 l 1
EndSplineSet
Validated: 1
Layer: 2
SplineSet
270 1493 m 1,0,-1
 691 1493 l 1,1,-1
 928 961 l 1,2,-1
 1371 1493 l 1,3,-1
 1793 1493 l 1,4,-1
 1056 629 l 1,5,-1
 934 0 l 1,6,-1
 549 0 l 1,7,-1
 671 629 l 1,8,-1
 270 1493 l 1,0,-1
EndSplineSet
EndChar

StartChar: Z
Encoding: 90 90 62
Width: 1485
Flags: W
HStem: 0 291<626 1393> 1202 291<405 1127>
DStem2: 137 233 626 291 0.714646 0.699487<390.032 1385.3>
LayerCount: 3
Fore
SplineSet
405 1493 m 1
 1660 1493 l 1
 1615 1260 l 1
 626 291 l 1
 1450 291 l 1
 1393 0 l 1
 92 0 l 1
 137 233 l 1
 1127 1202 l 1
 349 1202 l 1
 405 1493 l 1
EndSplineSet
Validated: 1
Layer: 2
SplineSet
405 1493 m 1,0,-1
 1660 1493 l 1,1,-1
 1615 1260 l 1,2,-1
 626 291 l 1,3,-1
 1450 291 l 1,4,-1
 1393 0 l 1,5,-1
 92 0 l 1,6,-1
 137 233 l 1,7,-1
 1127 1202 l 1,8,-1
 349 1202 l 1,9,-1
 405 1493 l 1,0,-1
EndSplineSet
EndChar

StartChar: bracketleft
Encoding: 91 91 63
Width: 936
Flags: W
HStem: -270 225<507 745> 1331 225<775 1056>
DStem2: 124 -270 463.264 -270 0.190809 0.981627<293.946 1695.8>
LayerCount: 3
Fore
SplineSet
478 1556 m 1
 1099 1556 l 1
 1056 1331 l 1
 775 1331 l 1
 507 -45 l 1
 788 -45 l 1
 745 -270 l 1
 124 -270 l 1
 478 1556 l 1
EndSplineSet
Validated: 1
Layer: 2
SplineSet
478 1556 m 1,0,-1
 1099 1556 l 1,1,-1
 1056 1331 l 1,2,-1
 775 1331 l 1,3,-1
 507 -45 l 1,4,-1
 788 -45 l 1,5,-1
 745 -270 l 1,6,-1
 124 -270 l 1,7,-1
 478 1556 l 1,0,-1
EndSplineSet
EndChar

StartChar: backslash
Encoding: 92 92 64
Width: 748
Flags: W
HStem: 1473 20G<290 513.377>
VStem: 290 421
DStem2: 511 1493 290 1493 0.118005 -0.993013<0 1668.64>
LayerCount: 3
Fore
SplineSet
489 -190 m 1
 290 1493 l 1
 511 1493 l 1
 711 -190 l 1
 489 -190 l 1
EndSplineSet
Validated: 1
Layer: 2
SplineSet
489 -190 m 1,0,-1
 290 1493 l 1,1,-1
 511 1493 l 1,2,-1
 711 -190 l 1,3,-1
 489 -190 l 1,0,-1
EndSplineSet
EndChar

StartChar: bracketright
Encoding: 93 93 65
Width: 936
Flags: W
HStem: -270 225<130 411> 1331 225<441 679>
DStem2: 367.264 -270 708 -270 0.190809 0.981627<229.211 1631.07>
LayerCount: 3
Fore
SplineSet
708 -270 m 1
 87 -270 l 1
 130 -45 l 1
 411 -45 l 1
 679 1331 l 1
 398 1331 l 1
 441 1556 l 1
 1062 1556 l 1
 708 -270 l 1
EndSplineSet
Validated: 1
Layer: 2
SplineSet
708 -270 m 1,0,-1
 87 -270 l 1,1,-1
 130 -45 l 1,2,-1
 411 -45 l 1,3,-1
 679 1331 l 1,4,-1
 398 1331 l 1,5,-1
 441 1556 l 1,6,-1
 1062 1556 l 1,7,-1
 708 -270 l 1,0,-1
EndSplineSet
EndChar

StartChar: asciicircum
Encoding: 94 94 66
Width: 1716
Flags: W
HStem: 936 557
LayerCount: 3
Fore
SplineSet
1271 1493 m 1
 1691 936 l 1
 1450 936 l 1
 1098 1237 l 1
 631 936 l 1
 389 936 l 1
 1025 1493 l 1
 1271 1493 l 1
EndSplineSet
Validated: 1
Layer: 2
SplineSet
1271 1493 m 1,0,-1
 1691 936 l 1,1,-1
 1450 936 l 1,2,-1
 1098 1237 l 1,3,-1
 631 936 l 1,4,-1
 389 936 l 1,5,-1
 1025 1493 l 1,6,-1
 1271 1493 l 1,0,-1
EndSplineSet
EndChar

StartChar: underscore
Encoding: 95 95 67
Width: 1024
Flags: W
HStem: -483 190<-57 930>
LayerCount: 3
Fore
SplineSet
967 -293 m 1
 930 -483 l 1
 -94 -483 l 1
 -57 -293 l 1
 967 -293 l 1
EndSplineSet
Validated: 1
Layer: 2
SplineSet
967 -293 m 1,0,-1
 930 -483 l 1,1,-1
 -94 -483 l 1,2,-1
 -57 -293 l 1,3,-1
 967 -293 l 1,0,-1
EndSplineSet
EndChar

StartChar: grave
Encoding: 96 96 68
Width: 1024
Flags: W
HStem: 1262 376
VStem: 412 492
LayerCount: 3
Fore
SplineSet
695 1638 m 1
 904 1262 l 1
 708 1262 l 1
 412 1638 l 1
 695 1638 l 1
EndSplineSet
Validated: 1
Layer: 2
SplineSet
695 1638 m 1,0,-1
 904 1262 l 1,1,-1
 708 1262 l 1,2,-1
 412 1638 l 1,3,-1
 695 1638 l 1,0,-1
EndSplineSet
EndChar

StartChar: a
Encoding: 97 97 69
Width: 1382
Flags: W
HStem: -29 238<371 695.384> 0 21G<860 1224.88> 504 213<588.715 958> 909 238<464.461 963.233>
VStem: 145 370<237.357 436.917> 1009 353<718.305 865.889>
LayerCount: 3
Fore
SplineSet
772 504 m 2xbc
 556 504 515 394 515 321 c 0
 515 247 572 209 662 209 c 0
 797 209 921 315 950 463 c 2
 958 504 l 1
 772 504 l 2xbc
872 1147 m 0
 1193 1147 1362 1053 1362 796 c 0
 1362 749 1356 697 1345 639 c 2
 1221 0 l 1
 860 0 l 1x7c
 892 166 l 1
 788 50 668 -29 473 -29 c 0
 269 -29 145 83 145 257 c 0
 145 282 148 308 153 336 c 0
 198 565 356 717 788 717 c 2
 999 717 l 1
 1005 745 l 2
 1007 757 1009 769 1009 781 c 0
 1009 859 947 909 761 909 c 0
 600 909 464 875 345 817 c 1
 398 1090 l 1
 586 1134 745 1147 872 1147 c 0
EndSplineSet
Validated: 1
Layer: 2
SplineSet
772 504 m 2,0,1
 710 504 710 504 662.5 491.5 c 128,-1,2
 615 479 615 479 588 460.5 c 128,-1,3
 561 442 561 442 543.5 416.5 c 128,-1,4
 526 391 526 391 520.5 368.5 c 128,-1,5
 515 346 515 346 515 321 c 0,6,7
 515 266 515 266 554 237.5 c 128,-1,8
 593 209 593 209 662 209 c 0,9,10
 764 209 764 209 846 281 c 128,-1,11
 928 353 928 353 950 463 c 2,12,-1
 958 504 l 1,13,-1
 772 504 l 2,0,1
872 1147 m 0,14,15
 1120 1147 1120 1147 1241 1065.5 c 128,-1,16
 1362 984 1362 984 1362 796 c 0,17,18
 1362 729 1362 729 1345 639 c 2,19,-1
 1221 0 l 1,20,-1
 860 0 l 1,21,-1
 892 166 l 1,22,23
 807 71 807 71 708.5 21 c 128,-1,24
 610 -29 610 -29 473 -29 c 0,25,26
 321 -29 321 -29 233 48.5 c 128,-1,27
 145 126 145 126 145 257 c 0,28,29
 145 291 145 291 153 336 c 0,30,31
 171 426 171 426 211.5 493 c 128,-1,32
 252 560 252 560 324.5 612 c 128,-1,33
 397 664 397 664 513.5 690.5 c 128,-1,34
 630 717 630 717 788 717 c 2,35,-1
 999 717 l 1,36,-1
 1005 745 l 2,37,38
 1009 769 1009 769 1009 781 c 0,39,40
 1009 843 1009 843 951.5 876 c 128,-1,41
 894 909 894 909 761 909 c 0,42,43
 534 909 534 909 345 817 c 1,44,-1
 398 1090 l 1,45,46
 642 1147 642 1147 872 1147 c 0,14,15
EndSplineSet
EndChar

StartChar: b
Encoding: 98 98 70
Width: 1466
Flags: W
HStem: -29 260<703.26 952.396> 0 21G<172 533.827> 887 260<916.215 1243> 1536 20G<470.118 832>
VStem: 1126 373<450.221 830.476>
DStem2: 166.363 -29 524.363 -29 0.190809 0.981627<97.8524 262.791 1071.78 1614.58>
LayerCount: 3
Fore
SplineSet
940 887 m 256xb8
 689 887 626 576 626 442 c 0
 626 316 680 231 813 231 c 256
 1063 231 1126 541 1126 678 c 0
 1126 803 1073 887 940 887 c 256xb8
1499 718 m 0
 1499 364 1258 -29 895 -29 c 0xb8
 714 -29 622 54 561 162 c 1
 530 0 l 1
 172 0 l 1x78
 474 1556 l 1
 832 1556 l 1
 716 956 l 1
 818 1063 942 1147 1124 1147 c 0
 1362 1147 1499 974 1499 718 c 0
EndSplineSet
Validated: 1
Layer: 2
SplineSet
940 887 m 256,0,1
 869 887 869 887 811.5 853 c 128,-1,2
 754 819 754 819 720.5 769 c 128,-1,3
 687 719 687 719 664.5 656 c 128,-1,4
 642 593 642 593 634 540 c 128,-1,5
 626 487 626 487 626 442 c 0,6,7
 626 343 626 343 671.5 287 c 128,-1,8
 717 231 717 231 813 231 c 0,9,10
 884 231 884 231 941 264.5 c 128,-1,11
 998 298 998 298 1031.5 348.5 c 128,-1,12
 1065 399 1065 399 1087.5 462 c 128,-1,13
 1110 525 1110 525 1118 578.5 c 128,-1,14
 1126 632 1126 632 1126 678 c 0,15,16
 1126 887 1126 887 940 887 c 256,0,1
1499 718 m 0,17,18
 1499 585 1499 585 1455 452 c 128,-1,19
 1411 319 1411 319 1334 212 c 128,-1,20
 1257 105 1257 105 1141.5 38 c 128,-1,21
 1026 -29 1026 -29 895 -29 c 0,22,23
 808 -29 808 -29 741.5 -2.5 c 128,-1,24
 675 24 675 24 634.5 63.5 c 128,-1,25
 594 103 594 103 561 162 c 1,26,-1
 530 0 l 1,27,-1
 172 0 l 1,28,-1
 474 1556 l 1,29,-1
 832 1556 l 1,30,-1
 716 956 l 1,31,32
 802 1046 802 1046 899.5 1096.5 c 128,-1,33
 997 1147 997 1147 1124 1147 c 0,34,35
 1300 1147 1300 1147 1399.5 1030 c 128,-1,36
 1499 913 1499 913 1499 718 c 0,17,18
EndSplineSet
EndChar

StartChar: c
Encoding: 99 99 71
Width: 1214
Flags: W
HStem: -29 256<656.866 1026.98> 891 256<769.034 1147.21>
VStem: 182 378<320.073 666.95>
LayerCount: 3
Fore
SplineSet
182 415 m 0
 182 676 342 1147 956 1147 c 0
 1094 1147 1205 1117 1288 1085 c 1
 1231 793 l 1
 1165 845 1077 891 951 891 c 0
 638 891 560 610 560 467 c 0
 560 314 652 227 822 227 c 0
 919 227 1031 254 1140 326 c 1
 1083 33 l 1
 988 0 865 -29 727 -29 c 0
 383 -29 182 128 182 415 c 0
EndSplineSet
Validated: 1
Layer: 2
SplineSet
182 415 m 0,0,1
 182 474 182 474 192.5 537.5 c 128,-1,2
 203 601 203 601 228.5 674 c 128,-1,3
 254 747 254 747 293 813 c 128,-1,4
 332 879 332 879 394 941 c 128,-1,5
 456 1003 456 1003 533.5 1048 c 128,-1,6
 611 1093 611 1093 720 1120 c 128,-1,7
 829 1147 829 1147 956 1147 c 0,8,9
 1127 1147 1127 1147 1288 1085 c 1,10,-1
 1231 793 l 1,11,12
 1107 891 1107 891 951 891 c 0,13,14
 862 891 862 891 791 860.5 c 128,-1,15
 720 830 720 830 678 783.5 c 128,-1,16
 636 737 636 737 608 677.5 c 128,-1,17
 580 618 580 618 570 566.5 c 128,-1,18
 560 515 560 515 560 467 c 0,19,20
 560 352 560 352 627.5 289.5 c 128,-1,21
 695 227 695 227 822 227 c 0,22,23
 990 227 990 227 1140 326 c 1,24,-1
 1083 33 l 1,25,26
 905 -29 905 -29 727 -29 c 0,27,28
 467 -29 467 -29 324.5 86 c 128,-1,29
 182 201 182 201 182 415 c 0,0,1
EndSplineSet
EndChar

StartChar: d
Encoding: 100 100 72
Width: 1466
Flags: W
HStem: -29 260<440.5 767.025> 0 21G<934 1297.88> 887 260<734.761 979.151> 1536 20G<1232.13 1596>
VStem: 185 374<291.941 666.205>
DStem2: 928.363 -29 1288.36 -29 0.190809 0.981627<98.234 194.481 1003.47 1614.58>
LayerCount: 3
Fore
SplineSet
185 398 m 0xb8
 185 751 422 1147 788 1147 c 0
 968 1147 1060 1062 1120 956 c 1
 1236 1556 l 1
 1596 1556 l 1
 1294 0 l 1
 934 0 l 1x78
 965 162 l 1
 866 56 742 -29 559 -29 c 0
 322 -29 185 143 185 398 c 0xb8
870 887 m 0
 621 887 559 575 559 439 c 0
 559 263 664 231 743 231 c 0xb8
 993 231 1056 541 1056 678 c 0
 1056 803 1003 887 870 887 c 0
EndSplineSet
Validated: 1
Layer: 2
SplineSet
185 398 m 0,0,1
 185 531 185 531 228.5 664 c 128,-1,2
 272 797 272 797 348.5 904.5 c 128,-1,3
 425 1012 425 1012 540.5 1079.5 c 128,-1,4
 656 1147 656 1147 788 1147 c 0,5,6
 874 1147 874 1147 940.5 1120 c 128,-1,7
 1007 1093 1007 1093 1047 1053.5 c 128,-1,8
 1087 1014 1087 1014 1120 956 c 1,9,-1
 1236 1556 l 1,10,-1
 1596 1556 l 1,11,-1
 1294 0 l 1,12,-1
 934 0 l 1,13,-1
 965 162 l 1,14,15
 787 -29 787 -29 559 -29 c 0,16,17
 384 -29 384 -29 284.5 87.5 c 128,-1,18
 185 204 185 204 185 398 c 0,0,1
870 887 m 0,19,20
 799 887 799 887 742.5 853 c 128,-1,21
 686 819 686 819 652.5 769 c 128,-1,22
 619 719 619 719 597 655.5 c 128,-1,23
 575 592 575 592 567 538.5 c 128,-1,24
 559 485 559 485 559 439 c 0,25,26
 559 376 559 376 576 332.5 c 128,-1,27
 593 289 593 289 622 268.5 c 128,-1,28
 651 248 651 248 680 239.5 c 128,-1,29
 709 231 709 231 743 231 c 0,30,31
 814 231 814 231 871 264.5 c 128,-1,32
 928 298 928 298 961.5 348.5 c 128,-1,33
 995 399 995 399 1017.5 462 c 128,-1,34
 1040 525 1040 525 1048 578.5 c 128,-1,35
 1056 632 1056 632 1056 678 c 0,36,37
 1056 887 1056 887 870 887 c 0,19,20
EndSplineSet
EndChar

StartChar: e
Encoding: 101 101 73
Width: 1389
Flags: W
HStem: -29 238<624.583 1071.98> 461 221<590 1059.86> 909 238<724.557 1005.34>
VStem: 182 359<287.083 459.772> 1060 354<682.963 860.152>
LayerCount: 3
Fore
SplineSet
182 412 m 0
 182 744 400 1147 932 1147 c 0
 1231 1147 1414 983 1414 706 c 0
 1414 662 1409 614 1399 563 c 2
 1380 461 l 1
 543 461 l 1
 542 449 541 437 541 424 c 0
 541 324 584 209 803 209 c 0
 993 209 1176 281 1304 344 c 1
 1250 68 l 1
 1110 19 926 -29 723 -29 c 0
 379 -29 182 125 182 412 c 0
1055 682 m 1
 1059 701 1060 720 1060 737 c 0
 1060 843 995 909 884 909 c 0
 737 909 636 820 590 682 c 1
 1055 682 l 1
EndSplineSet
Validated: 1
Layer: 2
SplineSet
182 412 m 0,0,1
 182 497 182 497 201 582 c 128,-1,2
 220 667 220 667 258 750 c 128,-1,3
 296 833 296 833 358 904 c 128,-1,4
 420 975 420 975 500.5 1030 c 128,-1,5
 581 1085 581 1085 692 1116 c 128,-1,6
 803 1147 803 1147 932 1147 c 0,7,8
 1157 1147 1157 1147 1285.5 1030 c 128,-1,9
 1414 913 1414 913 1414 706 c 0,10,11
 1414 640 1414 640 1399 563 c 2,12,-1
 1380 461 l 1,13,-1
 543 461 l 1,14,15
 541 437 541 437 541 424 c 0,16,17
 541 209 541 209 803 209 c 0,18,19
 1030 209 1030 209 1304 344 c 1,20,-1
 1250 68 l 1,21,22
 973 -29 973 -29 723 -29 c 0,23,24
 464 -29 464 -29 323 84.5 c 128,-1,25
 182 198 182 198 182 412 c 0,0,1
1055 682 m 1,26,27
 1060 706 1060 706 1060 737 c 0,28,29
 1060 817 1060 817 1013.5 863 c 128,-1,30
 967 909 967 909 884 909 c 0,31,32
 776 909 776 909 700.5 848.5 c 128,-1,33
 625 788 625 788 590 682 c 1,34,-1
 1055 682 l 1,26,27
EndSplineSet
EndChar

StartChar: f
Encoding: 102 102 74
Width: 891
Flags: W
HStem: 0 21G<217 578.889> 864 256<257 385 793 1049> 1321 235<841.754 1166>
DStem2: 217 0 575 0 0.190809 0.981627<68.3096 880.182 1209.33 1402.9>
LayerCount: 3
Fore
SplineSet
450 1198 m 2
 500 1456 671 1556 937 1556 c 2
 1211 1556 l 1
 1166 1321 l 1
 968 1321 l 2
 866 1321 825 1287 808 1198 c 2
 793 1120 l 1
 1099 1120 l 1
 1049 864 l 1
 743 864 l 1
 575 0 l 1
 217 0 l 1
 385 864 l 1
 207 864 l 1
 257 1120 l 1
 435 1120 l 1
 450 1198 l 2
EndSplineSet
Validated: 1
Layer: 2
SplineSet
450 1198 m 2,0,1
 486 1386 486 1386 608.5 1471 c 128,-1,2
 731 1556 731 1556 937 1556 c 2,3,-1
 1211 1556 l 1,4,-1
 1166 1321 l 1,5,-1
 968 1321 l 2,6,7
 892 1321 892 1321 856.5 1293 c 128,-1,8
 821 1265 821 1265 808 1198 c 2,9,-1
 793 1120 l 1,10,-1
 1099 1120 l 1,11,-1
 1049 864 l 1,12,-1
 743 864 l 1,13,-1
 575 0 l 1,14,-1
 217 0 l 1,15,-1
 385 864 l 1,16,-1
 207 864 l 1,17,-1
 257 1120 l 1,18,-1
 435 1120 l 1,19,-1
 450 1198 l 2,0,1
EndSplineSet
EndChar

StartChar: g
Encoding: 103 103 75
Width: 1466
Flags: W
HStem: -442 237<327.662 776.045> 0 260<445.5 772.148> 887 258<724.354 980.738> 1100 20G<1148.02 1512>
VStem: 188 374<319.501 682.201>
LayerCount: 3
Fore
SplineSet
188 425 m 0xd8
 188 775 434 1145 788 1145 c 0xe8
 970 1145 1060 1061 1119 954 c 1
 1152 1120 l 1
 1512 1120 l 1
 1316 113 l 2
 1242 -269 950 -442 543 -442 c 0
 423 -442 298 -428 156 -377 c 1
 210 -98 l 1
 288 -149 401 -205 554 -205 c 0
 780 -205 912 -112 956 113 c 2
 971 190 l 1
 869 83 747 0 565 0 c 0
 326 0 188 175 188 425 c 0xd8
749 260 m 0
 995 260 1056 555 1056 679 c 0
 1056 804 1000 887 870 887 c 0
 624 887 562 590 562 462 c 0
 562 289 670 260 749 260 c 0
EndSplineSet
Validated: 1
Layer: 2
SplineSet
188 425 m 0,0,1
 188 556 188 556 232.5 685 c 128,-1,2
 277 814 277 814 354.5 916 c 128,-1,3
 432 1018 432 1018 546 1081.5 c 128,-1,4
 660 1145 660 1145 788 1145 c 0,5,6
 915 1145 915 1145 992 1094.5 c 128,-1,7
 1069 1044 1069 1044 1119 954 c 1,8,-1
 1152 1120 l 1,9,-1
 1512 1120 l 1,10,-1
 1316 113 l 2,11,12
 1262 -166 1262 -166 1060 -304 c 128,-1,13
 858 -442 858 -442 543 -442 c 0,14,15
 337 -442 337 -442 156 -377 c 1,16,-1
 210 -98 l 1,17,18
 374 -205 374 -205 554 -205 c 0,19,20
 726 -205 726 -205 824.5 -129 c 128,-1,21
 923 -53 923 -53 956 113 c 2,22,-1
 971 190 l 1,23,24
 885 100 885 100 788.5 50 c 128,-1,25
 692 0 692 0 565 0 c 0,26,27
 389 0 389 0 288.5 117 c 128,-1,28
 188 234 188 234 188 425 c 0,0,1
749 260 m 0,29,30
 819 260 819 260 875 292 c 128,-1,31
 931 324 931 324 964 371.5 c 128,-1,32
 997 419 997 419 1018.5 478.5 c 128,-1,33
 1040 538 1040 538 1048 587.5 c 128,-1,34
 1056 637 1056 637 1056 679 c 0,35,36
 1056 777 1056 777 1010 832 c 128,-1,37
 964 887 964 887 870 887 c 0,38,39
 800 887 800 887 744 854.5 c 128,-1,40
 688 822 688 822 655 774.5 c 128,-1,41
 622 727 622 727 600 666.5 c 128,-1,42
 578 606 578 606 570 555.5 c 128,-1,43
 562 505 562 505 562 462 c 0,44,45
 562 401 562 401 579.5 358 c 128,-1,46
 597 315 597 315 627 295.5 c 128,-1,47
 657 276 657 276 686 268 c 128,-1,48
 715 260 715 260 749 260 c 0,29,30
EndSplineSet
EndChar

StartChar: h
Encoding: 104 104 76
Width: 1458
Flags: W
HStem: 0 21G<172 533.884 938 1301.9> 877 270<922.65 1236.5> 1536 20G<470.118 832>
VStem: 1070 377<539.82 852.077>
DStem2: 172 0 530 0 0.190809 0.981627<68.3096 851.378 1042.24 1585.04> 938 0 1298 0 0.190809 0.981627<68.6912 747.972>
LayerCount: 3
Fore
SplineSet
1126 1147 m 0
 1347 1147 1447 1029 1447 831 c 0
 1447 786 1441 736 1431 682 c 2
 1298 0 l 1
 938 0 l 1
 1039 520 l 2
 1056 607 1070 682 1070 739 c 0
 1070 827 1038 877 940 877 c 0
 775 877 673 736 637 551 c 2
 530 0 l 1
 172 0 l 1
 474 1556 l 1
 832 1556 l 1
 716 956 l 1
 847 1084 977 1147 1126 1147 c 0
EndSplineSet
Validated: 1
Layer: 2
SplineSet
1126 1147 m 0,0,1
 1288 1147 1288 1147 1367.5 1065 c 128,-1,2
 1447 983 1447 983 1447 831 c 0,3,4
 1447 768 1447 768 1431 682 c 2,5,-1
 1298 0 l 1,6,-1
 938 0 l 1,7,-1
 1039 520 l 2,8,9
 1070 679 1070 679 1070 739 c 0,10,11
 1070 808 1070 808 1040.5 842.5 c 128,-1,12
 1011 877 1011 877 940 877 c 0,13,14
 821 877 821 877 743 787 c 128,-1,15
 665 697 665 697 637 551 c 2,16,-1
 530 0 l 1,17,-1
 172 0 l 1,18,-1
 474 1556 l 1,19,-1
 832 1556 l 1,20,-1
 716 956 l 1,21,22
 911 1147 911 1147 1126 1147 c 0,0,1
EndSplineSet
EndChar

StartChar: i
Encoding: 105 105 77
Width: 702
Flags: W
HStem: 0 21G<172 533.893> 1100 20G<386.107 748> 1264 292<474 776>
VStem: 172 660
DStem2: 172 0 530 0 0.190809 0.981627<68.3096 1141.02 1356.03 1585.04>
LayerCount: 3
Fore
SplineSet
390 1120 m 1
 748 1120 l 1
 530 0 l 1
 172 0 l 1
 390 1120 l 1
474 1556 m 1
 832 1556 l 1
 776 1264 l 1
 418 1264 l 1
 474 1556 l 1
EndSplineSet
Validated: 1
Layer: 2
SplineSet
390 1120 m 1,0,-1
 748 1120 l 1,1,-1
 530 0 l 1,2,-1
 172 0 l 1,3,-1
 390 1120 l 1,0,-1
474 1556 m 1,4,-1
 832 1556 l 1,5,-1
 776 1264 l 1,6,-1
 418 1264 l 1,7,-1
 474 1556 l 1,4,-1
EndSplineSet
EndChar

StartChar: j
Encoding: 106 106 78
Width: 702
Flags: W
HStem: -442 235<-108 97.4705> 1100 20G<386.109 748> 1264 292<474 776>
DStem2: 86.1963 -442 444.196 -442 0.190809 0.981627<281.811 1591.27 1806.28 2035.29>
LayerCount: 3
Fore
SplineSet
-46 -207 m 2
 92 -207 142 -153 176 20 c 2
 390 1120 l 1
 748 1120 l 1
 534 20 l 2
 477 -272 304 -442 23 -442 c 2
 -154 -442 l 1
 -108 -207 l 1
 -46 -207 l 2
474 1556 m 1
 832 1556 l 1
 776 1264 l 1
 418 1264 l 1
 474 1556 l 1
EndSplineSet
Validated: 1
Layer: 2
SplineSet
-46 -207 m 2,0,1
 57 -207 57 -207 103.5 -158.5 c 128,-1,2
 150 -110 150 -110 176 20 c 2,3,-1
 390 1120 l 1,4,-1
 748 1120 l 1,5,-1
 534 20 l 2,6,7
 491 -202 491 -202 361 -322 c 128,-1,8
 231 -442 231 -442 23 -442 c 2,9,-1
 -154 -442 l 1,10,-1
 -108 -207 l 1,11,-1
 -46 -207 l 2,0,1
474 1556 m 1,12,-1
 832 1556 l 1,13,-1
 776 1264 l 1,14,-1
 418 1264 l 1,15,-1
 474 1556 l 1,12,-1
EndSplineSet
EndChar

StartChar: k
Encoding: 107 107 79
Width: 1362
Flags: W
HStem: 0 21G<172 533.897 952.182 1401> 1100 20G<1136.06 1576> 1536 20G<470.118 832>
DStem2: 172 0 530 0 0.190809 0.981627<68.3096 544.093 790.615 1585.04> 929 606 621 467 0.614481 -0.788931<0 501.443>
LayerCount: 3
Fore
SplineSet
474 1556 m 1
 832 1556 l 1
 668 709 l 1
 1160 1120 l 1
 1576 1120 l 1
 929 606 l 1
 1401 0 l 1
 967 0 l 1
 621 467 l 1
 530 0 l 1
 172 0 l 1
 474 1556 l 1
EndSplineSet
Validated: 1
Layer: 2
SplineSet
474 1556 m 1,0,-1
 832 1556 l 1,1,-1
 668 709 l 1,2,-1
 1160 1120 l 1,3,-1
 1576 1120 l 1,4,-1
 929 606 l 1,5,-1
 1401 0 l 1,6,-1
 967 0 l 1,7,-1
 621 467 l 1,8,-1
 530 0 l 1,9,-1
 172 0 l 1,10,-1
 474 1556 l 1,0,-1
EndSplineSet
EndChar

StartChar: l
Encoding: 108 108 80
Width: 702
Flags: W
HStem: 0 21G<172 533.882> 1536 20G<470.118 832>
VStem: 172 660
DStem2: 172 0 530 0 0.190809 0.981627<68.3096 1585.04>
LayerCount: 3
Fore
SplineSet
474 1556 m 1
 832 1556 l 1
 530 0 l 1
 172 0 l 1
 474 1556 l 1
EndSplineSet
Validated: 1
Layer: 2
SplineSet
474 1556 m 1,0,-1
 832 1556 l 1,1,-1
 530 0 l 1,2,-1
 172 0 l 1,3,-1
 474 1556 l 1,0,-1
EndSplineSet
EndChar

StartChar: m
Encoding: 109 109 81
Width: 2134
Flags: W
HStem: 0 21G<170 533.884 891 1254.89 1612 1975.9> 877 270<904.639 1176.5 1605.55 1910> 1100 20G<384.107 748>
VStem: 1744 377<540.922 860.613>
DStem2: 170 0 530 0 0.190809 0.981627<68.6912 866.915 1042.62 1141.02> 891 0 1251 0 0.190809 0.981627<68.6912 767.988> 1612 0 1972 0 0.190809 0.981627<68.6912 750.723>
LayerCount: 3
Fore
SplineSet
1093 1147 m 0xd0
 1260 1147 1359 1059 1392 934 c 1
 1487 1046 1624 1147 1800 1147 c 0
 2020 1147 2121 1030 2121 832 c 0
 2121 786 2116 736 2105 682 c 2
 1972 0 l 1
 1612 0 l 1
 1726 584 l 2
 1738 649 1744 701 1744 741 c 0
 1744 852 1701 877 1636 877 c 0
 1550 877 1412 828 1358 550 c 2
 1251 0 l 1
 891 0 l 1
 1005 584 l 2
 1019 657 1027 714 1027 758 c 0
 1027 844 995 877 915 877 c 0xd0
 757 877 672 729 637 551 c 2
 530 0 l 1
 170 0 l 1
 388 1120 l 1
 748 1120 l 1xb0
 716 956 l 1
 869 1129 1016 1147 1093 1147 c 0xd0
EndSplineSet
Validated: 1
Layer: 2
SplineSet
1093 1147 m 0,0,1
 1214 1147 1214 1147 1290 1089.5 c 128,-1,2
 1366 1032 1366 1032 1392 934 c 1,3,4
 1573 1147 1573 1147 1800 1147 c 0,5,6
 1962 1147 1962 1147 2041.5 1065.5 c 128,-1,7
 2121 984 2121 984 2121 832 c 0,8,9
 2121 761 2121 761 2105 682 c 2,10,-1
 1972 0 l 1,11,-1
 1612 0 l 1,12,-1
 1726 584 l 2,13,14
 1744 681 1744 681 1744 741 c 0,15,16
 1744 819 1744 819 1717 848 c 128,-1,17
 1690 877 1690 877 1636 877 c 0,18,19
 1607 877 1607 877 1579 870 c 128,-1,20
 1551 863 1551 863 1517 841.5 c 128,-1,21
 1483 820 1483 820 1454.5 785.5 c 128,-1,22
 1426 751 1426 751 1399.5 690.5 c 128,-1,23
 1373 630 1373 630 1358 550 c 2,24,-1
 1251 0 l 1,25,-1
 891 0 l 1,26,-1
 1005 584 l 2,27,28
 1027 699 1027 699 1027 758 c 0,29,30
 1027 822 1027 822 1001 849.5 c 128,-1,31
 975 877 975 877 915 877 c 0,32,33
 804 877 804 877 735 787 c 128,-1,34
 666 697 666 697 637 551 c 2,35,-1
 530 0 l 1,36,-1
 170 0 l 1,37,-1
 388 1120 l 1,38,-1
 748 1120 l 1,39,-1
 716 956 l 1,40,41
 885 1147 885 1147 1093 1147 c 0,0,1
EndSplineSet
EndChar

StartChar: n
Encoding: 110 110 82
Width: 1458
Flags: W
HStem: 0 21G<172 533.884 938 1301.9> 877 270<922.65 1236.5> 1100 20G<386.107 748>
VStem: 1070 377<538.872 852.246>
DStem2: 172 0 530 0 0.190809 0.981627<68.3096 851.378 1042.24 1141.02> 938 0 1298 0 0.190809 0.981627<68.6912 748.955>
LayerCount: 3
Fore
SplineSet
1126 1147 m 0xd0
 1347 1147 1447 1029 1447 831 c 0
 1447 786 1441 736 1431 682 c 2
 1298 0 l 1
 938 0 l 1
 1039 522 l 2
 1056 610 1070 683 1070 740 c 0
 1070 828 1038 877 940 877 c 0xd0
 775 877 673 736 637 551 c 2
 530 0 l 1
 172 0 l 1
 390 1120 l 1
 748 1120 l 1xb0
 716 956 l 1
 847 1084 977 1147 1126 1147 c 0xd0
EndSplineSet
Validated: 1
Layer: 2
SplineSet
1126 1147 m 0,0,1
 1288 1147 1288 1147 1367.5 1065 c 128,-1,2
 1447 983 1447 983 1447 831 c 0,3,4
 1447 768 1447 768 1431 682 c 2,5,-1
 1298 0 l 1,6,-1
 938 0 l 1,7,-1
 1039 522 l 2,8,9
 1070 682 1070 682 1070 740 c 0,10,11
 1070 809 1070 809 1040.5 843 c 128,-1,12
 1011 877 1011 877 940 877 c 0,13,14
 821 877 821 877 743 787 c 128,-1,15
 665 697 665 697 637 551 c 2,16,-1
 530 0 l 1,17,-1
 172 0 l 1,18,-1
 390 1120 l 1,19,-1
 748 1120 l 1,20,-1
 716 956 l 1,21,22
 911 1147 911 1147 1126 1147 c 0,0,1
EndSplineSet
EndChar

StartChar: o
Encoding: 111 111 83
Width: 1407
Flags: W
HStem: -29 256<620.631 884.435> 891 256<736.924 1005.45>
VStem: 182 375<287.646 672.232> 1068 375<451.66 830.654>
LayerCount: 3
Fore
SplineSet
749 227 m 0
 1004 227 1068 542 1068 677 c 0
 1068 805 1013 891 878 891 c 0
 622 891 557 579 557 441 c 0
 557 313 612 227 749 227 c 0
182 412 m 0
 182 720 377 1147 928 1147 c 0
 1259 1147 1443 987 1443 707 c 0
 1443 457 1294 -29 699 -29 c 4
 367 -29 182 131 182 412 c 0
EndSplineSet
Validated: 1
Layer: 2
SplineSet
749 227 m 0,0,1
 810 227 810 227 861 250.5 c 128,-1,2
 912 274 912 274 945.5 314 c 128,-1,3
 979 354 979 354 1004 401 c 128,-1,4
 1029 448 1029 448 1042.5 500.5 c 128,-1,5
 1056 553 1056 553 1062 596.5 c 128,-1,6
 1068 640 1068 640 1068 677 c 0,7,8
 1068 778 1068 778 1021.5 834.5 c 128,-1,9
 975 891 975 891 878 891 c 0,10,11
 805 891 805 891 746.5 857 c 128,-1,12
 688 823 688 823 654 772.5 c 128,-1,13
 620 722 620 722 597 658.5 c 128,-1,14
 574 595 574 595 565.5 541 c 128,-1,15
 557 487 557 487 557 441 c 0,16,17
 557 340 557 340 603.5 283.5 c 128,-1,18
 650 227 650 227 749 227 c 0,0,1
182 412 m 0,19,20
 182 480 182 480 194 549.5 c 128,-1,21
 206 619 206 619 233.5 692 c 128,-1,22
 261 765 261 765 301.5 830.5 c 128,-1,23
 342 896 342 896 403 954.5 c 128,-1,24
 464 1013 464 1013 538.5 1055.5 c 128,-1,25
 613 1098 613 1098 713 1122.5 c 128,-1,26
 813 1147 813 1147 928 1147 c 0,27,28
 1176 1147 1176 1147 1309.5 1032.5 c 128,-1,29
 1443 918 1443 918 1443 707 c 0,30,31
 1443 650 1443 650 1433.5 587.5 c 128,-1,32
 1424 525 1424 525 1399.5 452 c 128,-1,33
 1375 379 1375 379 1338 312 c 128,-1,34
 1301 245 1301 245 1241.5 182 c 128,-1,35
 1182 119 1182 119 1107 73 c 128,-1,36
 1032 27 1032 27 927 -1 c 128,-1,37
 822 -29 822 -29 699 -29 c 0,38,39
 450 -29 450 -29 316 86 c 128,-1,40
 182 201 182 201 182 412 c 0,19,20
EndSplineSet
EndChar

StartChar: p
Encoding: 112 112 84
Width: 1466
Flags: W
HStem: -426 21G<89 450.878> -29 260<703.26 952.396> 887 260<916.215 1243> 1100 20G<386.106 748>
VStem: 1126 373<450.221 830.476>
DStem2: 89 -426 447 -426 0.190809 0.981627<68.3096 667.259 1476.25 1575.03>
LayerCount: 3
Fore
SplineSet
1499 718 m 0xe8
 1499 364 1258 -29 895 -29 c 0
 714 -29 622 54 561 162 c 1
 447 -426 l 1
 89 -426 l 1
 390 1120 l 1
 748 1120 l 1xd8
 716 956 l 1
 818 1063 942 1147 1124 1147 c 0
 1362 1147 1499 974 1499 718 c 0xe8
813 231 m 256
 1063 231 1126 541 1126 678 c 0
 1126 803 1073 887 940 887 c 256xe8
 689 887 626 576 626 442 c 0
 626 316 680 231 813 231 c 256
EndSplineSet
Validated: 1
Layer: 2
SplineSet
1499 718 m 0,0,1
 1499 585 1499 585 1455 452 c 128,-1,2
 1411 319 1411 319 1334 212 c 128,-1,3
 1257 105 1257 105 1141.5 38 c 128,-1,4
 1026 -29 1026 -29 895 -29 c 0,5,6
 808 -29 808 -29 741.5 -2.5 c 128,-1,7
 675 24 675 24 634.5 63.5 c 128,-1,8
 594 103 594 103 561 162 c 1,9,-1
 447 -426 l 1,10,-1
 89 -426 l 1,11,-1
 390 1120 l 1,12,-1
 748 1120 l 1,13,-1
 716 956 l 1,14,15
 802 1046 802 1046 899.5 1096.5 c 128,-1,16
 997 1147 997 1147 1124 1147 c 0,17,18
 1300 1147 1300 1147 1399.5 1030 c 128,-1,19
 1499 913 1499 913 1499 718 c 0,0,1
813 231 m 256,20,21
 884 231 884 231 941 264.5 c 128,-1,22
 998 298 998 298 1031.5 348.5 c 128,-1,23
 1065 399 1065 399 1087.5 462 c 128,-1,24
 1110 525 1110 525 1118 578.5 c 128,-1,25
 1126 632 1126 632 1126 678 c 0,26,27
 1126 887 1126 887 940 887 c 0,28,29
 869 887 869 887 811.5 853 c 128,-1,30
 754 819 754 819 720.5 769 c 128,-1,31
 687 719 687 719 664.5 656 c 128,-1,32
 642 593 642 593 634 540 c 128,-1,33
 626 487 626 487 626 442 c 0,34,35
 626 343 626 343 671.5 287 c 128,-1,36
 717 231 717 231 813 231 c 256,20,21
EndSplineSet
EndChar

StartChar: q
Encoding: 113 113 85
Width: 1466
Flags: W
HStem: -426 21G<851 1214.89> -29 260<440.5 767.025> 887 258<734.761 979.524> 1100 20G<1148.02 1512>
VStem: 185 374<291.941 666.259>
DStem2: 851 -426 1211 -426 0.190809 0.981627<68.6912 598.949 1405.78 1575.03>
LayerCount: 3
Fore
SplineSet
743 231 m 0xe8
 993 231 1056 541 1056 678 c 0
 1056 803 1003 887 870 887 c 0
 621 887 559 575 559 439 c 0
 559 263 664 231 743 231 c 0xe8
185 398 m 0
 185 752 422 1145 788 1145 c 0xe8
 970 1145 1060 1061 1119 954 c 1
 1152 1120 l 1
 1512 1120 l 1xd8
 1211 -426 l 1
 851 -426 l 1
 965 162 l 1
 866 56 742 -29 559 -29 c 0
 322 -29 185 143 185 398 c 0
EndSplineSet
Validated: 1
Layer: 2
SplineSet
743 231 m 0,0,1
 814 231 814 231 871 264.5 c 128,-1,2
 928 298 928 298 961.5 348.5 c 128,-1,3
 995 399 995 399 1017.5 462 c 128,-1,4
 1040 525 1040 525 1048 578.5 c 128,-1,5
 1056 632 1056 632 1056 678 c 0,6,7
 1056 887 1056 887 870 887 c 0,8,9
 799 887 799 887 742.5 853 c 128,-1,10
 686 819 686 819 652.5 769 c 128,-1,11
 619 719 619 719 597 655.5 c 128,-1,12
 575 592 575 592 567 538.5 c 128,-1,13
 559 485 559 485 559 439 c 0,14,15
 559 376 559 376 576 332.5 c 128,-1,16
 593 289 593 289 622 268.5 c 128,-1,17
 651 248 651 248 680 239.5 c 128,-1,18
 709 231 709 231 743 231 c 0,0,1
185 398 m 0,19,20
 185 532 185 532 228.5 664.5 c 128,-1,21
 272 797 272 797 348.5 904 c 128,-1,22
 425 1011 425 1011 540.5 1078 c 128,-1,23
 656 1145 656 1145 788 1145 c 0,24,25
 915 1145 915 1145 992 1094.5 c 128,-1,26
 1069 1044 1069 1044 1119 954 c 1,27,-1
 1152 1120 l 1,28,-1
 1512 1120 l 1,29,-1
 1211 -426 l 1,30,-1
 851 -426 l 1,31,-1
 965 162 l 1,32,33
 787 -29 787 -29 559 -29 c 0,34,35
 384 -29 384 -29 284.5 87.5 c 128,-1,36
 185 204 185 204 185 398 c 0,19,20
EndSplineSet
EndChar

StartChar: r
Encoding: 114 114 86
Width: 1010
Flags: W
HStem: 0 21G<172 533.876> 858 289<915.416 1167.99> 1100 20G<386.107 748>
DStem2: 172 0 530 0 0.190809 0.981627<68.3096 812.312 1021.84 1141.02>
LayerCount: 3
Fore
SplineSet
712 936 m 1xa0
 812 1058 933 1147 1126 1147 c 0
 1146 1147 1166 1146 1224 1139 c 1
 1161 815 l 1
 1100 847 1040 858 984 858 c 0xc0
 789 858 671 724 630 516 c 2
 530 0 l 1
 172 0 l 1
 390 1120 l 1
 748 1120 l 1
 712 936 l 1xa0
EndSplineSet
Validated: 1
Layer: 2
SplineSet
712 936 m 1,0,1
 795 1037 795 1037 893 1092 c 128,-1,2
 991 1147 991 1147 1126 1147 c 0,3,4
 1158 1147 1158 1147 1224 1139 c 1,5,-1
 1161 815 l 1,6,7
 1079 858 1079 858 984 858 c 0,8,9
 841 858 841 858 751.5 767.5 c 128,-1,10
 662 677 662 677 630 516 c 2,11,-1
 530 0 l 1,12,-1
 172 0 l 1,13,-1
 390 1120 l 1,14,-1
 748 1120 l 1,15,-1
 712 936 l 1,0,1
EndSplineSet
EndChar

StartChar: s
Encoding: 115 115 87
Width: 1219
Flags: W
HStem: -29 238<322.336 791.701> 909 238<619.252 1068.37>
VStem: 252 324<620 864.852> 847 350<257.628 505>
LayerCount: 3
Fore
SplineSet
612 209 m 0
 815 209 847 291 847 346 c 0
 847 395 805 417 684 432 c 2
 623 440 l 2
 392 470 252 530 252 710 c 0
 252 978 429 1147 825 1147 c 0
 914 1147 1051 1139 1258 1085 c 1
 1205 813 l 1
 1104 859 959 909 800 909 c 0
 609 909 576 837 576 789 c 0
 576 740 624 721 731 705 c 2
 792 696 l 2
 1094 651 1197 581 1197 429 c 0
 1197 246 1109 -29 590 -29 c 0
 401 -29 239 9 131 41 c 1
 184 313 l 1
 295 253 436 209 612 209 c 0
EndSplineSet
Validated: 1
Layer: 2
SplineSet
612 209 m 0,0,1
 670 209 670 209 714 218 c 128,-1,2
 758 227 758 227 782.5 241 c 128,-1,3
 807 255 807 255 822.5 274.5 c 128,-1,4
 838 294 838 294 842.5 310.5 c 128,-1,5
 847 327 847 327 847 346 c 0,6,7
 847 383 847 383 811 402 c 128,-1,8
 775 421 775 421 684 432 c 2,9,-1
 623 440 l 2,10,11
 435 464 435 464 343.5 523.5 c 128,-1,12
 252 583 252 583 252 710 c 0,13,14
 252 917 252 917 394 1032 c 128,-1,15
 536 1147 536 1147 825 1147 c 0,16,17
 1020 1147 1020 1147 1258 1085 c 1,18,-1
 1205 813 l 1,19,20
 994 909 994 909 800 909 c 0,21,22
 673 909 673 909 624.5 873 c 128,-1,23
 576 837 576 837 576 789 c 0,24,25
 576 754 576 754 611.5 736 c 128,-1,26
 647 718 647 718 731 705 c 2,27,-1
 792 696 l 2,28,29
 1018 662 1018 662 1107.5 602.5 c 128,-1,30
 1197 543 1197 543 1197 429 c 0,31,32
 1197 367 1197 367 1184.5 310.5 c 128,-1,33
 1172 254 1172 254 1132 189.5 c 128,-1,34
 1092 125 1092 125 1028.5 79 c 128,-1,35
 965 33 965 33 852 2 c 128,-1,36
 739 -29 739 -29 590 -29 c 0,37,38
 367 -29 367 -29 131 41 c 1,39,-1
 184 313 l 1,40,41
 376 209 376 209 612 209 c 0,0,1
EndSplineSet
EndChar

StartChar: t
Encoding: 116 116 88
Width: 979
Flags: W
HStem: 0 256<639.52 901> 864 256<245 373 781 1100>
VStem: 265 368<159 537.438>
DStem2: 205.386 0 563.386 0 0.190809 0.981627<413.093 880.108 1209.25 1464.93>
LayerCount: 3
Fore
SplineSet
594 0 m 2
 369 0 265 69 265 249 c 0
 265 290 271 336 281 389 c 2
 373 864 l 1
 195 864 l 1
 245 1120 l 1
 423 1120 l 1
 485 1438 l 1
 843 1438 l 1
 781 1120 l 1
 1150 1120 l 1
 1100 864 l 1
 731 864 l 1
 639 389 l 2
 635 369 633 352 633 337 c 0
 633 275 671 256 767 256 c 2
 951 256 l 1
 901 0 l 1
 594 0 l 2
EndSplineSet
Validated: 1
Layer: 2
SplineSet
594 0 m 2,0,1
 423 0 423 0 344 58 c 128,-1,2
 265 116 265 116 265 249 c 0,3,4
 265 304 265 304 281 389 c 2,5,-1
 373 864 l 1,6,-1
 195 864 l 1,7,-1
 245 1120 l 1,8,-1
 423 1120 l 1,9,-1
 485 1438 l 1,10,-1
 843 1438 l 1,11,-1
 781 1120 l 1,12,-1
 1150 1120 l 1,13,-1
 1100 864 l 1,14,-1
 731 864 l 1,15,-1
 639 389 l 2,16,17
 633 359 633 359 633 337 c 0,18,19
 633 291 633 291 663.5 273.5 c 128,-1,20
 694 256 694 256 767 256 c 2,21,-1
 951 256 l 1,22,-1
 901 0 l 1,23,-1
 594 0 l 2,0,1
EndSplineSet
EndChar

StartChar: u
Encoding: 117 117 89
Width: 1458
Flags: W
HStem: -29 271<440.5 753.043> 0 21G<928 1289.89> 1100 20G<374.111 738 1142.09 1504>
VStem: 229 381<267.758 579.254>
DStem2: 154.613 -29 514.512 -29 0.190809 0.981627<507.926 1170.51> 922.363 -29 1280.36 -29 0.190809 0.981627<97.8524 194.481 385.738 1170.56>
LayerCount: 3
Fore
SplineSet
551 -29 m 0xb0
 330 -29 229 88 229 286 c 0
 229 332 235 382 245 436 c 2
 378 1120 l 1
 738 1120 l 1
 636 596 l 2
 623 530 610 459 610 397 c 0
 610 309 638 242 735 242 c 0xb0
 900 242 1002 382 1038 567 c 2
 1146 1120 l 1
 1504 1120 l 1
 1286 0 l 1
 928 0 l 1x70
 959 162 l 1
 830 35 699 -29 551 -29 c 0xb0
EndSplineSet
Validated: 1
Layer: 2
SplineSet
551 -29 m 0,0,1
 389 -29 389 -29 309 52.5 c 128,-1,2
 229 134 229 134 229 286 c 0,3,4
 229 350 229 350 245 436 c 2,5,-1
 378 1120 l 1,6,-1
 738 1120 l 1,7,-1
 636 596 l 2,8,9
 610 464 610 464 610 397 c 0,10,11
 610 242 610 242 735 242 c 0,12,13
 854 242 854 242 932 331.5 c 128,-1,14
 1010 421 1010 421 1038 567 c 2,15,-1
 1146 1120 l 1,16,-1
 1504 1120 l 1,17,-1
 1286 0 l 1,18,-1
 928 0 l 1,19,-1
 959 162 l 1,20,21
 765 -29 765 -29 551 -29 c 0,0,1
EndSplineSet
EndChar

StartChar: v
Encoding: 118 118 90
Width: 1335
Flags: W
HStem: 0 21G<467.036 875.768> 1100 20G<249 610.307 1152.91 1523>
DStem2: 607 1120 249 1120 0.194432 -0.980916<0 784.116> 735 346 864 0 0.507121 0.861875<0 884.646>
LayerCount: 3
Fore
SplineSet
249 1120 m 1
 607 1120 l 1
 735 346 l 1
 1164 1120 l 1
 1523 1120 l 1
 864 0 l 1
 471 0 l 1
 249 1120 l 1
EndSplineSet
Validated: 1
Layer: 2
SplineSet
249 1120 m 1,0,-1
 607 1120 l 1,1,-1
 735 346 l 1,2,-1
 1164 1120 l 1,3,-1
 1523 1120 l 1,4,-1
 864 0 l 1,5,-1
 471 0 l 1,6,-1
 249 1120 l 1,0,-1
EndSplineSet
EndChar

StartChar: w
Encoding: 119 119 91
Width: 1892
Flags: W
HStem: 0 21G<365.625 766.779 1133.99 1535.16> 1100 20G<290 638.984 1006.22 1315.02 1682.15 2039>
VStem: 290 348<911.476 1120>
DStem2: 676 348 758 0 0.402063 0.915612<0 555.255> 1353 356 1526 0 0.416431 0.909167<0 835.358>
LayerCount: 3
Fore
SplineSet
290 1120 m 1
 638 1120 l 1
 676 348 l 1
 1015 1120 l 1
 1314 1120 l 1
 1353 356 l 1
 1691 1120 l 1
 2039 1120 l 1
 1526 0 l 1
 1135 0 l 1
 1096 770 l 1
 758 0 l 1
 367 0 l 1
 290 1120 l 1
EndSplineSet
Validated: 1
Layer: 2
SplineSet
290 1120 m 1,0,-1
 638 1120 l 1,1,-1
 676 348 l 1,2,-1
 1015 1120 l 1,3,-1
 1314 1120 l 1,4,-1
 1353 356 l 1,5,-1
 1691 1120 l 1,6,-1
 2039 1120 l 1,7,-1
 1526 0 l 1,8,-1
 1135 0 l 1,9,-1
 1096 770 l 1,10,-1
 758 0 l 1,11,-1
 367 0 l 1,12,-1
 290 1120 l 1,0,-1
EndSplineSet
EndChar

StartChar: x
Encoding: 120 120 92
Width: 1321
Flags: W
HStem: 0 21G<31 427.966 900.661 1290> 1100 20G<269 657.88 1091.11 1488>
DStem2: 31 0 410 0 0.693469 0.720487<262.825 262.825 1109.34 1554.5>
LayerCount: 3
Fore
SplineSet
566 573 m 1
 269 1120 l 1
 648 1120 l 1
 812 788 l 1
 1109 1120 l 1
 1488 1120 l 1
 978 575 l 1
 1290 0 l 1
 911 0 l 1
 728 354 l 1
 410 0 l 1
 31 0 l 1
 566 573 l 1
EndSplineSet
Validated: 1
Layer: 2
SplineSet
566 573 m 1,0,-1
 269 1120 l 1,1,-1
 648 1120 l 1,2,-1
 812 788 l 1,3,-1
 1109 1120 l 1,4,-1
 1488 1120 l 1,5,-1
 978 575 l 1,6,-1
 1290 0 l 1,7,-1
 911 0 l 1,8,-1
 728 354 l 1,9,-1
 410 0 l 1,10,-1
 31 0 l 1,11,-1
 566 573 l 1,0,-1
EndSplineSet
EndChar

StartChar: y
Encoding: 121 121 93
Width: 1335
Flags: W
HStem: -442 235<165 433.79> 1100 20G<243 605.026 1147.37 1516>
DStem2: 601 1120 243 1120 0.228526 -0.973538<0 774.853> 500 -74 806 -106 0.501148 0.865362<-159.589 34.8446 502.859 1225.14>
LayerCount: 3
Fore
SplineSet
243 1120 m 1
 601 1120 l 1
 754 360 l 1
 1158 1120 l 1
 1516 1120 l 1
 806 -106 l 1
 696 -299 575 -442 326 -442 c 2
 119 -442 l 1
 165 -207 l 1
 277 -207 l 2
 397 -207 449 -174 500 -74 c 2
 516 -43 l 1
 243 1120 l 1
EndSplineSet
Validated: 1
Layer: 2
SplineSet
243 1120 m 1,0,-1
 601 1120 l 1,1,-1
 754 360 l 1,2,-1
 1158 1120 l 1,3,-1
 1516 1120 l 1,4,-1
 806 -106 l 2,5,6
 770 -169 770 -169 737.5 -215.5 c 128,-1,7
 705 -262 705 -262 661.5 -307 c 128,-1,8
 618 -352 618 -352 571 -380 c 128,-1,9
 524 -408 524 -408 461.5 -425 c 128,-1,10
 399 -442 399 -442 326 -442 c 2,11,-1
 119 -442 l 1,12,-1
 165 -207 l 1,13,-1
 277 -207 l 2,14,15
 366 -207 366 -207 413.5 -178.5 c 128,-1,16
 461 -150 461 -150 500 -74 c 2,17,-1
 516 -43 l 1,18,-1
 243 1120 l 1,0,-1
EndSplineSet
EndChar

StartChar: z
Encoding: 122 122 94
Width: 1192
Flags: W
HStem: 0 256<554 1094> 864 256<335 850>
DStem2: 141 250 554 256 0.755935 0.654646<316.129 937.911>
LayerCount: 3
Fore
SplineSet
335 1120 m 1
 1312 1120 l 1
 1263 870 l 1
 554 256 l 1
 1144 256 l 1
 1094 0 l 1
 92 0 l 1
 141 250 l 1
 850 864 l 1
 285 864 l 1
 335 1120 l 1
EndSplineSet
Validated: 1
Layer: 2
SplineSet
335 1120 m 1,0,-1
 1312 1120 l 1,1,-1
 1263 870 l 1,2,-1
 554 256 l 1,3,-1
 1144 256 l 1,4,-1
 1094 0 l 1,5,-1
 92 0 l 1,6,-1
 141 250 l 1,7,-1
 850 864 l 1,8,-1
 285 864 l 1,9,-1
 335 1120 l 1,0,-1
EndSplineSet
EndChar

StartChar: braceleft
Encoding: 123 123 95
Width: 1458
Flags: W
HStem: -334 225<937.505 1137> 494 223<395 581.903> 1331 225<1201.08 1461>
VStem: 623 355<132.688 452.687>
DStem2: 502.274 -334 842.557 -334 0.190809 0.981627<420.353 677.377 1138.08 1720.4>
LayerCount: 3
Fore
SplineSet
918 12 m 0
 918 -60 934 -109 1112 -109 c 2
 1181 -109 l 1
 1137 -334 l 1
 920 -334 l 2
 687 -334 562 -263 562 -76 c 0
 562 -43 566 -6 574 35 c 2
 611 227 l 2
 619 268 623 304 623 334 c 0
 623 453 559 494 413 494 c 2
 352 494 l 1
 395 717 l 1
 456 717 l 2
 644 717 720 786 758 983 c 2
 798 1188 l 2
 850 1458 1013 1556 1287 1556 c 2
 1504 1556 l 1
 1461 1331 l 1
 1392 1331 l 2
 1298 1331 1234 1316 1200 1288 c 1
 1166 1258 1140 1197 1121 1102 c 2
 1089 936 l 2
 1045 712 966 642 826 612 c 1
 926 587 978 539 978 420 c 0
 978 383 973 339 963 287 c 2
 931 121 l 2
 922 78 918 42 918 12 c 0
EndSplineSet
Validated: 1
Layer: 2
SplineSet
918 12 m 0,0,1
 918 -19 918 -19 923.5 -38 c 128,-1,2
 929 -57 929 -57 948 -75 c 128,-1,3
 967 -93 967 -93 1007 -101 c 128,-1,4
 1047 -109 1047 -109 1112 -109 c 2,5,-1
 1181 -109 l 1,6,-1
 1137 -334 l 1,7,-1
 920 -334 l 2,8,9
 740 -334 740 -334 651 -273.5 c 128,-1,10
 562 -213 562 -213 562 -76 c 0,11,12
 562 -26.5 562 -26.5 574 35 c 2,13,-1
 611 227 l 2,14,15
 623 288 623 288 623 334 c 0,16,17
 623 422 623 422 574 458 c 128,-1,18
 525 494 525 494 413 494 c 2,19,-1
 352 494 l 1,20,-1
 395 717 l 1,21,-1
 456 717 l 2,22,23
 597 717 597 717 663 776 c 128,-1,24
 729 835 729 835 758 983 c 2,25,-1
 798 1188 l 2,26,27
 836 1385 836 1385 955.5 1470.5 c 128,-1,28
 1075 1556 1075 1556 1287 1556 c 2,29,-1
 1504 1556 l 1,30,-1
 1461 1331 l 1,31,-1
 1392 1331 l 2,32,33
 1252 1331 1252 1331 1200 1288 c 0,34,35
 1149 1243 1149 1243 1121 1102 c 2,36,-1
 1089 936 l 2,37,38
 1057 775 1057 775 997 705.5 c 128,-1,39
 937 636 937 636 826 612 c 1,40,41
 905 592 905 592 941.5 549 c 128,-1,42
 978 506 978 506 978 420 c 0,43,44
 978 365 978 365 963 287 c 2,45,-1
 931 121 l 2,46,47
 918 59 918 59 918 12 c 0,0,1
EndSplineSet
EndChar

StartChar: bar
Encoding: 124 124 96
Width: 748
Flags: W
VStem: 166 625
DStem2: 166 -483 393 -483 0.190809 0.981627<43.3136 2086.31>
LayerCount: 3
Fore
SplineSet
791 1565 m 1
 393 -483 l 1
 166 -483 l 1
 564 1565 l 1
 791 1565 l 1
EndSplineSet
Validated: 1
Layer: 2
SplineSet
791 1565 m 1,0,-1
 393 -483 l 1,1,-1
 166 -483 l 1,2,-1
 564 1565 l 1,3,-1
 791 1565 l 1,0,-1
EndSplineSet
EndChar

StartChar: braceright
Encoding: 125 125 97
Width: 1458
Flags: W
HStem: -334 225<235 493.924> 494 223<1111.81 1298> 1331 225<558 757.849>
VStem: 718 352<759.546 1091.77>
DStem2: 486.29 -334 826.274 -334 0.190809 0.981627<270.603 845.633 1301.51 1569.91>
LayerCount: 3
Fore
SplineSet
778 1210 m 0
 778 1291 747 1331 585 1331 c 2
 515 1331 l 1
 558 1556 l 1
 775 1556 l 2
 1008 1556 1133 1485 1133 1297 c 0
 1133 1264 1130 1228 1122 1188 c 2
 1082 983 l 2
 1074 942 1070 907 1070 877 c 0
 1070 760 1132 717 1280 717 c 2
 1341 717 l 1
 1298 494 l 1
 1237 494 l 2
 1054 494 974 429 935 227 c 2
 898 35 l 2
 845 -235 682 -334 408 -334 c 2
 191 -334 l 1
 235 -109 l 1
 305 -109 l 2
 398 -109 462 -94 495 -66 c 0
 530 -36 556 26 575 121 c 2
 607 287 l 2
 650 509 729 579 871 612 c 1
 771 636 718 682 718 803 c 0
 718 840 723 884 733 936 c 2
 765 1102 l 2
 774 1145 778 1180 778 1210 c 0
EndSplineSet
Validated: 1
Layer: 2
SplineSet
778 1210 m 0,0,1
 778 1254 778 1254 764 1278.5 c 128,-1,2
 750 1303 750 1303 707 1317 c 128,-1,3
 664 1331 664 1331 585 1331 c 2,4,-1
 515 1331 l 1,5,-1
 558 1556 l 1,6,-1
 775 1556 l 2,7,8
 955 1556 955 1556 1044 1495 c 128,-1,9
 1133 1434 1133 1434 1133 1297 c 0,10,11
 1133 1243 1133 1243 1122 1188 c 2,12,-1
 1082 983 l 2,13,14
 1070 921 1070 921 1070 877 c 0,15,16
 1070 790 1070 790 1119 753.5 c 128,-1,17
 1168 717 1168 717 1280 717 c 2,18,-1
 1341 717 l 1,19,-1
 1298 494 l 1,20,-1
 1237 494 l 2,21,22
 1098 494 1098 494 1031 435.5 c 128,-1,23
 964 377 964 377 935 227 c 2,24,-1
 898 35 l 2,25,26
 859 -162 859 -162 739.5 -248 c 128,-1,27
 620 -334 620 -334 408 -334 c 2,28,-1
 191 -334 l 1,29,-1
 235 -109 l 1,30,-1
 305 -109 l 2,31,32
 444 -109 444 -109 495 -66 c 0,33,34
 546 -22 546 -22 575 121 c 2,35,-1
 607 287 l 2,36,37
 638 447 638 447 698.5 516.5 c 128,-1,38
 759 586 759 586 871 612 c 1,39,40
 792 631 792 631 755 673.5 c 128,-1,41
 718 716 718 716 718 803 c 0,42,43
 718 858 718 858 733 936 c 2,44,-1
 765 1102 l 2,45,46
 778 1164 778 1164 778 1210 c 0,0,1
EndSplineSet
EndChar

StartChar: asciitilde
Encoding: 126 126 98
Width: 1716
Flags: W
HStem: 457 233<1083.73 1422.86> 594 233<545.67 882.473>
LayerCount: 3
Fore
SplineSet
1275 690 m 0x80
 1418 690 1549 768 1664 850 c 1
 1617 606 l 1
 1490 523 1359 457 1207 457 c 0x80
 1007 457 877 594 690 594 c 0
 547 594 415 517 301 434 c 1
 349 678 l 1
 476 761 607 827 759 827 c 0x40
 960 827 1089 690 1275 690 c 0x80
EndSplineSet
Validated: 1
Layer: 2
SplineSet
1275 690 m 0,0,1
 1372 690 1372 690 1466 733 c 128,-1,2
 1560 776 1560 776 1664 850 c 1,3,-1
 1617 606 l 1,4,5
 1508 535 1508 535 1410 496 c 128,-1,6
 1312 457 1312 457 1207 457 c 0,7,8
 1140 457 1140 457 1068 478.5 c 128,-1,9
 996 500 996 500 943.5 525.5 c 128,-1,10
 891 551 891 551 821.5 572.5 c 128,-1,11
 752 594 752 594 690 594 c 0,12,13
 521 594 521 594 301 434 c 1,14,-1
 349 678 l 1,15,16
 458 749 458 749 556 788 c 128,-1,17
 654 827 654 827 759 827 c 0,18,19
 826 827 826 827 898 805.5 c 128,-1,20
 970 784 970 784 1022.5 758.5 c 128,-1,21
 1075 733 1075 733 1144 711.5 c 128,-1,22
 1213 690 1213 690 1275 690 c 0,0,1
EndSplineSet
EndChar

StartChar: exclamdown
Encoding: 161 161 100
Width: 934
Flags: W
HStem: 0 21G<287 650.874> 1137 356<577 868>
VStem: 287 650
DStem2: 287 0 647 0 0.190809 0.981627<68.6912 652.343 1226.97 1520.9>
LayerCount: 3
Fore
SplineSet
287 0 m 1
 398 573 l 1
 531 991 l 1
 789 991 l 1
 758 573 l 1
 647 0 l 1
 287 0 l 1
508 1137 m 1
 577 1493 l 1
 937 1493 l 1
 868 1137 l 1
 508 1137 l 1
EndSplineSet
Validated: 1
Layer: 2
SplineSet
287 0 m 1,0,-1
 398 573 l 1,1,-1
 531 991 l 1,2,-1
 789 991 l 1,3,-1
 758 573 l 1,4,-1
 647 0 l 1,5,-1
 287 0 l 1,0,-1
508 1137 m 1,6,-1
 577 1493 l 1,7,-1
 937 1493 l 1,8,-1
 868 1137 l 1,9,-1
 508 1137 l 1,6,-1
EndSplineSet
EndChar

StartChar: cent
Encoding: 162 162 101
Width: 1425
Flags: W
HStem: -29 257<908 1111.3> 891 254<1087 1225.25>
VStem: 270 376<315.735 666.505>
DStem2: 641 -313 803 -313 0.190809 0.981627<30.9111 293.394 583.843 1192.99 1516.31 1777.62>
LayerCount: 3
Fore
SplineSet
869 858 m 1
 667 756 646 537 646 465 c 0
 646 366 685 301 753 260 c 1
 869 858 l 1
270 418 m 0
 270 590 335 1068 925 1145 c 1
 980 1432 l 1
 1142 1432 l 1
 1087 1145 l 1
 1175 1141 1267 1125 1372 1085 c 1
 1315 793 l 1
 1188 888 1087 891 1052 891 c 2
 1037 891 l 1
 908 228 l 1
 1034 229 1141 267 1224 326 c 1
 1167 33 l 1
 1021 -17 925 -29 868 -29 c 2
 858 -29 l 1
 803 -313 l 1
 641 -313 l 1
 697 -25 l 1
 428 17 270 156 270 418 c 0
EndSplineSet
Validated: 1
Layer: 2
SplineSet
869 858 m 1,0,1
 812 829 812 829 768.5 784.5 c 128,-1,2
 725 740 725 740 702.5 697 c 128,-1,3
 680 654 680 654 666.5 604.5 c 128,-1,4
 653 555 653 555 649.5 524 c 128,-1,5
 646 493 646 493 646 465 c 0,6,7
 646 325 646 325 753 260 c 1,8,-1
 869 858 l 1,0,1
270 418 m 0,9,10
 270 462 270 462 275 509 c 128,-1,11
 280 556 280 556 297 623.5 c 128,-1,12
 314 691 314 691 341.5 752.5 c 128,-1,13
 369 814 369 814 419.5 880 c 128,-1,14
 470 946 470 946 536.5 997.5 c 128,-1,15
 603 1049 603 1049 703 1089 c 128,-1,16
 803 1129 803 1129 925 1145 c 1,17,-1
 980 1432 l 1,18,-1
 1142 1432 l 1,19,-1
 1087 1145 l 1,20,21
 1232 1138 1232 1138 1372 1085 c 1,22,-1
 1315 793 l 1,23,24
 1184 891 1184 891 1052 891 c 2,25,-1
 1037 891 l 1,26,-1
 908 228 l 1,27,28
 1088 229 1088 229 1224 326 c 1,29,-1
 1167 33 l 1,30,31
 986 -29 986 -29 868 -29 c 2,32,-1
 858 -29 l 1,33,-1
 803 -313 l 1,34,-1
 641 -313 l 1,35,-1
 697 -25 l 1,36,37
 270 42 270 42 270 418 c 0,9,10
EndSplineSet
EndChar

StartChar: sterling
Encoding: 163 163 102
Width: 1425
Flags: W
HStem: 0 266<177 404 769 1255> 592 239<320 467 879 1205> 1257 263<1030.61 1409.52>
DStem2: 352.295 0 717.295 0 0.190809 0.981627<340.624 603.01 916.232 1278.53>
LayerCount: 3
Fore
SplineSet
1176 1520 m 0
 1321 1520 1439 1495 1528 1466 c 1
 1472 1180 l 1
 1404 1223 1310 1257 1192 1257 c 0
 1053 1257 949 1194 912 1001 c 2
 879 831 l 1
 1252 831 l 1
 1205 592 l 1
 832 592 l 1
 769 266 l 1
 1307 266 l 1
 1255 0 l 1
 125 0 l 1
 177 266 l 1
 404 266 l 1
 467 592 l 1
 273 592 l 1
 320 831 l 1
 514 831 l 1
 547 1001 l 2
 618 1366 816 1520 1176 1520 c 0
EndSplineSet
Validated: 1
Layer: 2
SplineSet
1176 1520 m 0,0,1
 1362 1520 1362 1520 1528 1466 c 1,2,-1
 1472 1180 l 1,3,4
 1350 1257 1350 1257 1192 1257 c 0,5,6
 1081 1257 1081 1257 1009.5 1198 c 128,-1,7
 938 1139 938 1139 912 1001 c 2,8,-1
 879 831 l 1,9,-1
 1252 831 l 1,10,-1
 1205 592 l 1,11,-1
 832 592 l 1,12,-1
 769 266 l 1,13,-1
 1307 266 l 1,14,-1
 1255 0 l 1,15,-1
 125 0 l 1,16,-1
 177 266 l 1,17,-1
 404 266 l 1,18,-1
 467 592 l 1,19,-1
 273 592 l 1,20,-1
 320 831 l 1,21,-1
 514 831 l 1,22,-1
 547 1001 l 2,23,24
 600 1273 600 1273 752 1396.5 c 128,-1,25
 904 1520 904 1520 1176 1520 c 0,0,1
EndSplineSet
EndChar

StartChar: currency
Encoding: 164 164 103
Width: 1303
Flags: W
HStem: 213 209<609.945 877.156> 860 209<678.414 944.541> 1197 20G<442.234 482.039 1292.14 1331.84>
VStem: 340 214<476.406 735.278> 1001 213<547.831 805.031>
DStem2: 116 215 239 61 0.766334 0.642443<0 335.904 1224.45 1560.45> 466 1217 283 1063 0.628301 -0.77797<4.8284 275.079 1012.6 1282.83>
LayerCount: 3
Fore
SplineSet
1214 723 m 0
 1214 631 1184 521 1105 426 c 1
 1272 219 l 1
 1088 66 l 1
 921 272 l 1
 841 226 764 213 694 213 c 0
 606 213 538 237 486 268 c 1
 239 61 l 1
 116 215 l 1
 363 422 l 1
 347 466 340 508 340 549 c 0
 340 607 353 740 452 858 c 1
 283 1063 l 1
 466 1217 l 1
 632 1010 l 1
 714 1056 791 1069 861 1069 c 0
 949 1069 1016 1043 1069 1014 c 1
 1316 1221 l 1
 1438 1067 l 1
 1191 860 l 1
 1204 821 1214 775 1214 723 c 0
820 860 m 0
 679 860 554 737 554 595 c 0
 554 493 626 422 735 422 c 0
 881 422 1001 552 1001 685 c 0
 1001 788 927 860 820 860 c 0
EndSplineSet
Validated: 1
Layer: 2
SplineSet
1214 723 m 0,0,1
 1214 557 1214 557 1105 426 c 1,2,-1
 1272 219 l 1,3,-1
 1088 66 l 1,4,-1
 921 272 l 1,5,6
 818 213 818 213 694 213 c 0,7,8
 578 213 578 213 486 268 c 1,9,-1
 239 61 l 1,10,-1
 116 215 l 1,11,-1
 363 422 l 1,12,13
 340 485 340 485 340 549 c 0,14,15
 340 614 340 614 363.5 697.5 c 128,-1,16
 387 781 387 781 452 858 c 1,17,-1
 283 1063 l 1,18,-1
 466 1217 l 1,19,-1
 632 1010 l 1,20,21
 737 1069 737 1069 861 1069 c 0,22,23
 968 1069 968 1069 1069 1014 c 1,24,-1
 1316 1221 l 1,25,-1
 1438 1067 l 1,26,-1
 1191 860 l 1,27,28
 1214 791 1214 791 1214 723 c 0,0,1
820 860 m 0,29,30
 714 860 714 860 634 780.5 c 128,-1,31
 554 701 554 701 554 595 c 0,32,33
 554 518 554 518 604 470 c 128,-1,34
 654 422 654 422 735 422 c 0,35,36
 843 422 843 422 922 502.5 c 128,-1,37
 1001 583 1001 583 1001 685 c 0,38,39
 1001 762 1001 762 950.5 811 c 128,-1,40
 900 860 900 860 820 860 c 0,29,30
EndSplineSet
EndChar

StartChar: yen
Encoding: 165 165 104
Width: 1425
Flags: W
HStem: 0 21G<522 906.894> 416 194<187 603 1022 1439> 762 192<253 545 1250 1506> 1473 20G<315 722.677 1274.64 1691>
DStem2: 914 1032 1250 954 0.626671 0.779284<149.777 595.505>
LayerCount: 3
Fore
SplineSet
1439 416 m 1
 984 416 l 1
 903 0 l 1
 522 0 l 1
 603 416 l 1
 149 416 l 1
 187 610 l 1
 641 610 l 1
 653 676 l 1
 621 762 l 1
 216 762 l 1
 253 954 l 1
 545 954 l 1
 315 1493 l 1
 714 1493 l 1
 914 1032 l 1
 1291 1493 l 1
 1691 1493 l 1
 1250 954 l 1
 1543 954 l 1
 1506 762 l 1
 1100 762 l 1
 1034 676 l 1
 1022 610 l 1
 1477 610 l 1
 1439 416 l 1
EndSplineSet
Validated: 1
Layer: 2
SplineSet
1439 416 m 1,0,-1
 984 416 l 1,1,-1
 903 0 l 1,2,-1
 522 0 l 1,3,-1
 603 416 l 1,4,-1
 149 416 l 1,5,-1
 187 610 l 1,6,-1
 641 610 l 1,7,-1
 653 676 l 1,8,-1
 621 762 l 1,9,-1
 216 762 l 1,10,-1
 253 954 l 1,11,-1
 545 954 l 1,12,-1
 315 1493 l 1,13,-1
 714 1493 l 1,14,-1
 914 1032 l 1,15,-1
 1291 1493 l 1,16,-1
 1691 1493 l 1,17,-1
 1250 954 l 1,18,-1
 1543 954 l 1,19,-1
 1506 762 l 1,20,-1
 1100 762 l 1,21,-1
 1034 676 l 1,22,-1
 1022 610 l 1,23,-1
 1477 610 l 1,24,-1
 1439 416 l 1,0,-1
EndSplineSet
EndChar

StartChar: brokenbar
Encoding: 166 166 105
Width: 748
Flags: W
VStem: 192 573
DStem2: 192 -350 419 -350 0.190809 0.981627<43.3136 772.122 1086.47 1815.28>
LayerCount: 3
Fore
SplineSet
765 1432 m 1
 618 674 l 1
 391 674 l 1
 538 1432 l 1
 765 1432 l 1
566 408 m 1
 419 -350 l 1
 192 -350 l 1
 339 408 l 1
 566 408 l 1
EndSplineSet
Validated: 1
Layer: 2
SplineSet
765 1432 m 1,0,-1
 618 674 l 1,1,-1
 391 674 l 1,2,-1
 538 1432 l 1,3,-1
 765 1432 l 1,0,-1
566 408 m 1,4,-1
 419 -350 l 1,5,-1
 192 -350 l 1,6,-1
 339 408 l 1,7,-1
 566 408 l 1,4,-1
EndSplineSet
EndChar

StartChar: section
Encoding: 167 167 106
Width: 1024
Flags: W
HStem: -195 211<247.032 601.516> 1235 21G<1056 1128.88> 1313 207<687.861 1038.02>
VStem: 137 295<432.337 774.306> 328 328<1138.7 1282.14> 634 332<47.3664 186.476> 862 291<556.431 888.799>
LayerCount: 3
Fore
SplineSet
328 1157 m 0xe8
 328 1302 441 1520 823 1520 c 0
 966 1520 1089 1489 1169 1462 c 1
 1125 1235 l 1
 987 1294 889 1313 826 1313 c 0
 679 1313 656 1238 656 1205 c 0
 656 1064 1153 1036 1153 735 c 0xea
 1153 605 1084 432 853 344 c 1
 894 320 966 268 966 165 c 0
 966 21 839 -195 445 -195 c 0
 371 -195 256 -188 88 -137 c 1
 134 100 l 1
 259 52 387 16 472 16 c 0
 565 16 634 59 634 119 c 0
 634 265 137 278 137 599 c 0xf4
 137 749 223 892 428 977 c 1
 375 1018 328 1069 328 1157 c 0xe8
600 856 m 1
 545 834 432 783 432 674 c 0xf2
 432 597 506 546 696 471 c 1
 807 507 862 578 862 649 c 0
 862 729 780 789 600 856 c 1
EndSplineSet
Validated: 1
Layer: 2
SplineSet
328 1157 m 0,0,1
 328 1204 328 1204 342.5 1251 c 128,-1,2
 357 1298 357 1298 393 1347.5 c 128,-1,3
 429 1397 429 1397 483 1434.5 c 128,-1,4
 537 1472 537 1472 625 1496 c 128,-1,5
 713 1520 713 1520 823 1520 c 0,6,7
 997 1520 997 1520 1169 1462 c 1,8,-1
 1125 1235 l 1,9,10
 943 1313 943 1313 826 1313 c 0,11,12
 774 1313 774 1313 738 1301.5 c 128,-1,13
 702 1290 702 1290 685.5 1271 c 128,-1,14
 669 1252 669 1252 662.5 1236 c 128,-1,15
 656 1220 656 1220 656 1205 c 0,16,17
 656 1173 656 1173 693 1142 c 128,-1,18
 730 1111 730 1111 785 1087.5 c 128,-1,19
 840 1064 840 1064 904.5 1030 c 128,-1,20
 969 996 969 996 1024 959.5 c 128,-1,21
 1079 923 1079 923 1116 864.5 c 128,-1,22
 1153 806 1153 806 1153 735 c 0,23,24
 1153 683 1153 683 1138 631 c 128,-1,25
 1123 579 1123 579 1090.5 525 c 128,-1,26
 1058 471 1058 471 997 423.5 c 128,-1,27
 936 376 936 376 853 344 c 1,28,29
 966 278 966 278 966 165 c 0,30,31
 966 119 966 119 950 72 c 128,-1,32
 934 25 934 25 895.5 -24 c 128,-1,33
 857 -73 857 -73 799.5 -110 c 128,-1,34
 742 -147 742 -147 650 -171 c 128,-1,35
 558 -195 558 -195 445 -195 c 0,36,37
 279 -195 279 -195 88 -137 c 1,38,-1
 134 100 l 1,39,40
 353 16 353 16 472 16 c 0,41,42
 542 16 542 16 588 45 c 128,-1,43
 634 74 634 74 634 119 c 0,44,45
 634 148 634 148 606.5 174 c 128,-1,46
 579 200 579 200 535.5 222 c 128,-1,47
 492 244 492 244 439 267.5 c 128,-1,48
 386 291 386 291 332.5 321.5 c 128,-1,49
 279 352 279 352 235.5 388.5 c 128,-1,50
 192 425 192 425 164.5 479.5 c 128,-1,51
 137 534 137 534 137 599 c 0,52,53
 137 718 137 718 208.5 817 c 128,-1,54
 280 916 280 916 428 977 c 1,55,56
 381 1013 381 1013 354.5 1055 c 128,-1,57
 328 1097 328 1097 328 1157 c 0,0,1
600 856 m 1,58,59
 432 789 432 789 432 674 c 0,60,61
 432 617 432 617 491 573 c 128,-1,62
 550 529 550 529 696 471 c 1,63,64
 776 497 776 497 819 545 c 128,-1,65
 862 593 862 593 862 649 c 0,66,67
 862 708 862 708 799.5 756.5 c 128,-1,68
 737 805 737 805 600 856 c 1,58,59
EndSplineSet
EndChar

StartChar: dieresis
Encoding: 168 168 107
Width: 1024
Flags: W
HStem: 1339 246<505 692 900 1087>
VStem: 457 678
LayerCount: 3
Fore
SplineSet
505 1585 m 1
 740 1585 l 1
 692 1339 l 1
 457 1339 l 1
 505 1585 l 1
900 1585 m 1
 1135 1585 l 1
 1087 1339 l 1
 852 1339 l 1
 900 1585 l 1
EndSplineSet
Validated: 1
Layer: 2
SplineSet
505 1585 m 1,0,-1
 740 1585 l 1,1,-1
 692 1339 l 1,2,-1
 457 1339 l 1,3,-1
 505 1585 l 1,0,-1
900 1585 m 1,4,-1
 1135 1585 l 1,5,-1
 1087 1339 l 1,6,-1
 852 1339 l 1,7,-1
 900 1585 l 1,4,-1
EndSplineSet
EndChar

StartChar: copyright
Encoding: 169 169 108
Width: 2048
Flags: W
HStem: 0 154<839.462 1278.6> 313 187<1049.06 1387.27> 983 186<1131.4 1457.3> 1331 154<1059.68 1495.9>
VStem: 413 154<424 847.854> 734 261<554.733 844.538> 1769 154<636.328 1060.71>
LayerCount: 3
Fore
SplineSet
734 645 m 0
 734 899 925 1169 1292 1169 c 0
 1391 1169 1471 1153 1542 1126 c 1
 1500 911 l 1
 1451 947 1383 983 1289 983 c 0
 1054 983 995 779 995 676 c 0
 995 562 1067 500 1195 500 c 0
 1288 500 1370 528 1434 571 c 1
 1393 358 l 1
 1295 327 1203 313 1126 313 c 0
 876 313 734 442 734 645 c 0
1054 154 m 0
 1434 154 1769 496 1769 854 c 0
 1769 1125 1571 1331 1283 1331 c 256
 913 1331 567 994 567 629 c 0
 567 363 759 154 1054 154 c 0
413 596 m 0
 413 1060 845 1485 1313 1485 c 256
 1666 1485 1923 1236 1923 887 c 0
 1923 421 1489 0 1024 0 c 256
 671 0 413 249 413 596 c 0
EndSplineSet
Validated: 1
Layer: 2
SplineSet
734 645 m 0,0,1
 734 742 734 742 770.5 834.5 c 128,-1,2
 807 927 807 927 874.5 1002 c 128,-1,3
 942 1077 942 1077 1051 1123 c 128,-1,4
 1160 1169 1160 1169 1292 1169 c 0,5,6
 1429 1169 1429 1169 1542 1126 c 1,7,-1
 1500 911 l 1,8,9
 1402 983 1402 983 1289 983 c 0,10,11
 1222 983 1222 983 1168.5 960.5 c 128,-1,12
 1115 938 1115 938 1083.5 904.5 c 128,-1,13
 1052 871 1052 871 1031 828 c 128,-1,14
 1010 785 1010 785 1002.5 747.5 c 128,-1,15
 995 710 995 710 995 676 c 0,16,17
 995 591 995 591 1047 545.5 c 128,-1,18
 1099 500 1099 500 1195 500 c 0,19,20
 1328 500 1328 500 1434 571 c 1,21,-1
 1393 358 l 1,22,23
 1251 313 1251 313 1126 313 c 0,24,25
 940 313 940 313 837 402 c 128,-1,26
 734 491 734 491 734 645 c 0,0,1
1054 154 m 0,27,28
 1193 154 1193 154 1325.5 213.5 c 128,-1,29
 1458 273 1458 273 1554.5 369.5 c 128,-1,30
 1651 466 1651 466 1710 594 c 128,-1,31
 1769 722 1769 722 1769 854 c 0,32,33
 1769 1059 1769 1059 1633 1195 c 128,-1,34
 1497 1331 1497 1331 1283 1331 c 0,35,36
 1147 1331 1147 1331 1015.5 1272 c 128,-1,37
 884 1213 884 1213 786 1117 c 128,-1,38
 688 1021 688 1021 627.5 892 c 128,-1,39
 567 763 567 763 567 629 c 0,40,41
 567 426 567 426 702 290 c 128,-1,42
 837 154 837 154 1054 154 c 0,27,28
413 596 m 0,43,44
 413 766 413 766 488.5 930 c 128,-1,45
 564 1094 564 1094 687 1215 c 128,-1,46
 810 1336 810 1336 975.5 1410.5 c 128,-1,47
 1141 1485 1141 1485 1313 1485 c 0,48,49
 1578 1485 1578 1485 1750.5 1316.5 c 128,-1,50
 1923 1148 1923 1148 1923 887 c 0,51,52
 1923 716 1923 716 1847.5 552.5 c 128,-1,53
 1772 389 1772 389 1648.5 268 c 128,-1,54
 1525 147 1525 147 1360 73.5 c 128,-1,55
 1195 0 1195 0 1024 0 c 0,56,57
 893 0 893 0 779.5 44.5 c 128,-1,58
 666 89 666 89 585.5 167.5 c 128,-1,59
 505 246 505 246 459 357 c 128,-1,60
 413 468 413 468 413 596 c 0,43,44
EndSplineSet
EndChar

StartChar: ordfeminine
Encoding: 170 170 109
Width: 1155
Flags: W
HStem: 373 200<287 1062> 696 162<521.09 788.996> 1081 138<640.045 943> 1354 166<551.608 954.542>
VStem: 337 254<872.082 1034.84> 974 263<1219.59 1332.36>
LayerCount: 3
Fore
SplineSet
287 573 m 1
 1100 573 l 1
 1062 373 l 1
 249 373 l 1
 287 573 l 1
853 1081 m 2
 704 1081 591 1060 591 941 c 0
 591 887 631 858 697 858 c 0
 819 858 917 945 939 1059 c 1
 943 1081 l 1
 853 1081 l 2
968 1219 m 1
 971 1233 974 1246 974 1262 c 0
 974 1305 947 1354 820 1354 c 0
 687 1354 573 1324 475 1284 c 1
 510 1464 l 1
 604 1491 734 1520 856 1520 c 0
 1093 1520 1237 1448 1237 1258 c 0
 1237 1230 1234 1199 1227 1165 c 2
 1140 717 l 1
 895 717 l 1
 920 844 l 1
 841 758 745 696 602 696 c 0
 442 696 337 762 337 892 c 0
 337 909 338 927 342 946 c 0
 374 1110 495 1219 831 1219 c 2
 968 1219 l 1
EndSplineSet
Validated: 1
Layer: 2
SplineSet
287 573 m 1,0,-1
 1100 573 l 1,1,-1
 1062 373 l 1,2,-1
 249 373 l 1,3,-1
 287 573 l 1,0,-1
853 1081 m 2,4,5
 792 1081 792 1081 748.5 1075.5 c 128,-1,6
 705 1070 705 1070 667 1056 c 128,-1,7
 629 1042 629 1042 610 1013 c 128,-1,8
 591 984 591 984 591 941 c 0,9,10
 591 901 591 901 619 879.5 c 128,-1,11
 647 858 647 858 697 858 c 0,12,13
 787 858 787 858 854.5 915 c 128,-1,14
 922 972 922 972 939 1059 c 2,15,-1
 943 1081 l 1,16,-1
 853 1081 l 2,4,5
968 1219 m 1,17,18
 974 1247 974 1247 974 1262 c 0,19,20
 974 1354 974 1354 820 1354 c 0,21,22
 646 1354 646 1354 475 1284 c 1,23,-1
 510 1464 l 1,24,25
 705 1520 705 1520 856 1520 c 0,26,27
 1041 1520 1041 1520 1139 1458 c 128,-1,28
 1237 1396 1237 1396 1237 1258 c 0,29,30
 1237 1214 1237 1214 1227 1165 c 2,31,-1
 1140 717 l 1,32,-1
 895 717 l 1,33,-1
 920 844 l 1,34,35
 784 696 784 696 602 696 c 0,36,37
 479 696 479 696 408 746.5 c 128,-1,38
 337 797 337 797 337 892 c 0,39,40
 337 922 337 922 342 946 c 0,41,42
 355 1010 355 1010 385.5 1058 c 128,-1,43
 416 1106 416 1106 472 1143.5 c 128,-1,44
 528 1181 528 1181 618 1200 c 128,-1,45
 708 1219 708 1219 831 1219 c 2,46,-1
 968 1219 l 1,17,18
EndSplineSet
EndChar

StartChar: guillemotleft
Encoding: 171 171 110
Width: 1323
Flags: W
DStem2: 475 600 256 506 0.752798 -0.658252<0 333.673> 293 692 475 600 0.835899 0.548883<101.636 503.802> 955 600 735 506 0.752798 -0.658252<0 332.92> 772 692 955 600 0.835899 0.548883<102.472 503.802>
LayerCount: 3
Fore
SplineSet
858 1063 m 1
 811 821 l 1
 475 600 l 1
 725 379 l 1
 678 137 l 1
 256 506 l 1
 293 692 l 1
 858 1063 l 1
1337 1063 m 1
 1290 821 l 1
 955 600 l 1
 1204 379 l 1
 1157 137 l 1
 735 506 l 1
 772 692 l 1
 1337 1063 l 1
EndSplineSet
Validated: 1
Layer: 2
SplineSet
858 1063 m 1,0,-1
 811 821 l 1,1,-1
 475 600 l 1,2,-1
 725 379 l 1,3,-1
 678 137 l 1,4,-1
 256 506 l 1,5,-1
 293 692 l 1,6,-1
 858 1063 l 1,0,-1
1337 1063 m 1,7,-1
 1290 821 l 1,8,-1
 955 600 l 1,9,-1
 1204 379 l 1,10,-1
 1157 137 l 1,11,-1
 735 506 l 1,12,-1
 772 692 l 1,13,-1
 1337 1063 l 1,7,-1
EndSplineSet
EndChar

StartChar: logicalnot
Encoding: 172 172 111
Width: 1716
Flags: W
HStem: 672 237<394 1395>
DStem2: 1320 287 1555 287 0.190809 0.981627<44.8401 392.237>
LayerCount: 3
Fore
SplineSet
394 909 m 1
 1676 909 l 1
 1555 287 l 1
 1320 287 l 1
 1395 672 l 1
 348 672 l 1
 394 909 l 1
EndSplineSet
Validated: 1
Layer: 2
SplineSet
394 909 m 1,0,-1
 1676 909 l 1,1,-1
 1555 287 l 1,2,-1
 1320 287 l 1,3,-1
 1395 672 l 1,4,-1
 348 672 l 1,5,-1
 394 909 l 1,0,-1
EndSplineSet
EndChar

StartChar: uni00AD
Encoding: 173 173 112
Width: 850
Flags: W
HStem: 444 291<254 825>
LayerCount: 3
Fore
SplineSet
254 735 m 1
 882 735 l 1
 825 444 l 1
 197 444 l 1
 254 735 l 1
EndSplineSet
Validated: 1
Layer: 2
SplineSet
254 735 m 1,0,-1
 882 735 l 1,1,-1
 825 444 l 1,2,-1
 197 444 l 1,3,-1
 254 735 l 1,0,-1
EndSplineSet
EndChar

StartChar: registered
Encoding: 174 174 113
Width: 2048
Flags: W
HStem: 0 154<839.462 1278.6> 694 135<1093 1134.85> 1036 138<1133 1291.64> 1331 154<1060.07 1495.9>
VStem: 413 154<424 848.048> 1308 234<865.421 1020.08> 1769 154<636.328 1060.71>
DStem2: 719.299 0 932.299 0 0.190809 0.981627<384.969 747.594 885.074 1095.9> 1471 338 1176 551 0.294086 -0.955779<-397.543 -67.3457>
LayerCount: 3
Fore
SplineSet
1054 154 m 0
 1434 154 1769 496 1769 854 c 0
 1769 1125 1571 1331 1283 1331 c 256
 915 1331 567 995 567 629 c 0
 567 363 759 154 1054 154 c 0
1128 829 m 2
 1276 829 1308 905 1308 956 c 0
 1308 1004 1272 1036 1168 1036 c 2
 1133 1036 l 1
 1093 829 l 1
 1128 829 l 2
1542 988 m 0
 1542 937 1521 757 1293 719 c 1
 1355 681 1386 614 1403 559 c 2
 1471 338 l 1
 1242 338 l 1
 1176 551 l 1
 1156 621 1129 694 1079 694 c 2
 1067 694 l 1
 998 338 l 1
 785 338 l 1
 947 1174 l 1
 1232 1174 l 2
 1457 1174 1542 1102 1542 988 c 0
413 596 m 0
 413 1060 845 1485 1313 1485 c 256
 1666 1485 1923 1236 1923 887 c 0
 1923 421 1489 0 1024 0 c 256
 671 0 413 249 413 596 c 0
EndSplineSet
Validated: 1
Layer: 2
SplineSet
1054 154 m 0,0,1
 1193 154 1193 154 1325.5 213.5 c 128,-1,2
 1458 273 1458 273 1554.5 369.5 c 128,-1,3
 1651 466 1651 466 1710 594 c 128,-1,4
 1769 722 1769 722 1769 854 c 0,5,6
 1769 1059 1769 1059 1633 1195 c 128,-1,7
 1497 1331 1497 1331 1283 1331 c 0,8,9
 1148 1331 1148 1331 1016.5 1272.5 c 128,-1,10
 885 1214 885 1214 786.5 1118 c 128,-1,11
 688 1022 688 1022 627.5 892.5 c 128,-1,12
 567 763 567 763 567 629 c 0,13,14
 567 426 567 426 702 290 c 128,-1,15
 837 154 837 154 1054 154 c 0,0,1
1128 829 m 2,16,17
 1180 829 1180 829 1218 841 c 128,-1,18
 1256 853 1256 853 1274 873.5 c 128,-1,19
 1292 894 1292 894 1300 914 c 128,-1,20
 1308 934 1308 934 1308 956 c 0,21,22
 1308 1036 1308 1036 1168 1036 c 2,23,-1
 1133 1036 l 1,24,-1
 1093 829 l 1,25,-1
 1128 829 l 2,16,17
1542 988 m 0,26,27
 1542 967 1542 967 1538.5 943.5 c 128,-1,28
 1535 920 1535 920 1519.5 882.5 c 128,-1,29
 1504 845 1504 845 1479.5 815 c 128,-1,30
 1455 785 1455 785 1406.5 757.5 c 128,-1,31
 1358 730 1358 730 1293 719 c 1,32,33
 1368 673 1368 673 1403 559 c 2,34,-1
 1471 338 l 1,35,-1
 1242 338 l 1,36,-1
 1176 551 l 2,37,38
 1157 616 1157 616 1135 655 c 128,-1,39
 1113 694 1113 694 1079 694 c 2,40,-1
 1067 694 l 1,41,-1
 998 338 l 1,42,-1
 785 338 l 1,43,-1
 947 1174 l 1,44,-1
 1232 1174 l 2,45,46
 1542 1174 1542 1174 1542 988 c 0,26,27
413 596 m 0,47,48
 413 766 413 766 488.5 930 c 128,-1,49
 564 1094 564 1094 687 1215 c 128,-1,50
 810 1336 810 1336 975.5 1410.5 c 128,-1,51
 1141 1485 1141 1485 1313 1485 c 0,52,53
 1578 1485 1578 1485 1750.5 1316.5 c 128,-1,54
 1923 1148 1923 1148 1923 887 c 0,55,56
 1923 716 1923 716 1847.5 552.5 c 128,-1,57
 1772 389 1772 389 1648.5 268 c 128,-1,58
 1525 147 1525 147 1360 73.5 c 128,-1,59
 1195 0 1195 0 1024 0 c 0,60,61
 893 0 893 0 779.5 44.5 c 128,-1,62
 666 89 666 89 585.5 167.5 c 128,-1,63
 505 246 505 246 459 357 c 128,-1,64
 413 468 413 468 413 596 c 0,47,48
EndSplineSet
EndChar

StartChar: macron
Encoding: 175 175 114
Width: 1024
Flags: W
HStem: 1368 188<499 1093>
VStem: 463 666
LayerCount: 3
Fore
SplineSet
499 1556 m 1
 1129 1556 l 1
 1093 1368 l 1
 463 1368 l 1
 499 1556 l 1
EndSplineSet
Validated: 1
Layer: 2
SplineSet
499 1556 m 1,0,-1
 1129 1556 l 1,1,-1
 1093 1368 l 1,2,-1
 463 1368 l 1,3,-1
 499 1556 l 1,0,-1
EndSplineSet
EndChar

StartChar: degree
Encoding: 176 176 115
Width: 1024
Flags: W
HStem: 868 162<603.531 837.9> 1372 162<657.499 884.601>
VStem: 404 165<1066.04 1282.86> 921 163<1112.51 1333.97>
LayerCount: 3
Fore
SplineSet
712 1030 m 0
 827 1030 921 1130 921 1235 c 0
 921 1316 860 1372 779 1372 c 0
 664 1372 569 1269 569 1165 c 0
 569 1086 625 1030 712 1030 c 0
404 1131 m 0
 404 1338 586 1534 810 1534 c 0
 959 1534 1084 1429 1084 1267 c 0
 1084 1050 887 868 679 868 c 0
 514 868 404 976 404 1131 c 0
EndSplineSet
Validated: 1
Layer: 2
SplineSet
712 1030 m 0,0,1
 797 1030 797 1030 859 1092.5 c 128,-1,2
 921 1155 921 1155 921 1235 c 0,3,4
 921 1295 921 1295 880.5 1333.5 c 128,-1,5
 840 1372 840 1372 779 1372 c 0,6,7
 694 1372 694 1372 631.5 1308.5 c 128,-1,8
 569 1245 569 1245 569 1165 c 0,9,10
 569 1105 569 1105 608 1067.5 c 128,-1,11
 647 1030 647 1030 712 1030 c 0,0,1
404 1131 m 0,12,13
 404 1289 404 1289 524.5 1411.5 c 128,-1,14
 645 1534 645 1534 810 1534 c 0,15,16
 925 1534 925 1534 1004.5 1460 c 128,-1,17
 1084 1386 1084 1386 1084 1267 c 0,18,19
 1084 1161 1084 1161 1026.5 1068.5 c 128,-1,20
 969 976 969 976 875.5 922 c 128,-1,21
 782 868 782 868 679 868 c 0,22,23
 556 868 556 868 480 941 c 128,-1,24
 404 1014 404 1014 404 1131 c 0,12,13
EndSplineSet
EndChar

StartChar: plusminus
Encoding: 177 177 116
Width: 1716
Flags: W
HStem: 0 238<263 1499> 694 236<398 874 1158 1634>
DStem2: 738.911 0 976.911 0 0.190809 0.981627<391.776 707.026 992.879 1308.13>
LayerCount: 3
Fore
SplineSet
1227 1284 m 1
 1158 930 l 1
 1680 930 l 1
 1634 694 l 1
 1112 694 l 1
 1043 340 l 1
 805 340 l 1
 874 694 l 1
 352 694 l 1
 398 930 l 1
 920 930 l 1
 989 1284 l 1
 1227 1284 l 1
263 238 m 1
 1545 238 l 1
 1499 0 l 1
 217 0 l 1
 263 238 l 1
EndSplineSet
Validated: 1
Layer: 2
SplineSet
1227 1284 m 1,0,-1
 1158 930 l 1,1,-1
 1680 930 l 1,2,-1
 1634 694 l 1,3,-1
 1112 694 l 1,4,-1
 1043 340 l 1,5,-1
 805 340 l 1,6,-1
 874 694 l 1,7,-1
 352 694 l 1,8,-1
 398 930 l 1,9,-1
 920 930 l 1,10,-1
 989 1284 l 1,11,-1
 1227 1284 l 1,0,-1
263 238 m 1,12,-1
 1545 238 l 1,13,-1
 1499 0 l 1,14,-1
 217 0 l 1,15,-1
 263 238 l 1,12,-1
EndSplineSet
EndChar

StartChar: uni00B2
Encoding: 178 178 117
Width: 897
Flags: W
HStem: 668 168<575 912> 1372 148<468.621 768.154>
VStem: 782 250<1181.89 1356.49>
DStem2: 269 821 801 1001 0.807391 0.590017<255.912 657.377>
LayerCount: 3
Fore
SplineSet
735 1520 m 0
 904 1520 1032 1460 1032 1326 c 0
 1032 1196 941 1104 801 1001 c 2
 575 836 l 1
 945 836 l 1
 912 668 l 1
 239 668 l 1
 269 821 l 1
 633 1087 l 1
 701 1138 782 1204 782 1283 c 0
 782 1337 740 1372 670 1372 c 0
 555 1372 428 1312 364 1280 c 1
 400 1466 l 1
 483 1490 605 1520 735 1520 c 0
EndSplineSet
Validated: 1
Layer: 2
SplineSet
735 1520 m 0,0,1
 869 1520 869 1520 950.5 1471 c 128,-1,2
 1032 1422 1032 1422 1032 1326 c 0,3,4
 1032 1235 1032 1235 975 1161 c 128,-1,5
 918 1087 918 1087 801 1001 c 2,6,-1
 575 836 l 1,7,-1
 945 836 l 1,8,-1
 912 668 l 1,9,-1
 239 668 l 1,10,-1
 269 821 l 1,11,-1
 633 1087 l 2,12,13
 676 1119 676 1119 703.5 1143.5 c 128,-1,14
 731 1168 731 1168 756.5 1207 c 128,-1,15
 782 1246 782 1246 782 1283 c 0,16,17
 782 1324 782 1324 752 1348 c 128,-1,18
 722 1372 722 1372 670 1372 c 0,19,20
 548 1372 548 1372 364 1280 c 1,21,-1
 400 1466 l 1,22,23
 587 1520 587 1520 735 1520 c 0,0,1
EndSplineSet
EndChar

StartChar: uni00B3
Encoding: 179 179 118
Width: 897
Flags: W
HStem: 653 146<314.025 665.725> 1047 137<478 701.167> 1372 148<408.698 762.229>
VStem: 725 242<853.695 1019.96> 771 250<1218.89 1356.87>
LayerCount: 3
Fore
SplineSet
1021 1344 m 0xe8
 1021 1305 1008 1161 810 1120 c 1
 902 1101 967 1047 967 954 c 0
 967 848 906 653 514 653 c 0
 402 653 307 670 226 698 c 1
 260 872 l 1
 316 837 399 799 499 799 c 0
 683 799 725 889 725 948 c 0xf0
 725 1008 674 1047 526 1047 c 2
 452 1047 l 1
 478 1184 l 1
 562 1184 l 2
 674 1184 771 1207 771 1299 c 0
 771 1357 706 1372 629 1372 c 0
 580 1372 498 1364 373 1319 c 1
 406 1485 l 1
 499 1508 601 1520 715 1520 c 0
 967 1520 1021 1425 1021 1344 c 0xe8
EndSplineSet
Validated: 1
Layer: 2
SplineSet
1021 1344 m 0,0,1
 1021 1327 1021 1327 1018.5 1309 c 128,-1,2
 1016 1291 1016 1291 1003.5 1260.5 c 128,-1,3
 991 1230 991 1230 970 1205 c 128,-1,4
 949 1180 949 1180 907.5 1156 c 128,-1,5
 866 1132 866 1132 810 1120 c 1,6,7
 882 1105 882 1105 924.5 1063 c 128,-1,8
 967 1021 967 1021 967 954 c 0,9,10
 967 917 967 917 958 881.5 c 128,-1,11
 949 846 949 846 920 803 c 128,-1,12
 891 760 891 760 843.5 728 c 128,-1,13
 796 696 796 696 711 674.5 c 128,-1,14
 626 653 626 653 514 653 c 0,15,16
 356 653 356 653 226 698 c 1,17,-1
 260 872 l 1,18,19
 377 799 377 799 499 799 c 0,20,21
 564 799 564 799 611 813.5 c 128,-1,22
 658 828 658 828 681.5 852 c 128,-1,23
 705 876 705 876 715 899.5 c 128,-1,24
 725 923 725 923 725 948 c 0,25,26
 725 1047 725 1047 526 1047 c 2,27,-1
 452 1047 l 1,28,-1
 478 1184 l 1,29,-1
 562 1184 l 2,30,31
 771 1184 771 1184 771 1299 c 0,32,33
 771 1372 771 1372 629 1372 c 0,34,35
 520 1372 520 1372 373 1319 c 1,36,-1
 406 1485 l 1,37,38
 548 1520 548 1520 715 1520 c 0,39,40
 805 1520 805 1520 868.5 1504.5 c 128,-1,41
 932 1489 932 1489 963.5 1462 c 128,-1,42
 995 1435 995 1435 1008 1406.5 c 128,-1,43
 1021 1378 1021 1378 1021 1344 c 0,0,1
EndSplineSet
EndChar

StartChar: acute
Encoding: 180 180 119
Width: 1024
Flags: W
HStem: 1262 376
VStem: 610 638
LayerCount: 3
Fore
SplineSet
965 1638 m 1
 1248 1638 l 1
 806 1262 l 1
 610 1262 l 1
 965 1638 l 1
EndSplineSet
Validated: 1
Layer: 2
SplineSet
965 1638 m 1,0,-1
 1248 1638 l 1,1,-1
 806 1262 l 1,2,-1
 610 1262 l 1,3,-1
 965 1638 l 1,0,-1
EndSplineSet
EndChar

StartChar: micro
Encoding: 181 181 120
Width: 1507
Flags: W
HStem: -428 21G<91 455.887> -29 269<653.372 908.235 1178.5 1432.85> 1100 20G<388.111 753 1154.1 1518>
DStem2: 91 -428 452 -428 0.190809 0.981627<68.882 572.124 906.551 1576.99> 856.641 -428 1216.69 -428 0.190809 0.981627<818.2 1577.06>
LayerCount: 3
Fore
SplineSet
737 -29 m 0
 636 -29 575 3 548 66 c 1
 452 -428 l 1
 91 -428 l 1
 392 1120 l 1
 753 1120 l 1
 626 469 l 2
 620 440 618 415 618 392 c 0
 618 280 683 240 784 240 c 0
 927 240 1003 322 1031 469 c 2
 1158 1120 l 1
 1518 1120 l 1
 1372 371 l 2
 1367 347 1364 325 1364 306 c 0
 1364 268 1378 244 1421 244 c 0
 1430 244 1457 245 1494 266 c 1
 1445 16 l 1
 1389 -6 1320 -29 1245 -29 c 0
 1112 -29 1060 33 1039 129 c 1
 928 -12 807 -29 737 -29 c 0
EndSplineSet
Validated: 1
Layer: 2
SplineSet
737 -29 m 0,0,1
 589 -29 589 -29 548 66 c 1,2,-1
 452 -428 l 1,3,-1
 91 -428 l 1,4,-1
 392 1120 l 1,5,-1
 753 1120 l 1,6,-1
 626 469 l 2,7,8
 618 430 618 430 618 392 c 0,9,10
 618 240 618 240 784 240 c 0,11,12
 987 240 987 240 1031 469 c 2,13,-1
 1158 1120 l 1,14,-1
 1518 1120 l 1,15,-1
 1372 371 l 2,16,17
 1364 333 1364 333 1364 306 c 0,18,19
 1364 244 1364 244 1421 244 c 0,20,21
 1455 244 1455 244 1494 266 c 1,22,-1
 1445 16 l 1,23,24
 1330 -29 1330 -29 1245 -29 c 0,25,26
 1150 -29 1150 -29 1103 11.5 c 128,-1,27
 1056 52 1056 52 1039 129 c 1,28,29
 915 -29 915 -29 737 -29 c 0,0,1
EndSplineSet
EndChar

StartChar: paragraph
Encoding: 182 182 121
Width: 1303
Flags: W
HStem: 1346 147<1007 1196>
DStem2: 517 -197 707 -197 0.190809 0.981627<36.2537 861.749> 896 -197 1086 -197 0.190809 0.981627<36.2537 1571.89>
LayerCount: 3
Fore
SplineSet
327 978 m 0
 327 1220 516 1493 894 1493 c 2
 1414 1493 l 1
 1086 -197 l 1
 896 -197 l 1
 1196 1346 l 1
 1007 1346 l 1
 707 -197 l 1
 517 -197 l 1
 681 649 l 1
 465 676 327 784 327 978 c 0
EndSplineSet
Validated: 1
Layer: 2
SplineSet
327 978 m 0,0,1
 327 1071 327 1071 363.5 1161 c 128,-1,2
 400 1251 400 1251 468 1326 c 128,-1,3
 536 1401 536 1401 647 1447 c 128,-1,4
 758 1493 758 1493 894 1493 c 2,5,-1
 1414 1493 l 1,6,-1
 1086 -197 l 1,7,-1
 896 -197 l 1,8,-1
 1196 1346 l 1,9,-1
 1007 1346 l 1,10,-1
 707 -197 l 1,11,-1
 517 -197 l 1,12,-1
 681 649 l 1,13,14
 514 670 514 670 420.5 753 c 128,-1,15
 327 836 327 836 327 978 c 0,0,1
EndSplineSet
EndChar

StartChar: periodcentered
Encoding: 183 183 122
Width: 778
Flags: W
HStem: 518 387<385 670>
VStem: 310 435
LayerCount: 3
Fore
SplineSet
385 905 m 1
 745 905 l 1
 670 518 l 1
 310 518 l 1
 385 905 l 1
EndSplineSet
Validated: 1
Layer: 2
SplineSet
385 905 m 1,0,-1
 745 905 l 1,1,-1
 670 518 l 1,2,-1
 310 518 l 1,3,-1
 385 905 l 1,0,-1
EndSplineSet
EndChar

StartChar: cedilla
Encoding: 184 184 123
Width: 1024
Flags: W
HStem: -401 147<213.865 496.997> -20 20G<463 624.5>
VStem: 520 156<-229.259 -44.2099>
LayerCount: 3
Fore
SplineSet
379 -254 m 0
 465 -254 520 -213 520 -152 c 0
 520 -118 502 -71 463 0 c 1
 602 0 l 1
 647 -60 676 -121 676 -181 c 0
 676 -269 626 -401 387 -401 c 0
 306 -401 236 -387 189 -375 c 1
 219 -223 l 1
 294 -248 346 -254 379 -254 c 0
EndSplineSet
Validated: 1
Layer: 2
SplineSet
379 -254 m 0,0,1
 443 -254 443 -254 481.5 -226 c 128,-1,2
 520 -198 520 -198 520 -152 c 0,3,4
 520 -104 520 -104 463 0 c 1,5,-1
 602 0 l 1,6,7
 676 -99 676 -99 676 -181 c 0,8,9
 676 -210 676 -210 669 -238 c 128,-1,10
 662 -266 662 -266 642.5 -296.5 c 128,-1,11
 623 -327 623 -327 592 -349.5 c 128,-1,12
 561 -372 561 -372 508.5 -386.5 c 128,-1,13
 456 -401 456 -401 387 -401 c 0,14,15
 291 -401 291 -401 189 -375 c 1,16,-1
 219 -223 l 1,17,18
 312 -254 312 -254 379 -254 c 0,0,1
EndSplineSet
EndChar

StartChar: uni0E01
Encoding: 3585 3585 124
Width: 1470
Flags: W
HStem: 0 21G<170 484.904 998 1312.89> 984 241<641.451 1110.36>
VStem: 1158 319<742.709 934.63>
DStem2: 170 0 481 0 0.190809 0.981627<59.3416 643.561> 998 0 1309 0 0.190809 0.981627<59.3416 855.433>
LayerCount: 3
Fore
SplineSet
966 1225 m 0
 1256 1225 1477 1159 1477 912 c 0
 1477 882 1474 848 1467 812 c 2
 1309 0 l 1
 998 0 l 1
 1153 796 l 2
 1156 812 1158 827 1158 841 c 0
 1158 929 1096 984 923 984 c 0
 769 984 689 961 635 938 c 1
 809 847 l 1
 771 651 l 1
 616 596 582 522 570 456 c 2
 481 0 l 1
 170 0 l 1
 259 456 l 2
 279 561 358 680 467 735 c 1
 297 812 l 1
 350 1088 l 1
 499 1145 730 1225 966 1225 c 0
EndSplineSet
Validated: 1
Layer: 2
SplineSet
966 1225 m 0,0,1
 1081 1225 1081 1225 1169 1210.5 c 128,-1,2
 1257 1196 1257 1196 1329 1161.5 c 128,-1,3
 1401 1127 1401 1127 1439 1064.5 c 128,-1,4
 1477 1002 1477 1002 1477 912 c 0,5,6
 1477 863 1477 863 1467 812 c 2,7,-1
 1309 0 l 1,8,-1
 998 0 l 1,9,-1
 1153 796 l 2,10,11
 1158 823 1158 823 1158 841 c 0,12,13
 1158 984 1158 984 923 984 c 0,14,15
 743 984 743 984 635 938 c 1,16,-1
 809 847 l 1,17,-1
 771 651 l 1,18,19
 666 614 666 614 623.5 565.5 c 128,-1,20
 581 517 581 517 570 456 c 2,21,-1
 481 0 l 1,22,-1
 170 0 l 1,23,-1
 259 456 l 2,24,25
 275 538 275 538 331.5 616.5 c 128,-1,26
 388 695 388 695 467 735 c 1,27,-1
 297 812 l 1,28,-1
 350 1088 l 1,29,30
 708 1225 708 1225 966 1225 c 0,0,1
EndSplineSet
EndChar

StartChar: uni0E02
Encoding: 3586 3586 125
Width: 1380
Flags: W
HStem: 0 222<617 913.499> 712 137<362.558 501.601> 996 219<418.724 605.199>
VStem: 215 146<852.11 979.265> 517 150<864.129 993.656> 698 236<806.859 1004.1>
DStem2: 877.632 0 1189.8 0 0.190809 0.981627<230.594 1226.6>
LayerCount: 3
Fore
SplineSet
425 849 m 0
 476 849 517 890 517 939 c 0
 517 977 488 996 454 996 c 0
 401 996 361 953 361 906 c 0
 361 869 391 849 425 849 c 0
215 884 m 0
 215 1050 388 1215 611 1215 c 0
 738 1215 934 1159 934 945 c 0
 934 682 695 623 644 361 c 2
 617 222 l 1
 818 222 l 2
 887 222 928 258 941 326 c 2
 1112 1204 l 1
 1424 1204 l 1
 1252 320 l 2
 1211 107 1049 0 768 0 c 2
 264 0 l 1
 343 406 l 2
 392 658 698 737 698 925 c 0
 698 961 682 989 651 1009 c 1
 661 991 667 971 667 948 c 0
 667 853 569 712 398 712 c 0
 286 712 215 786 215 884 c 0
EndSplineSet
Validated: 1
Layer: 2
SplineSet
425 849 m 0,0,1
 463 849 463 849 490 875.5 c 128,-1,2
 517 902 517 902 517 939 c 0,3,4
 517 966 517 966 499 981 c 128,-1,5
 481 996 481 996 454 996 c 0,6,7
 415 996 415 996 388 969 c 128,-1,8
 361 942 361 942 361 906 c 0,9,10
 361 879 361 879 379.5 864 c 128,-1,11
 398 849 398 849 425 849 c 0,0,1
215 884 m 0,12,13
 215 1012 215 1012 331.5 1113.5 c 128,-1,14
 448 1215 448 1215 611 1215 c 0,15,16
 652 1215 652 1215 693.5 1208 c 128,-1,17
 735 1201 735 1201 779.5 1181.5 c 128,-1,18
 824 1162 824 1162 857.5 1133 c 128,-1,19
 891 1104 891 1104 912.5 1055 c 128,-1,20
 934 1006 934 1006 934 945 c 0,21,22
 934 872 934 872 909 810 c 128,-1,23
 884 748 884 748 846 700 c 128,-1,24
 808 652 808 652 768.5 605.5 c 128,-1,25
 729 559 729 559 693.5 495.5 c 128,-1,26
 658 432 658 432 644 361 c 2,27,-1
 617 222 l 1,28,-1
 818 222 l 2,29,30
 921 222 921 222 941 326 c 2,31,-1
 1112 1204 l 1,32,-1
 1424 1204 l 1,33,-1
 1252 320 l 2,34,35
 1190 0 1190 0 768 0 c 2,36,-1
 264 0 l 1,37,-1
 343 406 l 2,38,39
 354 465 354 465 386 519 c 128,-1,40
 418 573 418 573 457 611 c 128,-1,41
 496 649 496 649 539 689.5 c 128,-1,42
 582 730 582 730 617 763 c 128,-1,43
 652 796 652 796 675 838.5 c 128,-1,44
 698 881 698 881 698 925 c 0,45,46
 698 979 698 979 651 1009 c 1,47,48
 667 980 667 980 667 948 c 0,49,50
 667 867 667 867 591.5 789.5 c 128,-1,51
 516 712 516 712 398 712 c 0,52,53
 315 712 315 712 265 760.5 c 128,-1,54
 215 809 215 809 215 884 c 0,12,13
EndSplineSet
EndChar

StartChar: uni0E03
Encoding: 3587 3587 126
Width: 1530
Flags: W
HStem: 0 222<764 1063.64> 605 136<342.597 478.222> 1195 9G<543 612.539 828.067 937 1256.1 1570>
VStem: 197 142<744.943 870.708> 495 145<756.779 887.295> 842 254<824.391 1004.19>
DStem2: 1025.63 0 1335.71 0 0.190809 0.981627<237.003 1226.6>
LayerCount: 3
Fore
SplineSet
640 848 m 0
 640 712 527 605 378 605 c 0
 301 605 197 643 197 783 c 0
 197 804 199 827 204 853 c 0
 260 1143 502 1209 584 1215 c 1
 711 1126 l 1
 862 1215 l 1
 1012 1195 1096 1096 1096 967 c 0
 1096 771 890 596 831 481 c 0
 813 445 800 405 791 361 c 2
 764 222 l 1
 966 222 l 2
 1035 222 1076 258 1089 326 c 2
 1260 1204 l 1
 1570 1204 l 1
 1395 305 l 2
 1356 102 1192 0 924 0 c 2
 411 0 l 1
 491 409 l 2
 499 455 532 610 736 763 c 0
 830 833 842 919 842 948 c 0
 842 981 826 1000 789 1008 c 1
 679 970 l 1
 534 1051 l 1
 485 1032 l 1
 598 1015 640 931 640 848 c 0
404 741 m 0
 449 741 495 782 495 832 c 0
 495 865 471 890 432 890 c 0
 378 890 339 841 339 801 c 0
 339 767 366 741 404 741 c 0
EndSplineSet
Validated: 1
Layer: 2
SplineSet
640 848 m 0,0,1
 640 746 640 746 564.5 675.5 c 128,-1,2
 489 605 489 605 378 605 c 0,3,4
 346 605 346 605 316.5 613.5 c 128,-1,5
 287 622 287 622 259 641 c 128,-1,6
 231 660 231 660 214 696.5 c 128,-1,7
 197 733 197 733 197 783 c 0,8,9
 197 817 197 817 204 853 c 0,10,11
 220 935 220 935 257.5 1001 c 128,-1,12
 295 1067 295 1067 338 1104.5 c 128,-1,13
 381 1142 381 1142 431.5 1168 c 128,-1,14
 482 1194 482 1194 518 1203.5 c 128,-1,15
 554 1213 554 1213 584 1215 c 1,16,-1
 711 1126 l 1,17,-1
 862 1215 l 1,18,19
 973 1200 973 1200 1034.5 1133 c 128,-1,20
 1096 1066 1096 1066 1096 967 c 0,21,22
 1096 899 1096 899 1062 823.5 c 128,-1,23
 1028 748 1028 748 986.5 694 c 128,-1,24
 945 640 945 640 896.5 577 c 128,-1,25
 848 514 848 514 831 481 c 0,26,27
 805 429 805 429 791 361 c 2,28,-1
 764 222 l 1,29,-1
 966 222 l 2,30,31
 1069 222 1069 222 1089 326 c 2,32,-1
 1260 1204 l 1,33,-1
 1570 1204 l 1,34,-1
 1395 305 l 2,35,36
 1366 154 1366 154 1246 77 c 128,-1,37
 1126 0 1126 0 924 0 c 2,38,-1
 411 0 l 1,39,-1
 491 409 l 1,40,41
 525 605 525 605 736 763 c 0,42,43
 797 808 797 808 819.5 860 c 128,-1,44
 842 912 842 912 842 948 c 0,45,46
 842 997 842 997 789 1008 c 1,47,-1
 679 970 l 1,48,-1
 534 1051 l 1,49,-1
 485 1032 l 1,50,51
 564 1020 564 1020 602 968.5 c 128,-1,52
 640 917 640 917 640 848 c 0,0,1
404 741 m 0,53,54
 439 741 439 741 467 768 c 128,-1,55
 495 795 495 795 495 832 c 0,56,57
 495 857 495 857 478 873.5 c 128,-1,58
 461 890 461 890 432 890 c 0,59,60
 393 890 393 890 366 861.5 c 128,-1,61
 339 833 339 833 339 801 c 0,62,63
 339 775 339 775 357.5 758 c 128,-1,64
 376 741 376 741 404 741 c 0,53,54
EndSplineSet
EndChar

StartChar: uni0E04
Encoding: 3588 3588 127
Width: 1570
Flags: W
HStem: 0 21G<177 502 1079 1394.9> 390 127<819.438 958.63> 666 139<832.536 969.524> 984 239<780.963 1148.22>
VStem: 972 146<531.808 662.667> 1227 317<666.514 901.773>
DStem2: 177 0 488 0 0.190809 0.981627<59.3416 345.533 644.631 973.084> 1079 0 1391 0 0.190809 0.981627<59.5324 802.006>
LayerCount: 3
Fore
SplineSet
1118 628 m 0
 1118 487 969 390 863 390 c 0
 802 390 742 406 712 453 c 1
 551 251 516 142 488 0 c 1
 177 0 l 1
 298 732 l 2
 360 1104 699 1223 1024 1223 c 0
 1333 1223 1544 1089 1544 833 c 0
 1544 801 1540 766 1533 729 c 2
 1391 0 l 1
 1079 0 l 1
 1222 738 l 2
 1225 756 1227 773 1227 789 c 0
 1227 907 1135 984 974 984 c 0
 786 984 647 884 618 735 c 2
 587 577 l 1
 658 692 787 805 934 805 c 0
 1028 805 1118 734 1118 628 c 0
909 666 m 0
 856 666 817 619 817 574 c 0
 817 539 844 517 879 517 c 8
 921 517 972 553 972 605 c 0
 972 641 946 666 909 666 c 0
EndSplineSet
Validated: 1
Layer: 2
SplineSet
1118 628 m 0,0,1
 1118 561 1118 561 1076 504.5 c 128,-1,2
 1034 448 1034 448 976 419 c 128,-1,3
 918 390 918 390 863 390 c 0,4,5
 752 390 752 390 712 453 c 1,6,7
 600 313 600 313 556 217 c 128,-1,8
 512 121 512 121 488 0 c 1,9,-1
 177 0 l 1,10,-1
 298 732 l 2,11,12
 316 840 316 840 366.5 925.5 c 128,-1,13
 417 1011 417 1011 486.5 1066 c 128,-1,14
 556 1121 556 1121 646.5 1157 c 128,-1,15
 737 1193 737 1193 829.5 1208 c 128,-1,16
 922 1223 922 1223 1024 1223 c 0,17,18
 1262 1223 1262 1223 1403 1122 c 128,-1,19
 1544 1021 1544 1021 1544 833 c 0,20,21
 1544 787 1544 787 1533 729 c 2,22,-1
 1391 0 l 1,23,-1
 1079 0 l 1,24,-1
 1222 738 l 2,25,26
 1227 768 1227 768 1227 789 c 0,27,28
 1227 879 1227 879 1160 931.5 c 128,-1,29
 1093 984 1093 984 974 984 c 0,30,31
 834 984 834 984 737 915.5 c 128,-1,32
 640 847 640 847 618 735 c 2,33,-1
 587 577 l 1,34,35
 646 672 646 672 738.5 738.5 c 128,-1,36
 831 805 831 805 934 805 c 0,37,38
 1007 805 1007 805 1062.5 755 c 128,-1,39
 1118 705 1118 705 1118 628 c 0,0,1
909 666 m 0,40,41
 871 666 871 666 844 637.5 c 128,-1,42
 817 609 817 609 817 574 c 0,43,44
 817 548 817 548 834.5 532.5 c 128,-1,45
 852 517 852 517 879 517 c 0,46,47
 913 517 913 517 942.5 542.5 c 128,-1,48
 972 568 972 568 972 605 c 0,49,50
 972 632 972 632 954.5 649 c 128,-1,51
 937 666 937 666 909 666 c 0,40,41
EndSplineSet
EndChar

StartChar: uni0E05
Encoding: 3589 3589 128
Width: 1570
Flags: W
HStem: 0 21G<177 502 1080 1395.9> 390 127<819.438 958.63> 666 139<832.204 969.237> 1198 20G<740.5 826.219 1223.34 1334>
VStem: 972 146<531.808 662.797> 1231 318<676.985 930.708>
DStem2: 177 0 488 0 0.190809 0.981627<59.3416 345.533 643.649 995.868> 1080 0 1392 0 0.190809 0.981627<59.5324 820.156>
LayerCount: 3
Fore
SplineSet
909 666 m 0
 856 666 817 619 817 574 c 0
 817 539 844 517 879 517 c 8
 921 517 972 553 972 605 c 0
 972 641 946 666 909 666 c 0
1118 628 m 0
 1118 487 969 390 863 390 c 0
 802 390 742 406 712 453 c 1
 551 251 516 142 488 0 c 1
 177 0 l 1
 305 765 l 1
 332 908 392 1013 484 1080 c 1
 582 1150 685 1196 796 1218 c 1
 1003 1081 l 1
 1261 1218 l 1
 1407 1180 1549 1077 1549 865 c 0
 1549 826 1545 784 1536 739 c 2
 1392 0 l 1
 1080 0 l 1
 1225 748 l 2
 1229 770 1231 789 1231 807 c 0
 1231 890 1191 935 1163 952 c 1
 1006 868 l 1
 915 868 l 1
 776 961 l 1
 655 888 630 796 620 745 c 2
 587 576 l 1
 656 691 786 805 934 805 c 0
 1026 805 1118 735 1118 628 c 0
EndSplineSet
Validated: 1
Layer: 2
SplineSet
909 666 m 0,0,1
 871 666 871 666 844 637.5 c 128,-1,2
 817 609 817 609 817 574 c 0,3,4
 817 548 817 548 834.5 532.5 c 128,-1,5
 852 517 852 517 879 517 c 0,6,7
 913 517 913 517 942.5 542.5 c 128,-1,8
 972 568 972 568 972 605 c 0,9,10
 972 632 972 632 954.5 649 c 128,-1,11
 937 666 937 666 909 666 c 0,0,1
1118 628 m 0,12,13
 1118 561 1118 561 1076 504.5 c 128,-1,14
 1034 448 1034 448 976 419 c 128,-1,15
 918 390 918 390 863 390 c 0,16,17
 752 390 752 390 712 453 c 1,18,19
 600 313 600 313 556 217 c 128,-1,20
 512 121 512 121 488 0 c 1,21,-1
 177 0 l 1,22,-1
 305 765 l 1,23,24
 345 979 345 979 484 1080 c 0,25,26
 632 1185 632 1185 796 1218 c 1,27,-1
 1003 1081 l 1,28,-1
 1261 1218 l 1,29,30
 1319 1203 1319 1203 1368 1176 c 128,-1,31
 1417 1149 1417 1149 1459 1107.5 c 128,-1,32
 1501 1066 1501 1066 1525 1003.5 c 128,-1,33
 1549 941 1549 941 1549 865 c 0,34,35
 1549 804 1549 804 1536 739 c 2,36,-1
 1392 0 l 1,37,-1
 1080 0 l 1,38,-1
 1225 748 l 2,39,40
 1231 781 1231 781 1231 807 c 0,41,42
 1231 863 1231 863 1210.5 899.5 c 128,-1,43
 1190 936 1190 936 1163 952 c 1,44,-1
 1006 868 l 1,45,-1
 915 868 l 1,46,-1
 776 961 l 1,47,48
 647 883 647 883 620 745 c 2,49,-1
 587 576 l 1,50,51
 644 671 644 671 737 738 c 128,-1,52
 830 805 830 805 934 805 c 0,53,54
 1006 805 1006 805 1062 755 c 128,-1,55
 1118 705 1118 705 1118 628 c 0,12,13
EndSplineSet
EndChar

StartChar: uni0E06
Encoding: 3590 3590 129
Width: 1600
Flags: W
HStem: -11 216<431.753 580.05> 605 137<360.392 501.761> 1195 9G<563 632.539 848.067 951.5 1315.11 1645>
VStem: 196 229<211.035 350.017> 217 142<745.356 870.542> 515 145<756.656 887.403> 862 265<831.025 1003.44>
DStem2: 1082.55 -11 1408.86 -11 0.190809 0.981627<353.495 1237.79>
LayerCount: 3
Fore
SplineSet
660 848 m 0xf6
 660 712 547 605 398 605 c 0
 321 605 217 643 217 783 c 0xee
 217 804 219 827 224 853 c 0
 280 1143 522 1209 604 1215 c 1
 731 1126 l 1
 882 1215 l 1
 1021 1197 1127 1099 1127 964 c 0
 1127 867 1063 727 966 645 c 1
 924 608 895 573 881 540 c 1
 993 508 1137 399 1150 336 c 1
 1319 1204 l 1
 1645 1204 l 1
 1411 0 l 1
 1080 0 l 1
 1046 128 942 267 838 315 c 1
 829 265 l 1
 796 99 646 -11 466 -11 c 0
 298 -11 196 77 196 219 c 0
 196 358 298 573 587 588 c 1
 687 777 862 786 862 948 c 0
 862 981 846 1000 809 1008 c 1
 699 970 l 1
 554 1051 l 1
 505 1032 l 1
 618 1015 660 931 660 848 c 0xf6
423 742 m 0
 474 742 515 783 515 831 c 0
 515 868 489 890 452 890 c 0
 408 890 359 850 359 799 c 0
 359 762 389 742 423 742 c 0
530 373 m 0
 470 373 425 319 425 271 c 0xf6
 425 231 457 205 498 205 c 0
 552 205 601 254 601 304 c 0
 601 342 574 373 530 373 c 0
EndSplineSet
Validated: 1
Layer: 2
SplineSet
660 848 m 0,0,1
 660 746 660 746 584.5 675.5 c 128,-1,2
 509 605 509 605 398 605 c 0,3,4
 366 605 366 605 336.5 613.5 c 128,-1,5
 307 622 307 622 279 641 c 128,-1,6
 251 660 251 660 234 696.5 c 128,-1,7
 217 733 217 733 217 783 c 0,8,9
 217 817 217 817 224 853 c 0,10,11
 240 935 240 935 277.5 1001 c 128,-1,12
 315 1067 315 1067 358 1104.5 c 128,-1,13
 401 1142 401 1142 451.5 1168 c 128,-1,14
 502 1194 502 1194 538 1203.5 c 128,-1,15
 574 1213 574 1213 604 1215 c 1,16,-1
 731 1126 l 1,17,-1
 882 1215 l 1,18,19
 988 1201 988 1201 1057.5 1132 c 128,-1,20
 1127 1063 1127 1063 1127 964 c 0,21,22
 1127 889 1127 889 1082 797 c 128,-1,23
 1037 705 1037 705 966 645 c 0,24,25
 901 588 901 588 881 540 c 1,26,27
 965 516 965 516 1052.5 449.5 c 128,-1,28
 1140 383 1140 383 1150 336 c 1,29,-1
 1319 1204 l 1,30,-1
 1645 1204 l 1,31,-1
 1411 0 l 1,32,-1
 1080 0 l 1,33,34
 1054 97 1054 97 984.5 188 c 128,-1,35
 915 279 915 279 838 315 c 1,36,-1
 829 265 l 2,37,38
 804 141 804 141 703 65 c 128,-1,39
 602 -11 602 -11 466 -11 c 0,40,41
 340 -11 340 -11 268 50.5 c 128,-1,42
 196 112 196 112 196 219 c 0,43,44
 196 263 196 263 208.5 309.5 c 128,-1,45
 221 356 221 356 251 404.5 c 128,-1,46
 281 453 281 453 324.5 491.5 c 128,-1,47
 368 530 368 530 436 557 c 128,-1,48
 504 584 504 584 587 588 c 1,49,50
 614 639 614 639 653.5 681.5 c 128,-1,51
 693 724 693 724 727.5 750.5 c 128,-1,52
 762 777 762 777 793.5 804.5 c 128,-1,53
 825 832 825 832 843.5 867.5 c 128,-1,54
 862 903 862 903 862 948 c 0,55,56
 862 997 862 997 809 1008 c 1,57,-1
 699 970 l 1,58,-1
 554 1051 l 1,59,-1
 505 1032 l 1,60,61
 584 1020 584 1020 622 968.5 c 128,-1,62
 660 917 660 917 660 848 c 0,0,1
423 742 m 0,63,64
 461 742 461 742 488 768.5 c 128,-1,65
 515 795 515 795 515 831 c 0,66,67
 515 858 515 858 497.5 874 c 128,-1,68
 480 890 480 890 452 890 c 0,69,70
 418 890 418 890 388.5 863 c 128,-1,71
 359 836 359 836 359 799 c 0,72,73
 359 772 359 772 377.5 757 c 128,-1,74
 396 742 396 742 423 742 c 0,63,64
530 373 m 0,75,76
 487 373 487 373 456 341 c 128,-1,77
 425 309 425 309 425 271 c 0,78,79
 425 242 425 242 446 223.5 c 128,-1,80
 467 205 467 205 498 205 c 0,81,82
 538 205 538 205 569.5 235.5 c 128,-1,83
 601 266 601 266 601 304 c 0,84,85
 601 333 601 333 581.5 353 c 128,-1,86
 562 373 562 373 530 373 c 0,75,76
EndSplineSet
EndChar

StartChar: uni0E07
Encoding: 3591 3591 130
Width: 1130
Flags: W
HStem: 0 21G<543.5 944.893> 744 146<672.148 771.042> 1039 176<686.784 907.5>
VStem: 507 163<893.758 1023.17> 825 287<904.965 1034.46>
LayerCount: 3
Back
SplineSet
372 960 m 4
 372 1029.33 396.667 1088.67 446 1138 c 0
 495.333 1187.33 554.667 1212 624 1212 c 0
 693.333 1212 752.667 1187.33 802 1138 c 0
 851.333 1088.67 876 1029.33 876 960 c 0
 876 890.667 851.333 831.333 802 782 c 0
 752.667 732.667 693.333 708 624 708 c 0
 554.667 708 495.333 732.667 446 782 c 0
 396.667 831.333 372 890.667 372 960 c 4
548 962 m 4
 548 982.667 555.167 1000.17 569.5 1014.5 c 0
 583.833 1028.83 601.333 1036 622 1036 c 0
 642.667 1036 660.167 1028.83 674.5 1014.5 c 0
 688.833 1000.17 696 982.667 696 962 c 0
 696 941.333 688.833 923.833 674.5 909.5 c 0
 660.167 895.167 642.667 888 622 888 c 0
 601.333 888 583.833 895.167 569.5 909.5 c 0
 555.167 923.833 548 941.333 548 962 c 4
EndSplineSet
Fore
SplineSet
762 1039 m 3
 707 1039 670 989 670 949 c 3
 670 913 697 890 732 890 c 11
 775 890 825 927 825 978 c 3
 825 1012 801 1039 762 1039 c 3
507 924 m 3
 507 1005 572 1215 834 1215 c 3
 981 1215 1112 1159 1112 928 c 3
 1112 894 1108 859 1101 822 c 2
 941 0 l 25
 574 0 l 1
 513 109 357 381 150 570 c 1
 251 761 l 1
 367 696 591 526 698 371 c 1
 772 752 l 1
 760 746 734 744 703 744 c 3
 593 744 507 820 507 924 c 3
EndSplineSet
Validated: 1
Layer: 2
SplineSet
762 1039 m 3,0,1
 723 1039 723 1039 696.5 1010 c 128,-1,2
 670 981 670 981 670 949 c 0,3,4
 670 922 670 922 687.5 906 c 128,-1,5
 705 890 705 890 732 890 c 0,6,7
 766 890 766 890 795.5 915.5 c 128,-1,8
 825 941 825 941 825 978 c 0,9,10
 825 1004 825 1004 808 1021.5 c 128,-1,11
 791 1039 791 1039 762 1039 c 3,0,1
507 924 m 3,12,13
 507 952 507 952 515.5 986 c 128,-1,14
 524 1020 524 1020 547 1061.5 c 128,-1,15
 570 1103 570 1103 605 1136.5 c 128,-1,16
 640 1170 640 1170 700 1192.5 c 128,-1,17
 760 1215 760 1215 834 1215 c 0,18,19
 893 1215 893 1215 940 1202 c 128,-1,20
 987 1189 987 1189 1027.5 1158.5 c 128,-1,21
 1068 1128 1068 1128 1090 1069.5 c 128,-1,22
 1112 1011 1112 1011 1112 928 c 0,23,24
 1112 880 1112 880 1101 822 c 2,25,-1
 941 0 l 1,26,-1
 574 0 l 1,27,28
 365 374 365 374 150 570 c 1,29,-1
 251 761 l 1,30,31
 353 704 353 704 489 590.5 c 128,-1,32
 625 477 625 477 698 371 c 1,33,-1
 772 752 l 1,34,35
 756 744 756 744 703 744 c 0,36,37
 620 744 620 744 563.5 795.5 c 128,-1,38
 507 847 507 847 507 924 c 3,12,13
EndSplineSet
EndChar

StartChar: uni0E08
Encoding: 3592 3592 131
Width: 1360
Flags: W
HStem: 0 21G<852 1166.88> 364 144<502.766 640.107> 657 144<516.626 651.294> 994 240<495.251 950.281>
VStem: 352 147<510.531 642.792> 1013 315<625.117 936.547>
LayerCount: 3
Fore
SplineSet
638 801 m 0
 890 801 945 569 953 518 c 1
 1009 806 l 2
 1012 819 1013 831 1013 843 c 0
 1013 962 880 994 731 994 c 0
 442 994 270 861 219 822 c 1
 272 1095 l 1
 502 1220 670 1234 778 1234 c 0
 957 1234 1100 1202 1206 1138 c 1
 1288 1090 1328 1011 1328 901 c 0
 1328 867 1324 829 1316 789 c 10
 1163 0 l 1
 852 0 l 1
 852 36 l 2
 852 231 813 372 738 460 c 1
 709 411 608 364 539 364 c 0
 432 364 352 453 352 539 c 0
 352 636 447 801 638 801 c 0
592 657 m 0
 541 657 499 612 499 566 c 0
 499 530 527 508 562 508 c 8
 611 508 655 551 655 596 c 0
 655 630 631 657 592 657 c 0
EndSplineSet
Validated: 1
Layer: 2
SplineSet
638 801 m 0,0,1
 709 801 709 801 766.5 775.5 c 128,-1,2
 824 750 824 750 856 716.5 c 128,-1,3
 888 683 888 683 911 639 c 128,-1,4
 934 595 934 595 941.5 568 c 128,-1,5
 949 541 949 541 953 518 c 1,6,-1
 1009 806 l 2,7,8
 1013 823 1013 823 1013 843 c 0,9,10
 1013 994 1013 994 731 994 c 0,11,12
 444 994 444 994 219 822 c 1,13,-1
 272 1095 l 1,14,15
 528 1234 528 1234 778 1234 c 0,16,17
 1047 1234 1047 1234 1206 1138 c 0,18,19
 1328 1067 1328 1067 1328 901 c 0,20,21
 1328 849 1328 849 1316 789 c 2,22,-1
 1163 0 l 1,23,-1
 852 0 l 1,24,-1
 852 36 l 2,25,26
 852 326 852 326 738 460 c 1,27,28
 716 424 716 424 653.5 394 c 128,-1,29
 591 364 591 364 539 364 c 0,30,31
 461 364 461 364 406.5 418 c 128,-1,32
 352 472 352 472 352 539 c 0,33,34
 352 577 352 577 370.5 621 c 128,-1,35
 389 665 389 665 423 706 c 128,-1,36
 457 747 457 747 513.5 774 c 128,-1,37
 570 801 570 801 638 801 c 0,0,1
592 657 m 0,38,39
 554 657 554 657 526.5 629 c 128,-1,40
 499 601 499 601 499 566 c 0,41,42
 499 540 499 540 517 524 c 128,-1,43
 535 508 535 508 562 508 c 0,44,45
 599 508 599 508 627 535 c 128,-1,46
 655 562 655 562 655 596 c 0,47,48
 655 622 655 622 638 639.5 c 128,-1,49
 621 657 621 657 592 657 c 0,38,39
EndSplineSet
EndChar

StartChar: uni0E09
Encoding: 3593 3593 132
Width: 1470
Flags: W
HStem: -10 174<1135.76 1271.79> 324 146<333.115 432.739> 619 176<348.452 597.5> 994 241<582.797 1037.94>
VStem: 169 162<473.228 602.64> 486 279<484.423 616.55> 1092 316<735.374 937.545> 1289 199<178.696 310.345>
AnchorPoint: "AboveBase" 1479 1284 basechar 0
LayerCount: 3
Fore
SplineSet
423 619 m 0xfc
 374 619 331 575 331 527 c 0
 331 492 358 470 393 470 c 8
 437 470 486 508 486 557 c 0
 486 594 459 619 423 619 c 0xfc
1092 839 m 0xfe
 1092 967 970 994 818 994 c 0
 753 994 573 990 279 822 c 1
 332 1095 l 1
 500 1179 692 1235 915 1235 c 0
 1270 1235 1408 1105 1408 900 c 0xfe
 1408 865 1404 828 1396 789 c 2
 1342 507 l 1
 1386 507 1488 438 1488 304 c 0xfd
 1488 201 1414 -10 1162 -10 c 0
 1019 -10 943 55 933 185 c 1
 841 157 755 96 675 0 c 1
 369 0 l 1
 434 332 l 1
 421 326 395 324 364 324 c 0
 255 324 169 399 169 503 c 0
 169 586 234 795 496 795 c 0
 699 795 765 626 765 496 c 0
 765 473 763 451 759 432 c 2
 734 305 l 1
 818 370 914 425 1024 471 c 1
 1089 806 l 2
 1091 818 1092 829 1092 839 c 0xfe
1226 313 m 0
 1182 313 1134 273 1134 223 c 0
 1134 187 1161 164 1196 164 c 8
 1239 164 1289 201 1289 252 c 0xfd
 1289 288 1261 313 1226 313 c 0
EndSplineSet
Validated: 1
Layer: 2
SplineSet
423 619 m 0,0,1
 386 619 386 619 358.5 591 c 128,-1,2
 331 563 331 563 331 527 c 0,3,4
 331 501 331 501 348.5 485.5 c 128,-1,5
 366 470 366 470 393 470 c 0,6,7
 427 470 427 470 456.5 496 c 128,-1,8
 486 522 486 522 486 557 c 0,9,10
 486 584 486 584 468 601.5 c 128,-1,11
 450 619 450 619 423 619 c 0,0,1
1092 839 m 0,12,13
 1092 885 1092 885 1071.5 917 c 128,-1,14
 1051 949 1051 949 1011.5 965 c 128,-1,15
 972 981 972 981 926 987.5 c 128,-1,16
 880 994 880 994 818 994 c 0,17,18
 580 994 580 994 279 822 c 1,19,-1
 332 1095 l 1,20,21
 612 1235 612 1235 915 1235 c 0,22,23
 1408 1235 1408 1235 1408 900 c 0,24,25
 1408 847.5 1408 847.5 1396 789 c 2,26,-1
 1342 507 l 1,27,28
 1385 507 1385 507 1436.5 450.5 c 128,-1,29
 1488 394 1488 394 1488 304 c 0,30,31
 1488 270 1488 270 1478.5 231.5 c 128,-1,32
 1469 193 1469 193 1445 149 c 128,-1,33
 1421 105 1421 105 1386 70.5 c 128,-1,34
 1351 36 1351 36 1292.5 13 c 128,-1,35
 1234 -10 1234 -10 1162 -10 c 0,36,37
 948 -10 948 -10 933 185 c 1,38,39
 794 143 794 143 675 0 c 1,40,-1
 369 0 l 1,41,-1
 434 332 l 1,42,43
 417 324 417 324 364 324 c 0,44,45
 281 324 281 324 225 375 c 128,-1,46
 169 426 169 426 169 503 c 0,47,48
 169 531 169 531 177.5 565.5 c 128,-1,49
 186 600 186 600 209 641.5 c 128,-1,50
 232 683 232 683 267 716.5 c 128,-1,51
 302 750 302 750 362 772.5 c 128,-1,52
 422 795 422 795 496 795 c 0,53,54
 568 795 568 795 623 767 c 128,-1,55
 678 739 678 739 707.5 693.5 c 128,-1,56
 737 648 737 648 751 598 c 128,-1,57
 765 548 765 548 765 496 c 0,58,59
 765 460 765 460 759 432 c 2,60,-1
 734 305 l 1,61,62
 860 402 860 402 1024 471 c 1,63,-1
 1089 806 l 2,64,65
 1092 824 1092 824 1092 839 c 0,12,13
1226 313 m 0,66,67
 1192 313 1192 313 1163 286 c 128,-1,68
 1134 259 1134 259 1134 223 c 0,69,70
 1134 196 1134 196 1151.5 180 c 128,-1,71
 1169 164 1169 164 1196 164 c 0,72,73
 1230 164 1230 164 1259.5 189.5 c 128,-1,74
 1289 215 1289 215 1289 252 c 0,75,76
 1289 279 1289 279 1271 296 c 128,-1,77
 1253 313 1253 313 1226 313 c 0,66,67
EndSplineSet
EndChar

StartChar: uni0E0A
Encoding: 3594 3594 133
Width: 1420
Flags: W
HStem: 0 222<617 939.864> 712 136<362.777 500.903> 996 219<418.752 652.855>
VStem: 215 146<851.602 979.44> 517 150<864.233 993.656> 698 236<806.859 1004.1> 1034 314<415.406 742.209>
DStem2: 910.632 0 1222.52 0 0.190809 0.981627<230.594 663.897>
LayerCount: 3
Fore
SplineSet
454 996 m 0
 396 996 361 949 361 908 c 0
 361 877 381 848 425 848 c 0
 470 848 517 889 517 939 c 0
 517 977 488 996 454 996 c 0
215 884 m 0
 215 1050 388 1215 611 1215 c 0
 738 1215 934 1159 934 945 c 0
 934 682 695 623 644 361 c 2
 617 222 l 1
 851 222 l 2
 920 222 961 258 974 326 c 2
 1029 608 l 2
 1032 624 1034 639 1034 653 c 0
 1034 716 1000 752 932 761 c 1
 987 1042 l 1
 1108 1066 1202 1206 1235 1373 c 1
 1565 1373 l 1
 1501 1043 1290 920 1230 894 c 1
 1295 863 1348 776 1348 673 c 0
 1348 654 1346 634 1342 614 c 2
 1282 306 l 2
 1243 102 1079 0 811 0 c 2
 264 0 l 1
 343 406 l 2
 392 658 698 737 698 925 c 0
 698 961 682 989 651 1009 c 1
 661 991 667 971 667 948 c 0
 667 853 569 712 398 712 c 0
 286 712 215 786 215 884 c 0
EndSplineSet
Validated: 1
Layer: 2
SplineSet
454 996 m 0,0,1
 413 996 413 996 387 968.5 c 128,-1,2
 361 941 361 941 361 908 c 0,3,4
 361 883 361 883 377.5 865.5 c 128,-1,5
 394 848 394 848 425 848 c 0,6,7
 460 848 460 848 488.5 875 c 128,-1,8
 517 902 517 902 517 939 c 0,9,10
 517 966 517 966 499 981 c 128,-1,11
 481 996 481 996 454 996 c 0,0,1
215 884 m 0,12,13
 215 1012 215 1012 331.5 1113.5 c 128,-1,14
 448 1215 448 1215 611 1215 c 0,15,16
 652 1215 652 1215 693.5 1208 c 128,-1,17
 735 1201 735 1201 779.5 1181.5 c 128,-1,18
 824 1162 824 1162 857.5 1133 c 128,-1,19
 891 1104 891 1104 912.5 1055 c 128,-1,20
 934 1006 934 1006 934 945 c 0,21,22
 934 872 934 872 909 810 c 128,-1,23
 884 748 884 748 846 700 c 128,-1,24
 808 652 808 652 768.5 605.5 c 128,-1,25
 729 559 729 559 693.5 495.5 c 128,-1,26
 658 432 658 432 644 361 c 2,27,-1
 617 222 l 1,28,-1
 851 222 l 2,29,30
 954 222 954 222 974 326 c 2,31,-1
 1029 608 l 2,32,33
 1034 635 1034 635 1034 653 c 0,34,35
 1034 747.5 1034 747.5 932 761 c 1,36,-1
 987 1042 l 1,37,38
 1076 1060 1076 1060 1143 1152 c 128,-1,39
 1210 1244 1210 1244 1235 1373 c 1,40,-1
 1565 1373 l 1,41,42
 1547 1280 1547 1280 1511 1199.5 c 128,-1,43
 1475 1119 1475 1119 1437 1069 c 128,-1,44
 1399 1019 1399 1019 1355 979 c 128,-1,45
 1311 939 1311 939 1282.5 921.5 c 128,-1,46
 1254 904 1254 904 1230 894 c 1,47,48
 1280 870 1280 870 1314 809 c 128,-1,49
 1348 748 1348 748 1348 673 c 0,50,51
 1348 644 1348 644 1342 614 c 2,52,-1
 1282 306 l 2,53,54
 1253 154 1253 154 1133 77 c 128,-1,55
 1013 0 1013 0 811 0 c 2,56,-1
 264 0 l 1,57,-1
 343 406 l 2,58,59
 354 465 354 465 386 519 c 128,-1,60
 418 573 418 573 457 611 c 128,-1,61
 496 649 496 649 539 689.5 c 128,-1,62
 582 730 582 730 617 763 c 128,-1,63
 652 796 652 796 675 838.5 c 128,-1,64
 698 881 698 881 698 925 c 0,65,66
 698 979 698 979 651 1009 c 1,67,68
 667 980 667 980 667 948 c 0,69,70
 667 867 667 867 591.5 789.5 c 128,-1,71
 516 712 516 712 398 712 c 0,72,73
 315 712 315 712 265 760.5 c 128,-1,74
 215 809 215 809 215 884 c 0,12,13
EndSplineSet
EndChar

StartChar: uni0E0B
Encoding: 3595 3595 134
Width: 1580
Flags: W
HStem: 0 222<764 1109.61> 605 136<342.597 477.972> 1195 20G<543 612.539 828.067 937>
VStem: 197 142<744.943 870.708> 495 145<756.641 887.488> 842 254<824.391 1004.19> 1199 314<415.344 746.634>
DStem2: 1075.63 0 1387.63 0 0.190809 0.981627<236.443 668.759>
LayerCount: 3
Fore
SplineSet
640 848 m 0
 640 712 527 605 378 605 c 0
 301 605 197 643 197 783 c 0
 197 804 199 827 204 853 c 0
 260 1143 502 1209 584 1215 c 1
 711 1126 l 1
 862 1215 l 1
 1012 1195 1096 1096 1096 967 c 0
 1096 771 890 596 831 481 c 0
 813 445 800 405 791 361 c 2
 764 222 l 1
 1016 222 l 2
 1085 222 1126 258 1139 326 c 2
 1194 608 l 2
 1198 626 1199 643 1199 658 c 0
 1199 723 1165 758 1097 761 c 1
 1153 1052 l 1
 1252 1070 1359 1163 1400 1373 c 1
 1730 1373 l 1
 1666 1043 1455 920 1395 894 c 1
 1460 863 1513 776 1513 673 c 0
 1513 654 1511 634 1507 614 c 2
 1444 290 l 18
 1407 97 1257 0 995 0 c 2
 411 0 l 1
 491 409 l 2
 499 455 532 610 736 763 c 0
 830 833 842 919 842 948 c 0
 842 981 826 1000 789 1008 c 1
 679 970 l 1
 534 1051 l 1
 485 1032 l 1
 598 1015 640 931 640 848 c 0
404 741 m 0
 452 741 495 786 495 831 c 0
 495 859 479 890 432 890 c 0
 378 890 339 841 339 801 c 0
 339 767 366 741 404 741 c 0
EndSplineSet
Validated: 1
Layer: 2
SplineSet
640 848 m 0,0,1
 640 746 640 746 564.5 675.5 c 128,-1,2
 489 605 489 605 378 605 c 0,3,4
 346 605 346 605 316.5 613.5 c 128,-1,5
 287 622 287 622 259 641 c 128,-1,6
 231 660 231 660 214 696.5 c 128,-1,7
 197 733 197 733 197 783 c 0,8,9
 197 817 197 817 204 853 c 0,10,11
 220 935 220 935 257.5 1001 c 128,-1,12
 295 1067 295 1067 338 1104.5 c 128,-1,13
 381 1142 381 1142 431.5 1168 c 128,-1,14
 482 1194 482 1194 518 1203.5 c 128,-1,15
 554 1213 554 1213 584 1215 c 1,16,-1
 711 1126 l 1,17,-1
 862 1215 l 1,18,19
 973 1200 973 1200 1034.5 1133 c 128,-1,20
 1096 1066 1096 1066 1096 967 c 0,21,22
 1096 899 1096 899 1062 823.5 c 128,-1,23
 1028 748 1028 748 986.5 694 c 128,-1,24
 945 640 945 640 896.5 577 c 128,-1,25
 848 514 848 514 831 481 c 0,26,27
 805 429 805 429 791 361 c 2,28,-1
 764 222 l 1,29,-1
 1016 222 l 2,30,31
 1119 222 1119 222 1139 326 c 2,32,-1
 1194 608 l 2,33,34
 1199 630 1199 630 1199 658 c 0,35,36
 1199 757 1199 757 1097 761 c 1,37,-1
 1153 1052 l 1,38,39
 1235 1067 1235 1067 1303 1146.5 c 128,-1,40
 1371 1226 1371 1226 1400 1373 c 1,41,-1
 1730 1373 l 1,42,43
 1712 1280 1712 1280 1676 1199.5 c 128,-1,44
 1640 1119 1640 1119 1602 1069 c 128,-1,45
 1564 1019 1564 1019 1520 979 c 128,-1,46
 1476 939 1476 939 1447.5 921.5 c 128,-1,47
 1419 904 1419 904 1395 894 c 1,48,49
 1445 870 1445 870 1479 809 c 128,-1,50
 1513 748 1513 748 1513 673 c 0,51,52
 1513 644 1513 644 1507 614 c 2,53,-1
 1444 290 l 2,54,55
 1388 0 1388 0 995 0 c 2,56,-1
 411 0 l 1,57,-1
 491 409 l 1,58,59
 525 605 525 605 736 763 c 0,60,61
 797 808 797 808 819.5 860 c 128,-1,62
 842 912 842 912 842 948 c 0,63,64
 842 997 842 997 789 1008 c 1,65,-1
 679 970 l 1,66,-1
 534 1051 l 1,67,-1
 485 1032 l 1,68,69
 564 1020 564 1020 602 968.5 c 128,-1,70
 640 917 640 917 640 848 c 0,0,1
404 741 m 0,71,72
 440 741 440 741 467.5 769 c 128,-1,73
 495 797 495 797 495 831 c 0,74,75
 495 855 495 855 479.5 872.5 c 128,-1,76
 464 890 464 890 432 890 c 0,77,78
 393 890 393 890 366 861.5 c 128,-1,79
 339 833 339 833 339 801 c 0,80,81
 339 775 339 775 357.5 758 c 128,-1,82
 376 741 376 741 404 741 c 0,71,72
EndSplineSet
EndChar

StartChar: uni0E0C
Encoding: 3596 3596 135
Width: 2060
Flags: W
HStem: -20 206<1038.76 1190.55> -20 186<336.5 566.9> 0 21G<1527.5 1854.89> 315 149<490.346 580.203> 984 241<625.963 1081.9> 1184 20G<1777.11 2085>
VStem: 145 283<169.34 299.95> 584 159<181.799 312.636> 810 225<191.898 331.834> 1122 313<749.721 944.451>
DStem2: 1542.97 -20 1847.11 -20 0.190809 0.981627<393.225 1246.93>
LayerCount: 3
Fore
SplineSet
899 1225 m 0x5bc0
 1183 1225 1435 1160 1435 898 c 0
 1435 871 1432 842 1426 812 c 2
 1374 547 l 1
 1481 522 1564 462 1618 366 c 1
 1781 1204 l 1
 2085 1204 l 1
 1851 0 l 1
 1541 0 l 1x37c0
 1514 121 1466 195 1398 220 c 1
 1396 213 l 1
 1378 117 1261 -20 1065 -20 c 0x93c0
 956 -20 810 46 810 208 c 0
 810 339 893 472 1066 536 c 1
 1117 796 l 2
 1120 814 1122 830 1122 845 c 0
 1122 954 1033 984 923 984 c 0
 764 984 675 959 618 936 c 1
 754 850 l 1
 727 708 l 1
 530 640 508 554 500 516 c 2
 490 463 l 1
 495 463 499 464 547 464 c 0
 607 464 662 459 709 398 c 0
 731 369 743 331 743 286 c 0
 743 120 610 -20 398 -20 c 0
 275 -20 145 65 145 238 c 0
 145 268 149 301 156 337 c 2
 181 468 l 2
 197 549 240 678 412 765 c 1
 256 854 l 1
 299 1074 l 1
 472 1161 671 1225 899 1225 c 0x5bc0
1139 354 m 0
 1079 354 1035 300 1035 253 c 0
 1035 212 1066 186 1107 186 c 0x93c0
 1155 186 1210 228 1210 285 c 0
 1210 323 1183 354 1139 354 c 0
491 166 m 0x53c0
 537 166 584 207 584 257 c 0
 584 293 556 315 521 315 c 8
 478 315 428 278 428 226 c 0
 428 190 455 166 491 166 c 0x53c0
EndSplineSet
Validated: 1
Layer: 2
SplineSet
899 1225 m 0,0,1
 1435 1225 1435 1225 1435 898 c 0,2,3
 1435 857 1435 857 1426 812 c 2,4,-1
 1374 547 l 1,5,6
 1538 509 1538 509 1618 366 c 1,7,-1
 1781 1204 l 1,8,-1
 2085 1204 l 1,9,-1
 1851 0 l 1,10,-1
 1541 0 l 1,11,12
 1500 182 1500 182 1398 220 c 1,13,-1
 1396 213 l 2,14,15
 1389 175 1389 175 1363.5 135.5 c 128,-1,16
 1338 96 1338 96 1298 60.5 c 128,-1,17
 1258 25 1258 25 1196.5 2.5 c 128,-1,18
 1135 -20 1135 -20 1065 -20 c 0,19,20
 1022 -20 1022 -20 979 -6.5 c 128,-1,21
 936 7 936 7 897 33 c 128,-1,22
 858 59 858 59 834 104.5 c 128,-1,23
 810 150 810 150 810 208 c 0,24,25
 810 311 810 311 875.5 400.5 c 128,-1,26
 941 490 941 490 1066 536 c 1,27,-1
 1117 796 l 2,28,29
 1122 826 1122 826 1122 845 c 0,30,31
 1122 984 1122 984 923 984 c 0,32,33
 737 984 737 984 618 936 c 1,34,-1
 754 850 l 1,35,-1
 727 708 l 1,36,37
 658 684 658 684 610.5 656 c 128,-1,38
 563 628 563 628 541.5 599.5 c 128,-1,39
 520 571 520 571 512 554 c 128,-1,40
 504 537 504 537 500 516 c 2,41,-1
 490 463 l 2,42,43
 491 463 491 463 495.5 463.5 c 128,-1,44
 500 464 500 464 513 464 c 128,-1,45
 526 464 526 464 547 464 c 0,46,47
 602 464 602 464 639.5 451.5 c 128,-1,48
 677 439 677 439 709 398 c 0,49,50
 743 353 743 353 743 286 c 0,51,52
 743 158 743 158 648 69 c 128,-1,53
 553 -20 553 -20 398 -20 c 0,54,55
 297 -20 297 -20 221 48 c 128,-1,56
 145 116 145 116 145 238 c 0,57,58
 145 280 145 280 156 337 c 2,59,-1
 181 468 l 2,60,61
 221 668 221 668 412 765 c 1,62,-1
 256 854 l 1,63,-1
 299 1074 l 1,64,65
 599 1225 599 1225 899 1225 c 0,0,1
1139 354 m 0,66,67
 1096 354 1096 354 1065.5 322 c 128,-1,68
 1035 290 1035 290 1035 253 c 0,69,70
 1035 223 1035 223 1055.5 204.5 c 128,-1,71
 1076 186 1076 186 1107 186 c 0,72,73
 1145 186 1145 186 1177.5 215 c 128,-1,74
 1210 244 1210 244 1210 285 c 0,75,76
 1210 314 1210 314 1190.5 334 c 128,-1,77
 1171 354 1171 354 1139 354 c 0,66,67
491 166 m 0,78,79
 526 166 526 166 555 193 c 128,-1,80
 584 220 584 220 584 257 c 0,81,82
 584 283 584 283 566 299 c 128,-1,83
 548 315 548 315 521 315 c 0,84,85
 487 315 487 315 457.5 289 c 128,-1,86
 428 263 428 263 428 226 c 0,87,88
 428 199 428 199 446 182.5 c 128,-1,89
 464 166 464 166 491 166 c 0,78,79
EndSplineSet
EndChar

StartChar: uni0E0D
Encoding: 3597 3597 136
Width: 1970
Flags: W
HStem: -461 176<991.783 1245.19> -172 119<997.468 1113.83> -11 189<363.041 544.78> 0 221<1230 1510> 994 240<574.904 974.503> 1184 20G<1697.11 2009>
VStem: 159 249<180.203 312.197> 563 208<194.484 324.064> 867 124<-284.467 -180.438> 1037 320<754.158 937.793> 1114 125<-273.597 -173.829>
DStem2: 786.391 -461 1097.43 -461 0.190809 0.981627<754.114 1327.35> 1377.43 -461 1685.39 -461 0.190809 0.981627<694.765 1696.15>
LayerCount: 3
Fore
SplineSet
771 299 m 0xdbc0
 771 140 630 -11 408 -11 c 0
 316 -11 159 42 159 240 c 0
 159 267 162 297 168 329 c 2
 196 474 l 2
 210 545 248 668 402 744 c 1
 232 821 l 1
 285 1097 l 1
 584 1211 763 1234 876 1234 c 0xebc0
 1223 1234 1357 1112 1357 920 c 0
 1357 889 1354 856 1347 822 c 2
 1230 221 l 1
 1510 221 l 1
 1701 1204 l 1
 2009 1204 l 1xd7c0
 1775 0 l 1
 876 0 l 1
 1033 806 l 2
 1036 819 1037 832 1037 843 c 0
 1037 963 905 994 780 994 c 0
 720 994 646 985 569 947 c 1
 753 856 l 1
 715 660 l 1
 540 607 522 533 516 502 c 1
 582 502 l 2
 664 502 771 431 771 299 c 0xdbc0
471 178 m 0
 525 178 563 226 563 270 c 0
 563 305 536 327 501 327 c 8
 459 327 408 291 408 239 c 0
 408 205 432 178 471 178 c 0
1044 -285 m 0
 1088 -285 1114 -251 1114 -218 c 0xc3a0
 1114 -194 1098 -172 1064 -172 c 0
 1022 -172 991 -210 991 -241 c 0
 991 -270 1016 -285 1044 -285 c 0
1239 -204 m 0
 1239 -233 1228 -269 1223 -274 c 1
 1295 -267 1576 -203 1738 -67 c 1
 1731 -306 l 1
 1525 -441 1191 -461 1116 -461 c 0
 1039 -461 984 -448 950 -420 c 1
 893 -376 867 -338 867 -279 c 0
 867 -121 1000 -53 1088 -53 c 0
 1183 -53 1239 -127 1239 -204 c 0
EndSplineSet
Validated: 1
Layer: 2
SplineSet
771 299 m 0,0,1
 771 174 771 174 669.5 81.5 c 128,-1,2
 568 -11 568 -11 408 -11 c 0,3,4
 369 -11 369 -11 329.5 1 c 128,-1,5
 290 13 290 13 250 39.5 c 128,-1,6
 210 66 210 66 184.5 118 c 128,-1,7
 159 170 159 170 159 240 c 0,8,9
 159 281 159 281 168 329 c 2,10,-1
 196 474 l 2,11,12
 233 660 233 660 402 744 c 1,13,-1
 232 821 l 1,14,-1
 285 1097 l 1,15,16
 644 1234 644 1234 876 1234 c 0,17,18
 1357 1234 1357 1234 1357 920 c 0,19,20
 1357 871 1357 871 1347 822 c 2,21,-1
 1230 221 l 1,22,-1
 1510 221 l 1,23,-1
 1701 1204 l 1,24,-1
 2009 1204 l 1,25,-1
 1775 0 l 1,26,-1
 876 0 l 1,27,-1
 1033 806 l 2,28,29
 1037 823 1037 823 1037 843 c 0,30,31
 1037 886 1037 886 1015 917 c 128,-1,32
 993 948 993 948 954.5 964 c 128,-1,33
 916 980 916 980 873.5 987 c 128,-1,34
 831 994 831 994 780 994 c 0,35,36
 664 994 664 994 569 947 c 1,37,-1
 753 856 l 1,38,-1
 715 660 l 1,39,40
 654 641 654 641 612 618 c 128,-1,41
 570 595 570 595 551.5 571.5 c 128,-1,42
 533 548 533 548 526 533.5 c 128,-1,43
 519 519 519 519 516 502 c 1,44,-1
 582 502 l 2,45,46
 651 502 651 502 711 446.5 c 128,-1,47
 771 391 771 391 771 299 c 0,0,1
471 178 m 0,48,49
 510 178 510 178 536.5 206.5 c 128,-1,50
 563 235 563 235 563 270 c 0,51,52
 563 296 563 296 545.5 311.5 c 128,-1,53
 528 327 528 327 501 327 c 0,54,55
 467 327 467 327 437.5 301.5 c 128,-1,56
 408 276 408 276 408 239 c 0,57,58
 408 213 408 213 425 195.5 c 128,-1,59
 442 178 442 178 471 178 c 0,48,49
1044 -285 m 0,60,61
 1075 -285 1075 -285 1094.5 -264.5 c 128,-1,62
 1114 -244 1114 -244 1114 -218 c 0,63,64
 1114 -199 1114 -199 1101 -185.5 c 128,-1,65
 1088 -172 1088 -172 1064 -172 c 0,66,67
 1034 -172 1034 -172 1012.5 -194 c 128,-1,68
 991 -216 991 -216 991 -241 c 0,69,70
 991 -262 991 -262 1006.5 -273.5 c 128,-1,71
 1022 -285 1022 -285 1044 -285 c 0,60,61
1239 -204 m 0,72,73
 1239 -224 1239 -224 1233 -247 c 128,-1,74
 1227 -270 1227 -270 1223 -274 c 1,75,76
 1270 -269 1270 -269 1352 -248.5 c 128,-1,77
 1434 -228 1434 -228 1549 -178.5 c 128,-1,78
 1664 -129 1664 -129 1738 -67 c 1,79,-1
 1731 -306 l 1,80,81
 1659 -353 1659 -353 1561 -386.5 c 128,-1,82
 1463 -420 1463 -420 1371.5 -434.5 c 128,-1,83
 1280 -449 1280 -449 1218 -455 c 128,-1,84
 1156 -461 1156 -461 1116 -461 c 0,85,86
 1000 -461 1000 -461 950 -420 c 0,87,88
 906 -386 906 -386 886.5 -354 c 128,-1,89
 867 -322 867 -322 867 -279 c 0,90,91
 867 -223 867 -223 889 -177.5 c 128,-1,92
 911 -132 911 -132 945 -106 c 128,-1,93
 979 -80 979 -80 1016 -66.5 c 128,-1,94
 1053 -53 1053 -53 1088 -53 c 0,95,96
 1156 -53 1156 -53 1197.5 -98 c 128,-1,97
 1239 -143 1239 -143 1239 -204 c 0,72,73
EndSplineSet
Substitution2: "'ccmp' Pali-Sanskrit Descender Removal" uni0E0D.descless
Substitution2: "Thai Descender Removal Single Substitution" uni0E0D.descless
EndChar

StartChar: uni0E0E
Encoding: 3598 3598 137
Width: 1560
Flags: W
HStem: -532 193<459.427 605.387> -196 195<479.224 661.031> -10 179<292.656 429.211> 984 241<740.356 1138.4>
VStem: 108 182<100.646 302.897> 240 217<-337.896 -222.392> 1199 329<640.75 928.002>
DStem2: 936.77 -532 1256.67 -532 0.190809 0.981627<320.896 1388.42>
AnchorPoint: "BelowBase" 1237 -580 basechar 0
LayerCount: 3
Fore
SplineSet
353 169 m 0xba
 406 169 445 217 445 257 c 0
 445 291 419 318 381 318 c 8
 339 318 290 284 290 230 c 0
 290 196 314 169 353 169 c 0xba
240 -331 m 0xb6
 240 -129 446 -1 628 -1 c 0
 673 -1 716 -10 757 -29 c 1
 787 62 l 1
 978 -1 l 1xd6
 914 -127 l 1
 951 -156 978 -186 998 -217 c 1
 1195 795 l 2
 1197 808 1199 820 1199 832 c 0
 1199 953 1065 984 944 984 c 0
 883 984 811 975 732 937 c 1
 933 836 l 1
 895 644 l 1
 823 620 761 561 745 478 c 2
 714 320 l 2
 663 56 497 -10 338 -10 c 0
 234 -10 108 30 108 177 c 0xba
 108 342 234 483 388 493 c 2
 434 496 l 1
 459 622 496 690 595 734 c 1
 394 811 l 1
 447 1088 l 1
 736 1207 925 1225 1038 1225 c 0
 1211 1225 1343 1193 1429 1128 c 1
 1495 1080 1528 1007 1528 911 c 0
 1528 880 1525 847 1518 811 c 2
 1259 -520 l 1
 931 -520 l 1
 903 -457 866 -403 818 -358 c 1
 732 -484 601 -532 473 -532 c 0
 353 -532 240 -458 240 -331 c 0xb6
578 -196 m 0
 526 -196 457 -230 457 -292 c 0
 457 -329 485 -339 505 -339 c 0
 558 -339 623 -299 662 -220 c 1
 634 -204 606 -196 578 -196 c 0
EndSplineSet
Validated: 1
Layer: 2
SplineSet
353 169 m 0,0,1
 391 169 391 169 418 197 c 128,-1,2
 445 225 445 225 445 257 c 0,3,4
 445 283 445 283 427 300.5 c 128,-1,5
 409 318 409 318 381 318 c 0,6,7
 347 318 347 318 318.5 293 c 128,-1,8
 290 268 290 268 290 230 c 0,9,10
 290 204 290 204 307 186.5 c 128,-1,11
 324 169 324 169 353 169 c 0,0,1
240 -331 m 0,12,13
 240 -235 240 -235 299.5 -157.5 c 128,-1,14
 359 -80 359 -80 447 -40.5 c 128,-1,15
 535 -1 535 -1 628 -1 c 0,16,17
 697 -1 697 -1 757 -29 c 1,18,-1
 787 62 l 1,19,-1
 978 -1 l 1,20,-1
 914 -127 l 1,21,22
 966 -168 966 -168 998 -217 c 1,23,-1
 1195 795 l 2,24,25
 1199 821 1199 821 1199 832 c 0,26,27
 1199 875 1199 875 1177 906.5 c 128,-1,28
 1155 938 1155 938 1116.5 954 c 128,-1,29
 1078 970 1078 970 1035.5 977 c 128,-1,30
 993 984 993 984 944 984 c 0,31,32
 830 984 830 984 732 937 c 1,33,-1
 933 836 l 1,34,-1
 895 644 l 1,35,36
 839 625 839 625 798 581.5 c 128,-1,37
 757 538 757 538 745 478 c 2,38,-1
 714 320 l 2,39,40
 650 -10 650 -10 338 -10 c 0,41,42
 296 -10 296 -10 258 -1 c 128,-1,43
 220 8 220 8 184.5 28 c 128,-1,44
 149 48 149 48 128.5 86 c 128,-1,45
 108 124 108 124 108 177 c 0,46,47
 108 301 108 301 190 393 c 128,-1,48
 272 485 272 485 388 493 c 2,49,-1
 434 496 l 1,50,51
 454 594 454 594 488.5 648 c 128,-1,52
 523 702 523 702 595 734 c 1,53,-1
 394 811 l 1,54,-1
 447 1088 l 1,55,56
 780 1225 780 1225 1038 1225 c 0,57,58
 1301 1225 1301 1225 1429 1128 c 0,59,60
 1528 1056 1528 1056 1528 911 c 0,61,62
 1528 862 1528 862 1518 811 c 2,63,-1
 1259 -520 l 1,64,-1
 931 -520 l 1,65,66
 888 -424 888 -424 818 -358 c 1,67,68
 757 -448 757 -448 666.5 -490 c 128,-1,69
 576 -532 576 -532 473 -532 c 0,70,71
 378 -532 378 -532 309 -477 c 128,-1,72
 240 -422 240 -422 240 -331 c 0,12,13
578 -196 m 0,73,74
 534 -196 534 -196 495.5 -222.5 c 128,-1,75
 457 -249 457 -249 457 -292 c 0,76,77
 457 -317 457 -317 471.5 -328 c 128,-1,78
 486 -339 486 -339 505 -339 c 0,79,80
 547 -339 547 -339 590.5 -308 c 128,-1,81
 634 -277 634 -277 662 -220 c 1,82,83
 620 -196 620 -196 578 -196 c 0,73,74
EndSplineSet
EndChar

StartChar: uni0E0F
Encoding: 3599 3599 138
Width: 1550
Flags: W
HStem: -523 177<234.055 385.328> -241 162<238.778 409.184> -12 181<294.617 428.173> 985 240<741.319 1136.66>
VStem: 23 210<-345.468 -251.835> 110 180<171.931 303.691> 1199 328<637.859 927.398>
DStem2: 938.712 -523 1257.42 -523 0.190809 0.981627<274.035 1378.28>
AnchorPoint: "BelowBase" 1237 -580 basechar 0
LayerCount: 3
Fore
SplineSet
353 169 m 0xf6
 406 169 445 217 445 257 c 0
 445 291 419 318 381 318 c 8
 339 318 290 284 290 230 c 0
 290 196 314 169 353 169 c 0xf6
23 -340 m 0xfa
 23 -230 146 -79 357 -79 c 0
 367 -79 462 -81 519 -119 c 1
 618 9 l 1
 841 -76 l 1
 691 -232 l 1
 741 -265 l 1
 843 -175 l 1
 921 -175 l 1
 991 -254 l 1
 1195 795 l 2
 1197 808 1199 820 1199 831 c 0
 1199 953 1063 985 941 985 c 0
 864 985 794 967 732 937 c 1
 933 836 l 1
 895 644 l 1
 823 620 761 561 745 478 c 2
 714 320 l 2
 659 38 436 -12 326 -12 c 0
 200 -12 110 78 110 194 c 0xf6
 110 303 198 480 388 493 c 2
 434 496 l 1
 459 622 496 690 595 734 c 1
 394 811 l 1
 447 1088 l 1
 666 1195 867 1225 1038 1225 c 0
 1305 1225 1527 1161 1527 904 c 0
 1527 875 1523 844 1517 811 c 2
 1258 -520 l 1
 921 -520 l 1
 847 -418 l 1
 751 -508 l 1
 652 -508 l 1
 554 -388 l 1
 460 -471 348 -523 256 -523 c 0
 145 -523 23 -457 23 -340 c 0xfa
329 -241 m 0
 275 -241 233 -268 233 -309 c 0xfa
 233 -338 260 -346 289 -346 c 0
 354 -346 388 -304 411 -265 c 1
 384 -249 356 -241 329 -241 c 0
EndSplineSet
Validated: 1
Layer: 2
SplineSet
353 169 m 0,0,1
 391 169 391 169 418 197 c 128,-1,2
 445 225 445 225 445 257 c 0,3,4
 445 283 445 283 427 300.5 c 128,-1,5
 409 318 409 318 381 318 c 0,6,7
 347 318 347 318 318.5 293 c 128,-1,8
 290 268 290 268 290 230 c 0,9,10
 290 204 290 204 307 186.5 c 128,-1,11
 324 169 324 169 353 169 c 0,0,1
23 -340 m 0,12,13
 23 -298 23 -298 46 -253 c 128,-1,14
 69 -208 69 -208 110 -168.5 c 128,-1,15
 151 -129 151 -129 216 -104 c 128,-1,16
 281 -79 281 -79 357 -79 c 0,17,18
 459 -79 459 -79 519 -119 c 1,19,-1
 618 9 l 1,20,-1
 841 -76 l 1,21,-1
 691 -232 l 1,22,-1
 741 -265 l 1,23,-1
 843 -175 l 1,24,-1
 921 -175 l 1,25,-1
 991 -254 l 1,26,-1
 1195 795 l 2,27,28
 1199 821 1199 821 1199 831 c 0,29,30
 1199 875 1199 875 1176.5 906.5 c 128,-1,31
 1154 938 1154 938 1115 954 c 128,-1,32
 1076 970 1076 970 1033.5 977.5 c 128,-1,33
 991 985 991 985 941 985 c 0,34,35
 831 985 831 985 732 937 c 1,36,-1
 933 836 l 1,37,-1
 895 644 l 1,38,39
 839 625 839 625 798 581.5 c 128,-1,40
 757 538 757 538 745 478 c 2,41,-1
 714 320 l 2,42,43
 698 240 698 240 662.5 178 c 128,-1,44
 627 116 627 116 585.5 81 c 128,-1,45
 544 46 544 46 493.5 24 c 128,-1,46
 443 2 443 2 403.5 -5 c 128,-1,47
 364 -12 364 -12 326 -12 c 0,48,49
 232 -12 232 -12 171 47 c 128,-1,50
 110 106 110 106 110 194 c 0,51,52
 110 237 110 237 127.5 285.5 c 128,-1,53
 145 334 145 334 177.5 379.5 c 128,-1,54
 210 425 210 425 265 456.5 c 128,-1,55
 320 488 320 488 388 493 c 2,56,-1
 434 496 l 1,57,58
 454 594 454 594 488.5 648 c 128,-1,59
 523 702 523 702 595 734 c 1,60,-1
 394 811 l 1,61,-1
 447 1088 l 1,62,63
 727 1225 727 1225 1038 1225 c 0,64,65
 1123 1225 1123 1225 1192 1216.5 c 128,-1,66
 1261 1208 1261 1208 1325 1186 c 128,-1,67
 1389 1164 1389 1164 1432.5 1128.5 c 128,-1,68
 1476 1093 1476 1093 1501.5 1036 c 128,-1,69
 1527 979 1527 979 1527 904 c 0,70,71
 1527 866 1527 866 1517 811 c 2,72,-1
 1258 -520 l 1,73,-1
 921 -520 l 1,74,-1
 847 -418 l 1,75,-1
 751 -508 l 1,76,-1
 652 -508 l 1,77,-1
 554 -388 l 1,78,79
 483 -451 483 -451 403.5 -487 c 128,-1,80
 324 -523 324 -523 256 -523 c 0,81,82
 166 -523 166 -523 94.5 -473 c 128,-1,83
 23 -423 23 -423 23 -340 c 0,12,13
329 -241 m 128,-1,85
 288 -241 288 -241 260.5 -260 c 128,-1,86
 233 -279 233 -279 233 -309 c 0,87,88
 233 -346 233 -346 289 -346 c 0,89,90
 363 -346 363 -346 411 -265 c 1,91,84
 370 -241 370 -241 329 -241 c 128,-1,85
EndSplineSet
EndChar

StartChar: uni0E10
Encoding: 3600 3600 139
Width: 1250
Flags: W
HStem: -617 143<163.133 281.009> -394 130<164.799 282.35> -361 103<675.022 718.118> -156 111<678.642 818.5> 0 21G<677.755 986.91> 205 144<387.915 526.369> 498 144<400.062 537.213> 984 241<640.633 1180.48>
VStem: 19 144<-513 -397.361> 237 147<352.786 480.132> 557 117<-257.134 -160.784> 778 197<-254.725 -158.702> 882 337<496.641 698.5>
DStem2: 635 938 746 666 0.962154 -0.272506<0 331.284>
LayerCount: 3
Fore
SplineSet
237 373 m 0x9fe8
 237 508 356 642 523 642 c 0
 595 642 653 614 696 558 c 0
 741 501 778 435 804 360 c 1
 875 530 l 2
 879 542 882 549 882 562 c 0
 882 608 837 643 746 666 c 2
 291 782 l 1
 350 1088 l 1
 473 1135 724 1225 956 1225 c 0
 1155 1225 1293 1190 1371 1122 c 1
 1137 858 l 1
 1128 954 1025 984 913 984 c 0
 806 984 713 971 635 938 c 1
 1094 808 l 2
 1177 785 1219 736 1219 661 c 0
 1219 624 1207 576 1189 531 c 2
 979 0 l 1
 683 0 l 1
 608 286 l 1
 572 242 501 205 427 205 c 0
 310 205 237 271 237 373 c 0x9fe8
477 498 m 0
 431 498 384 457 384 407 c 0
 384 371 412 349 447 349 c 8
 495 349 540 388 540 438 c 0
 540 474 513 498 477 498 c 0
19 -480 m 0
 19 -358 146 -264 253 -264 c 0xdff0
 283 -264 311 -265 362 -308 c 1
 407 -231 l 1
 512 -338 l 1
 461 -408 l 1
 509 -458 l 1
 581 -385 l 1
 640 -385 l 1
 682 -456 l 1
 701 -360 l 1
 695 -361 689 -361 684 -361 c 0
 628 -361 557 -323 557 -237 c 0
 557 -122 658 -45 784 -45 c 0
 853 -45 975 -69 975 -235 c 0xbff0
 975 -260 972 -289 966 -321 c 2
 908 -615 l 1
 646 -615 l 1
 587 -528 l 1
 514 -610 l 1
 442 -610 l 1
 379 -518 l 1
 334 -584 266 -617 174 -617 c 0
 57 -617 19 -546 19 -480 c 0
716 -258 m 0xbff0
 752 -258 778 -221 778 -195 c 0
 778 -174 762 -156 738 -156 c 0
 698 -156 674 -188 674 -218 c 0
 674 -240 687 -258 716 -258 c 0xbff0
217 -394 m 0xdfe0
 193 -394 163 -417 163 -443 c 0
 163 -457 169 -474 196 -474 c 0
 249 -474 261 -446 283 -428 c 1
 260 -406 250 -394 217 -394 c 0xdfe0
EndSplineSet
Validated: 1
Layer: 2
SplineSet
237 373 m 0,0,1
 237 478 237 478 319.5 560 c 128,-1,2
 402 642 402 642 523 642 c 0,3,4
 632 642 632 642 696 558 c 0,5,6
 766 469 766 469 804 360 c 1,7,-1
 875 530 l 2,8,9
 882 551 882 551 882 562 c 0,10,11
 882 632 882 632 746 666 c 2,12,-1
 291 782 l 1,13,-1
 350 1088 l 1,14,15
 709 1225 709 1225 956 1225 c 0,16,17
 1253 1225 1253 1225 1371 1122 c 1,18,-1
 1137 858 l 1,19,20
 1131 925 1131 925 1069 954.5 c 128,-1,21
 1007 984 1007 984 913 984 c 0,22,23
 744 984 744 984 635 938 c 1,24,-1
 1094 808 l 2,25,26
 1219 773 1219 773 1219 661 c 0,27,28
 1219 606 1219 606 1189 531 c 2,29,-1
 979 0 l 1,30,-1
 683 0 l 1,31,-1
 608 286 l 1,32,33
 580 251 580 251 530 228 c 128,-1,34
 480 205 480 205 427 205 c 0,35,36
 340 205 340 205 288.5 250.5 c 128,-1,37
 237 296 237 296 237 373 c 0,0,1
477 498 m 0,38,39
 442 498 442 498 413 471 c 128,-1,40
 384 444 384 444 384 407 c 0,41,42
 384 381 384 381 402 365 c 128,-1,43
 420 349 420 349 447 349 c 0,44,45
 484 349 484 349 512 375 c 128,-1,46
 540 401 540 401 540 438 c 0,47,48
 540 465 540 465 522 481.5 c 128,-1,49
 504 498 504 498 477 498 c 0,38,39
19 -480 m 0,50,51
 19 -392 19 -392 93.5 -328 c 128,-1,52
 168 -264 168 -264 253 -264 c 0,53,54
 272 -264 272 -264 284 -265.5 c 128,-1,55
 296 -267 296 -267 317 -277.5 c 128,-1,56
 338 -288 338 -288 362 -308 c 1,57,-1
 407 -231 l 1,58,-1
 512 -338 l 1,59,-1
 461 -408 l 1,60,-1
 509 -458 l 1,61,-1
 581 -385 l 1,62,-1
 640 -385 l 1,63,-1
 682 -456 l 1,64,-1
 701 -360 l 1,65,66
 695 -361 695 -361 684 -361 c 0,67,68
 636 -361 636 -361 596.5 -328.5 c 128,-1,69
 557 -296 557 -296 557 -237 c 0,70,71
 557 -152 557 -152 622.5 -98.5 c 128,-1,72
 688 -45 688 -45 784 -45 c 0,73,74
 808 -45 808 -45 830.5 -48.5 c 128,-1,75
 853 -52 853 -52 880.5 -64 c 128,-1,76
 908 -76 908 -76 928 -96 c 128,-1,77
 948 -116 948 -116 961.5 -152 c 128,-1,78
 975 -188 975 -188 975 -235 c 0,79,80
 975 -273 975 -273 966 -321 c 2,81,-1
 908 -615 l 1,82,-1
 646 -615 l 1,83,-1
 587 -528 l 1,84,-1
 514 -610 l 1,85,-1
 442 -610 l 1,86,-1
 379 -518 l 1,87,88
 312 -617 312 -617 174 -617 c 0,89,90
 93 -617 93 -617 56 -577 c 128,-1,91
 19 -537 19 -537 19 -480 c 0,50,51
716 -258 m 0,92,93
 741 -258 741 -258 759.5 -237 c 128,-1,94
 778 -216 778 -216 778 -195 c 0,95,96
 778 -179 778 -179 767 -167.5 c 128,-1,97
 756 -156 756 -156 738 -156 c 0,98,99
 709 -156 709 -156 691.5 -175 c 128,-1,100
 674 -194 674 -194 674 -218 c 0,101,102
 674 -236 674 -236 684.5 -247 c 128,-1,103
 695 -258 695 -258 716 -258 c 0,92,93
217 -394 m 0,104,105
 198 -394 198 -394 180.5 -409 c 128,-1,106
 163 -424 163 -424 163 -443 c 0,107,108
 163 -474 163 -474 196 -474 c 0,109,110
 215 -474 215 -474 229.5 -469 c 128,-1,111
 244 -464 244 -464 251 -458.5 c 128,-1,112
 258 -453 258 -453 268 -442.5 c 128,-1,113
 278 -432 278 -432 283 -428 c 1,114,115
 254.964138435 -401.183088938 254.964138435 -401.183088938 240.640558477 -396.935755628 c 0,116,117
 230.740103909 -394 230.740103909 -394 217 -394 c 0,104,105
EndSplineSet
Substitution2: "'ccmp' Pali-Sanskrit Descender Removal" uni0E10.descless
Substitution2: "Thai Descender Removal Single Substitution" uni0E10.descless
EndChar

StartChar: uni0E11
Encoding: 3601 3601 140
Width: 1820
Flags: W
HStem: 0 21G<432 833 1319 1632.89> 605 137<361.392 502.92> 836 387<1400.95 1668.5>
VStem: 218 142<745.41 870.418> 516 145<756.86 887.382> 863 254<824.391 1004.19>
DStem2: 1319 0 1629 0 0.190809 0.981627<59.1508 812.538>
LayerCount: 3
Fore
SplineSet
424 742 m 0
 481 742 516 790 516 831 c 0
 516 862 495 890 454 890 c 0
 402 890 360 844 360 800 c 0
 360 763 390 742 424 742 c 0
661 848 m 0
 661 712 548 605 399 605 c 0
 322 605 218 643 218 783 c 0
 218 804 220 827 225 853 c 0
 281 1143 523 1209 605 1215 c 1
 732 1126 l 1
 883 1215 l 1
 1033 1195 1117 1096 1117 967 c 0
 1117 771 911 596 852 481 c 0
 834 445 821 405 812 361 c 2
 808 340 l 1
 836 360 895 429 987 549 c 0
 1077 668 1162 820 1241 1003 c 0
 1261 1051 1301 1100 1359 1149 c 0
 1417 1198 1487 1223 1571 1223 c 0
 1766 1223 1820 1119 1820 1016 c 0
 1820 994 1818 972 1814 951 c 2
 1629 0 l 1
 1319 0 l 1
 1471 784 l 2
 1472 789 1473 794 1473 798 c 0
 1473 828 1447 836 1430 836 c 0
 1414 836 1378 810 1367 784 c 0
 1253 525 919 155 747 0 c 1
 432 0 l 1
 512 409 l 2
 520 455 553 610 757 763 c 0
 851 833 863 919 863 948 c 0
 863 981 847 1000 810 1008 c 1
 700 970 l 1
 555 1051 l 1
 506 1032 l 1
 618 1015 661 931 661 848 c 0
EndSplineSet
Validated: 1
Layer: 2
SplineSet
424 742 m 0,0,1
 464 742 464 742 490 770 c 128,-1,2
 516 798 516 798 516 831 c 0,3,4
 516 856 516 856 499.5 873 c 128,-1,5
 483 890 483 890 454 890 c 0,6,7
 416 890 416 890 388 862 c 128,-1,8
 360 834 360 834 360 800 c 0,9,10
 360 773 360 773 378.5 757.5 c 128,-1,11
 397 742 397 742 424 742 c 0,0,1
661 848 m 0,12,13
 661 746 661 746 585.5 675.5 c 128,-1,14
 510 605 510 605 399 605 c 0,15,16
 367 605 367 605 337.5 613.5 c 128,-1,17
 308 622 308 622 280 641 c 128,-1,18
 252 660 252 660 235 696.5 c 128,-1,19
 218 733 218 733 218 783 c 0,20,21
 218 817 218 817 225 853 c 0,22,23
 241 935 241 935 278.5 1001 c 128,-1,24
 316 1067 316 1067 359 1104.5 c 128,-1,25
 402 1142 402 1142 452.5 1168 c 128,-1,26
 503 1194 503 1194 539 1203.5 c 128,-1,27
 575 1213 575 1213 605 1215 c 1,28,-1
 732 1126 l 1,29,-1
 883 1215 l 1,30,31
 994 1200 994 1200 1055.5 1133 c 128,-1,32
 1117 1066 1117 1066 1117 967 c 0,33,34
 1117 899 1117 899 1083 823.5 c 128,-1,35
 1049 748 1049 748 1007.5 694 c 128,-1,36
 966 640 966 640 917.5 577 c 128,-1,37
 869 514 869 514 852 481 c 0,38,39
 826 429 826 429 812 361 c 2,40,-1
 808 340 l 1,41,42
 849 370 849 370 987 549 c 0,43,44
 1122 728 1122 728 1241 1003 c 0,45,46
 1271 1074 1271 1074 1359 1149 c 0,47,48
 1447 1223 1447 1223 1571 1223 c 0,49,50
 1705 1223 1705 1223 1762.5 1164 c 128,-1,51
 1820 1105 1820 1105 1820 1016 c 0,52,53
 1820 982 1820 982 1814 951 c 2,54,-1
 1629 0 l 1,55,-1
 1319 0 l 1,56,-1
 1471 784 l 2,57,58
 1473 794 1473 794 1473 798 c 0,59,60
 1473 818 1473 818 1459.5 827 c 128,-1,61
 1446 836 1446 836 1430 836 c 0,62,63
 1417 836 1417 836 1396 819.5 c 128,-1,64
 1375 803 1375 803 1367 784 c 0,65,66
 1327 692 1327 692 1247.5 575.5 c 128,-1,67
 1168 459 1168 459 1077.5 351.5 c 128,-1,68
 987 244 987 244 901 153 c 128,-1,69
 815 62 815 62 747 0 c 1,70,-1
 432 0 l 1,71,-1
 512 409 l 1,72,73
 546 605 546 605 757 763 c 0,74,75
 818 808 818 808 840.5 860 c 128,-1,76
 863 912 863 912 863 948 c 0,77,78
 863 997 863 997 810 1008 c 1,79,-1
 700 970 l 1,80,-1
 555 1051 l 1,81,-1
 506 1032 l 1,82,83
 585 1020 585 1020 623 968.5 c 128,-1,84
 661 917 661 917 661 848 c 0,12,13
EndSplineSet
EndChar

StartChar: uni0E12
Encoding: 3602 3602 141
Width: 2230
Flags: W
HStem: -21 191<1235.17 1387.06> 0 21G<187 577.5 1710 2040.89> 702 140<831.283 980.255> 1203 1G<756.5 840.922 1246.83 1394 1961.12 2271>
VStem: 664 147<544.223 682.841> 986 157<559.307 696.071> 1021 210<175.56 314.737> 1319 309<686.096 969.316>
DStem2: 273 710 537 339 0.120248 0.992744<-336.563 210.126> 1727.11 -21 2032.92 -21 0.190809 0.981627<345.345 1247.89>
LayerCount: 3
Fore
SplineSet
1336 338 m 0xbb
 1276 338 1231 284 1231 236 c 0
 1231 196 1263 170 1304 170 c 0
 1352 170 1407 212 1407 269 c 0
 1407 307 1380 338 1336 338 c 0xbb
913 702 m 0
 853 702 811 648 811 603 c 0
 811 566 841 539 884 539 c 0
 941 539 986 589 986 635 c 0x3d
 986 672 958 702 913 702 c 0
1143 677 m 0
 1143 406 660 102 495 0 c 1
 187 0 l 1
 273 710 l 2
 292 863 354 985 476 1078 c 1
 592 1168 703 1216 810 1223 c 1
 1028 1082 l 1
 1283 1223 l 1
 1505 1217 1628 1067 1628 859 c 0
 1628 823 1625 785 1617 746 c 2
 1572 512 l 1
 1659 492 1732 427 1793 318 c 1
 1965 1204 l 1
 2271 1204 l 1
 2037 0 l 1
 1726 0 l 1x7d
 1694 107 1648 176 1591 209 c 1
 1575 128 1454 -21 1279 -21 c 0
 1121 -21 1021 53 1021 189 c 0xbb
 1021 333 1121 467 1265 515 c 1
 1308 737 l 2
 1316 777 1319 810 1319 839 c 0
 1319 948 1272 985 1246 994 c 1
 1072 898 l 1
 935 898 l 1
 785 993 l 1
 610 897 590 772 578 689 c 1
 537 339 l 1
 644 362 719 394 758 437 c 1
 702 465 664 506 664 575 c 0
 664 692 757 842 939 842 c 0
 1017 842 1143 808 1143 677 c 0
EndSplineSet
Validated: 1
Layer: 2
SplineSet
1336 338 m 0,0,1
 1293 338 1293 338 1262 306 c 128,-1,2
 1231 274 1231 274 1231 236 c 0,3,4
 1231 207 1231 207 1252 188.5 c 128,-1,5
 1273 170 1273 170 1304 170 c 0,6,7
 1342 170 1342 170 1374.5 199 c 128,-1,8
 1407 228 1407 228 1407 269 c 0,9,10
 1407 298 1407 298 1387.5 318 c 128,-1,11
 1368 338 1368 338 1336 338 c 0,0,1
913 702 m 0,12,13
 870 702 870 702 840.5 670.5 c 128,-1,14
 811 639 811 639 811 603 c 0,15,16
 811 575 811 575 831.5 557 c 128,-1,17
 852 539 852 539 884 539 c 0,18,19
 925 539 925 539 955.5 569 c 128,-1,20
 986 599 986 599 986 635 c 0,21,22
 986 664 986 664 966 683 c 128,-1,23
 946 702 946 702 913 702 c 0,12,13
1143 677 m 0,24,25
 1143 401 1143 401 495 0 c 1,26,-1
 187 0 l 1,27,-1
 273 710 l 2,28,29
 302 946 302 946 476 1078 c 0,30,31
 649 1212 649 1212 810 1223 c 1,32,-1
 1028 1082 l 1,33,-1
 1283 1223 l 1,34,35
 1446 1219 1446 1219 1537 1119 c 128,-1,36
 1628 1019 1628 1019 1628 859 c 0,37,38
 1628 800 1628 800 1617 746 c 2,39,-1
 1572 512 l 1,40,41
 1701 482 1701 482 1793 318 c 1,42,-1
 1965 1204 l 1,43,-1
 2271 1204 l 1,44,-1
 2037 0 l 1,45,-1
 1726 0 l 1,46,47
 1679 158 1679 158 1591 209 c 1,48,49
 1585 177 1585 177 1559.5 138.5 c 128,-1,50
 1534 100 1534 100 1495 64 c 128,-1,51
 1456 28 1456 28 1398.5 3.5 c 128,-1,52
 1341 -21 1341 -21 1279 -21 c 0,53,54
 1159 -21 1159 -21 1090 33.5 c 128,-1,55
 1021 88 1021 88 1021 189 c 0,56,57
 1021 297 1021 297 1089 388 c 128,-1,58
 1157 479 1157 479 1265 515 c 1,59,-1
 1308 737 l 2,60,61
 1319 792 1319 792 1319 839 c 0,62,63
 1319 911 1319 911 1296 948 c 128,-1,64
 1273 985 1273 985 1246 994 c 1,65,-1
 1072 898 l 1,66,-1
 935 898 l 1,67,-1
 785 993 l 1,68,69
 735 966 735 966 697.5 932 c 128,-1,70
 660 898 660 898 640 869.5 c 128,-1,71
 620 841 620 841 606 803.5 c 128,-1,72
 592 766 592 766 587.5 744.5 c 128,-1,73
 583 723 583 723 578 689 c 2,74,-1
 537 339 l 1,75,76
 701 374 701 374 758 437 c 1,77,78
 664 484 664 484 664 575 c 0,79,80
 664 620 664 620 682 666 c 128,-1,81
 700 712 700 712 733 752 c 128,-1,82
 766 792 766 792 820 817 c 128,-1,83
 874 842 874 842 939 842 c 0,84,85
 972 842 972 842 1004.5 834 c 128,-1,86
 1037 826 1037 826 1069.5 809 c 128,-1,87
 1102 792 1102 792 1122.5 757.5 c 128,-1,88
 1143 723 1143 723 1143 677 c 0,24,25
EndSplineSet
EndChar

